{
.appVersion = "3133";
.formatVersion = 3;
DisplayStrings = (
"ÁÁĂĂÂÂÄÄÀÀĀĀĄĄÅÅÃÃǼǼĆĆČČÇÇĈĈĊĊĎĎÉÉĔĔĚĚÊÊËËĖĖÈÈĒĒĘĘĞĞĜĜĠĠĤĤÍÍĬĬÎÎÏÏİİÌÌĪĪĮĮĨĨĴĴŃŃŇŇÑÑÓÓŎŎÔÔÖÖÒÒŐŐŌŌǾǾÕÕŔŔŘŘŚŚŠŠŞŞŜŜŤŤÚÚŬŬÛÛÜÜÙÙŰŰŪŪŲŲŮŮŨŨẂẂŴŴẄẄẀẀÝÝŶŶŸŸỲỲŹŹŽŽŻŻŢŢááăăââääààāāąąååããǽǽććččççĉĉċċďééĕĕěěêêëëėėèèēēęęğğĝĝġġííĭĭîîïïììīīįįĩĩľńńňňññóóŏŏôôööòòőőōōǿǿõõŕŕřřśśššşşŝŝúúŭŭûûüüùùűűūūţţųųůůũũẃẃŵŵẅẅẁẁýýŷŷÿÿỳỳźźžžżż½½¼¼¾¾⁹"
);
customParameters = (
{
name = codePageRanges;
value = (
"1252",
"1250",
"1254",
"1257",
"bit 29"
);
},
{
name = panose;
value = (
2,
0,
5,
3,
4,
0,
0,
2,
0,
3
);
}
);
date = "2022-08-04 15:40:25 +0000";
familyName = Average;
featurePrefixes = (
{
code = "languagesystem DFLT dflt;
languagesystem latn dflt; # Latin default
languagesystem latn MOL ; # Latin Moldavian
languagesystem latn ROM ; # Latin Romanian
";
name = Languagesystems;
},
{
code = "#
# Feature definitions
#

###
# OpenType Layout feature definitions
# Format: Adobe FDK for OpenType (AFDKO) version 2.5
# Generated on: 2013-11-21 15:32
# Generated by: Fontlab
# Tool options: fea-inline-lookups: yes, fea-inline-classes: 0, fea-additional-tables: yes, fea-table-overrides: no
# Font path: /Users/etunni/Documents/TIPOGRAFIAS 2013/Average-PRO/Average-Regular.vfb
# Font PostScript name: Average-Regular
# Font copyright: Copyright (c) 2012, Eduardo Tunni (http://www.tipo.net.ar), with Reserved Font Name \"Average\"
#
# Totals:
# Languagesystems: 3
# GSUB lookups: 3
# GSUB features: 2 (liga, locl)
# GPOS lookups: 3
# GPOS features: 3 (case, cpsp, kern)

#
# Languagesystem definitions
#

#
# Lookup definitions
#

    lookup locl_latnMOL_latnROM_1 {
    # GSUB lookup 2, type 11 (Single)
      sub [\\scedilla \\uni0163] by [\\uni0219 \\uni021B];
    } locl_latnMOL_latnROM_1;
feature case {
# GPOS feature: Case-Sensitive Forms
# Lookups: 1

  script latn; # Latin
    lookup case_latn_1 {
    # GPOS lookup 2, type 1 (Single adjustment)

glyphs = (
{
glyphname = A;
layers = (
{
layerId = master01;
shapes = (
{
closed = 1;
nodes = (
(55,-1,o),
(75,0,o),
(117,0,cs,{
name = hr01;
}),
(165,0,o),
(206,-1,o),
(250,-3,c,{
name = hr02;
}),
(253,26,l),
(189,39,o),
(167,48,o),
(167,64,c),
(221,242,l),
(447,242,l),
(502,64,l),
(502,48,o),
(483,39,o),
(414,26,c),
(417,-3,l),
(458,-1,o),
(507,0,o),
(558,0,cs,{
name = hr03;
}),
(606,0,o),
(647,-1,o),
(691,-3,c,{
name = hr04;
}),
(694,26,l),
(634,37,o),
(618,46,o),
(609,69,cs),
(376,694,l),
(292,684,l),
(93,75,ls),
(85,50,o),
(63,38,o),
(0,26,c),
(3,-3,l)
);
},
{
closed = 1;
nodes = (
(326,590,l),
(330,590,l),
(431,288,l),
(235,288,l)
);
}
);
width = 694;
}
);
unicode = 65;
},
{
glyphname = Aringacute;
layers = (
{
layerId = master01;
shapes = (
{
closed = 1;
nodes = (
(448,1058,o),
(415,1077,o),
(382,1077,c),
(261,897,l),
(291,892,l),
(451,1035,l,{
name = hr00;
})
);
},
{
ref = A;
},
{
pos = (173,156);
ref = ring;
}
);
width = 694;
}
);
unicode = 506;
},
{
glyphname = AE;
layers = (
{
layerId = master01;
shapes = (
{
closed = 1;
nodes = (
(472,44,o),
(446,38,o),
(386,26,c),
(389,-3,l),
(431,-1,o),
(459,0,o),
(509,0,cs,{
name = hr01;
}),
(909,0,l),
(911,36,o),
(921,123,o),
(933,159,c),
(906,171,l),
(865,43,o),
(789,36,o),
(686,36,cs),
(643,36,o),
(592,44,o),
(585,68,c),
(585,68,o),
(574,121,o),
(574,327,c),
(637,327,o),
(709,325,o),
(734,319,cs),
(759,313,o),
(764,298,o),
(777,231,c),
(812,236,l),
(807,273,o),
(804,310,o),
(804,348,cs),
(804,385,o),
(807,423,o),
(812,459,c),
(777,463,l),
(764,396,o),
(759,381,o),
(734,375,cs),
(709,369,o),
(637,367,o),
(574,367,c),
(575,556,o),
(585,621,o),
(585,621,c),
(588,641,o),
(608,644,o),
(637,644,cs),
(800,644,o),
(837,642,o),
(875,517,c),
(902,529,l),
(896,565,o),
(890,634,o),
(890,680,cs),
(890,691,l,{
name = hr02;
}),
(818,688,o),
(702,685,o),
(588,685,cs,{
name = hr03;
}),
(371,685,l),
(90,75,ls),
(79,50,o),
(60,38,o),
(0,26,c),
(3,-3,l),
(45,-1,o),
(68,0,o),
(118,0,cs,{
name = hr04;
}),
(168,0,o),
(209,-1,o),
(251,-3,c,{
name = hr05;
}),
(254,26,l),
(198,37,o),
(170,46,o),
(163,63,c),
(163,78,o),
(219,193,o),
(277,327,c),
(484,327,l),
(483,125,o),
(475,69,o),
(475,69,c)
);
},
{
closed = 1;
nodes = (
(459,646,o),
(476,641,o),
(479,616,c),
(479,616,o),
(483,560,o),
(484,367,c),
(295,367,l),
(420,646,l)
);
}
);
width = 967;
}
);
unicode = 198;
},
{
glyphname = B;
layers = (
{
layerId = master01;
shapes = (
{
closed = 1;
nodes = (
(73,-1,o),
(122,0,o),
(173,0,cs,{
name = hr01;
}),
(357,0,ls),
(479,0,o),
(577,87,o),
(577,194,cs),
(577,292,o),
(530,348,o),
(428,372,c),
(492,404,o),
(533,463,o),
(533,525,cs),
(533,622,o),
(457,685,o),
(341,685,cs),
(173,685,ls),
(124,685,o),
(82,686,o),
(39,688,c,{
name = hr02;
}),
(36,659,l),
(102,645,o),
(115,639,o),
(118,616,c),
(118,616,o),
(126,557,o),
(126,342,cs),
(126,221,o),
(122,100,o),
(118,69,cs),
(115,47,o),
(100,40,o),
(29,26,c),
(32,-3,l)
);
},
{
closed = 1;
nodes = (
(271,36,o),
(232,48,o),
(226,68,cs),
(221,86,o),
(215,206,o),
(215,335,c),
(237,337,o),
(258,338,o),
(278,338,cs),
(412,338,o),
(482,288,o),
(482,193,cs),
(482,102,o),
(417,36,o),
(327,36,c,{
name = hr03;
})
);
},
{
closed = 1;
nodes = (
(215,488,o),
(221,599,o),
(226,621,cs),
(231,640,o),
(239,643,o),
(287,643,cs),
(386,643,o),
(439,602,o),
(439,525,cs),
(439,460,o),
(414,412,o),
(364,380,c),
(335,380,o),
(240,372,o),
(215,368,c)
);
}
);
width = 626;
}
);
unicode = 66;
},
{
glyphname = C;
layers = (
{
layerId = master01;
shapes = (
{
closed = 1;
nodes = (
(480,-12,o),
(563,4,o),
(645,34,c),
(647,74,o),
(656,125,o),
(668,168,c),
(641,180,l),
(612,89,o),
(527,37,o),
(407,37,cs),
(255,37,o),
(153,163,o),
(153,351,cs),
(153,530,o),
(252,648,o),
(402,648,cs),
(513,648,o),
(587,602,o),
(614,517,c),
(641,529,l),
(634,570,o),
(629,637,o),
(629,685,c),
(612,681,o),
(596,679,o),
(577,679,cs),
(535,679,o),
(486,694,o),
(403,694,cs,{
name = hr01;
}),
(194,694,o),
(48,546,o),
(48,334,cs),
(48,117,o),
(180,-12,o),
(404,-12,c)
);
}
);
width = 700;
}
);
unicode = 67;
},
{
glyphname = D;
layers = (
{
layerId = master01;
shapes = (
{
closed = 1;
nodes = (
(123,685,o),
(81,686,o),
(39,688,c,{
name = hr01;
}),
(36,659,l),
(96,647,o),
(115,641,o),
(118,616,c),
(118,616,o),
(126,557,o),
(126,342,cs),
(126,128,o),
(118,69,o),
(118,69,c),
(115,44,o),
(89,38,o),
(29,26,c),
(32,-3,l),
(74,-1,o),
(123,0,o),
(173,0,c,{
name = hr02;
}),
(334,0,ls),
(596,0,o),
(720,161,o),
(720,365,cs),
(720,599,o),
(528,685,o),
(351,685,c),
(173,685,l)
);
},
{
closed = 1;
nodes = (
(227,60,o),
(216,128,o),
(216,343,cs),
(216,557,o),
(227,622,o),
(227,622,c),
(231,639,o),
(240,643,o),
(289,643,c),
(565,643,o),
(615,483,o),
(615,350,cs),
(615,270,o),
(588,48,o),
(330,48,cs),
(293,48,o),
(263,52,o),
(227,60,c)
);
}
);
width = 769;
}
);
unicode = 68;
},
{
glyphname = Eth;
layers = (
{
layerId = master01;
shapes = (
{
closed = 1;
nodes = (
(420,369,l),
(38,369,l),
(38,316,l),
(420,315,l,{
name = hr00;
})
);
},
{
ref = D;
}
);
width = 769;
}
);
unicode = 208;
},
{
glyphname = Dcroat;
layers = (
{
layerId = master01;
shapes = (
{
closed = 1;
nodes = (
(420,369,l),
(38,369,l),
(38,316,l),
(420,315,l,{
name = hr00;
})
);
},
{
ref = D;
}
);
width = 769;
}
);
unicode = 272;
},
{
glyphname = E;
layers = (
{
layerId = master01;
shapes = (
{
closed = 1;
nodes = (
(448,273,o),
(445,310,o),
(445,348,cs),
(445,385,o),
(448,423,o),
(453,459,c),
(418,463,l),
(405,396,o),
(400,381,o),
(375,375,cs),
(350,369,o),
(278,367,o),
(215,367,c),
(216,556,o),
(226,621,o),
(226,621,c),
(230,642,o),
(270,643,o),
(318,643,cs),
(447,643,o),
(481,630,o),
(516,517,c),
(543,529,l),
(537,563,o),
(531,634,o),
(531,676,c),
(531,691,l,{
name = hr01;
}),
(449,685,o),
(280,685,o),
(151,685,cs,{
name = hr02;
}),
(101,685,o),
(80,686,o),
(38,688,c),
(35,659,l),
(95,647,o),
(114,641,o),
(117,616,c),
(117,616,o),
(125,557,o),
(125,342,cs),
(125,127,o),
(116,69,o),
(116,69,c),
(113,44,o),
(87,38,o),
(27,26,c),
(30,-3,l),
(72,-1,o),
(100,0,o),
(150,0,cs,{
name = hr03;
}),
(550,0,l),
(552,36,o),
(562,123,o),
(574,159,c),
(547,171,l),
(506,43,o),
(430,36,o),
(327,36,cs),
(284,36,o),
(233,44,o),
(226,68,c),
(226,68,o),
(215,121,o),
(215,327,c),
(278,327,o),
(350,325,o),
(375,319,cs),
(400,313,o),
(405,298,o),
(418,231,c),
(453,236,l)
);
}
);
width = 608;
}
);
unicode = 69;
},
{
glyphname = F;
layers = (
{
layerId = master01;
shapes = (
{
closed = 1;
nodes = (
(279,327,o),
(359,325,o),
(384,319,cs),
(409,313,o),
(414,298,o),
(427,231,c),
(462,236,l),
(457,273,o),
(454,310,o),
(454,348,cs),
(454,385,o),
(457,423,o),
(462,459,c),
(427,463,l),
(414,396,o),
(409,381,o),
(384,375,cs),
(359,369,o),
(279,367,o),
(216,367,c),
(217,558,o),
(225,621,o),
(225,621,c),
(227,643,o),
(258,643,o),
(306,643,cs),
(435,643,o),
(469,630,o),
(504,517,c),
(531,529,l),
(525,563,o),
(519,634,o),
(519,676,cs),
(519,691,l,{
name = hr01;
}),
(437,685,o),
(268,685,o),
(139,685,cs,{
name = hr02;
}),
(89,685,o),
(81,686,o),
(39,688,c),
(36,659,l),
(96,647,o),
(115,641,o),
(118,616,c),
(118,616,o),
(126,557,o),
(126,342,cs),
(126,128,o),
(118,69,o),
(118,69,c),
(115,44,o),
(89,38,o),
(29,26,c),
(32,-3,l),
(74,-1,o),
(123,0,o),
(173,0,cs,{
name = hr03;
}),
(223,0,o),
(264,-1,o),
(306,-3,c,{
name = hr04;
}),
(309,26,l),
(249,38,o),
(227,44,o),
(224,69,c),
(224,69,o),
(216,126,o),
(216,327,c)
);
}
);
width = 554;
}
);
unicode = 70;
},
{
glyphname = G;
layers = (
{
layerId = master01;
shapes = (
{
closed = 1;
nodes = (
(222,37,o),
(153,203,o),
(153,351,cs),
(153,557,o),
(280,648,o),
(414,648,cs),
(509,648,o),
(604,618,o),
(637,517,c),
(665,529,l),
(659,563,o),
(653,629,o),
(653,670,cs),
(653,685,l),
(636,681,o),
(620,679,o),
(604,679,cs),
(555,679,o),
(504,694,o),
(418,694,cs,{
name = hr01;
}),
(178,694,o),
(48,525,o),
(48,334,cs),
(48,107,o),
(190,-12,o),
(404,-12,cs),
(489,-12,o),
(571,10,o),
(677,55,c),
(684,235,l),
(687,260,o),
(679,266,o),
(739,278,c),
(736,307,l),
(694,305,o),
(683,304,o),
(633,304,cs),
(583,304,o),
(541,305,o),
(499,307,c),
(496,278,l),
(556,266,o),
(575,260,o),
(578,235,c),
(578,235,o),
(584,169,o),
(585,73,c),
(549,54,o),
(477,37,o),
(407,37,cs)
);
}
);
width = 759;
}
);
unicode = 71;
},
{
glyphname = H;
layers = (
{
layerId = master01;
shapes = (
{
closed = 1;
nodes = (
(587,384,o),
(548,379,o),
(401,379,cs),
(255,379,o),
(216,384,o),
(216,384,c),
(217,568,o),
(224,616,o),
(224,616,c),
(227,641,o),
(246,647,o),
(306,659,c),
(303,688,l),
(261,686,o),
(223,685,o),
(173,685,cs),
(123,685,o),
(81,686,o),
(39,688,c),
(36,659,l),
(96,647,o),
(115,641,o),
(118,616,c),
(118,616,o),
(126,557,o),
(126,342,cs),
(126,128,o),
(118,69,o),
(118,69,c),
(115,44,o),
(89,38,o),
(29,26,c),
(32,-3,l),
(74,-1,o),
(123,0,o),
(173,0,cs,{
name = hr01;
}),
(223,0,o),
(264,-1,o),
(306,-3,c,{
name = hr02;
}),
(309,26,l),
(249,38,o),
(227,44,o),
(224,69,c),
(224,69,o),
(216,121,o),
(216,328,c),
(216,328,o),
(255,333,o),
(401,333,cs),
(548,333,o),
(587,328,o),
(587,328,c),
(587,122,o),
(579,69,o),
(579,69,c),
(576,44,o),
(550,38,o),
(490,26,c),
(493,-3,l),
(535,-1,o),
(584,0,o),
(634,0,cs,{
name = hr03;
}),
(684,0,o),
(725,-1,o),
(767,-3,c,{
name = hr04;
}),
(770,26,l),
(710,38,o),
(688,44,o),
(685,69,c),
(685,69,o),
(677,127,o),
(677,342,cs),
(677,557,o),
(685,616,o),
(685,616,c),
(688,641,o),
(707,647,o),
(767,659,c),
(764,688,l),
(722,686,o),
(684,685,o),
(634,685,cs),
(584,685,o),
(542,686,o),
(500,688,c),
(497,659,l),
(557,647,o),
(576,641,o),
(579,616,c),
(579,616,o),
(586,569,o),
(587,384,c)
);
}
);
width = 803;
}
);
unicode = 72;
},
{
glyphname = Hbar;
layers = (
{
layerId = master01;
shapes = (
{
closed = 1;
nodes = (
(54,519,l),
(41,477,l),
(748,477,l),
(761,519,l,{
name = hr00;
})
);
},
{
ref = H;
}
);
width = 803;
}
);
unicode = 294;
},
{
glyphname = I;
layers = (
{
layerId = master01;
shapes = (
{
closed = 1;
nodes = (
(216,557,o),
(224,616,o),
(224,616,c),
(227,641,o),
(246,647,o),
(306,659,c),
(303,688,l),
(261,686,o),
(223,685,o),
(173,685,cs),
(123,685,o),
(81,686,o),
(39,688,c),
(36,659,l),
(96,647,o),
(115,641,o),
(118,616,c),
(118,616,o),
(126,557,o),
(126,342,cs),
(126,128,o),
(118,69,o),
(118,69,c),
(115,44,o),
(89,38,o),
(29,26,c),
(32,-3,l),
(74,-1,o),
(123,0,o),
(173,0,cs,{
name = hr01;
}),
(223,0,o),
(264,-1,o),
(306,-3,c,{
name = hr02;
}),
(309,26,l),
(249,38,o),
(227,44,o),
(224,69,c),
(224,69,o),
(216,127,o),
(216,342,cs)
);
}
);
width = 342;
}
);
unicode = 73;
},
{
glyphname = J;
layers = (
{
layerId = master01;
shapes = (
{
closed = 1;
nodes = (
(101,-178,o),
(237,-45,o),
(237,215,cs),
(237,430,o),
(242,616,o),
(242,616,c),
(245,641,o),
(267,647,o),
(327,659,c),
(324,688,l),
(282,686,o),
(244,685,o),
(194,685,cs),
(144,685,o),
(102,686,o),
(60,688,c),
(57,659,l),
(117,647,o),
(136,641,o),
(139,616,c),
(139,616,o),
(147,514,o),
(147,299,cs),
(147,-66,o),
(113,-104,o),
(52,-105,c),
(27,-105,o),
(-4,-94,o),
(-17,-85,c),
(-33,-105,l),
(-24,-140,o),
(19,-178,o),
(29,-178,cs,{
name = hr00;
})
);
}
);
width = 352;
}
);
unicode = 74;
},
{
glyphname = K;
layers = (
{
layerId = master01;
shapes = (
{
closed = 1;
nodes = (
(224,69,o),
(217,120,o),
(216,296,c),
(269,346,l),
(525,-9,l),
(525,-9,o),
(628,-3,o),
(692,-3,c,{
name = hr01;
}),
(695,26,l),
(635,31,o),
(612,43,o),
(612,43,c),
(334,407,l),
(549,611,ls),
(569,630,o),
(603,647,o),
(663,659,c),
(660,688,l),
(618,686,o),
(596,685,o),
(546,685,cs),
(496,685,o),
(455,686,o),
(413,688,c),
(410,659,l),
(459,649,o),
(484,636,o),
(484,625,cs),
(484,623,o),
(483,620,o),
(480,618,cs),
(216,365,l),
(216,560,o),
(224,616,o),
(224,616,c),
(227,641,o),
(246,647,o),
(306,659,c),
(303,688,l),
(261,686,o),
(223,685,o),
(173,685,cs),
(123,685,o),
(81,686,o),
(39,688,c),
(36,659,l),
(96,647,o),
(115,641,o),
(118,616,c),
(118,616,o),
(126,557,o),
(126,342,cs),
(126,128,o),
(118,69,o),
(118,69,c),
(115,44,o),
(89,38,o),
(29,26,c),
(32,-3,l),
(74,-1,o),
(123,0,o),
(173,0,cs,{
name = hr02;
}),
(223,0,o),
(264,-1,o),
(306,-3,c,{
name = hr03;
}),
(309,26,l),
(249,38,o),
(227,44,o),
(224,69,c)
);
}
);
width = 696;
}
);
unicode = 75;
},
{
glyphname = L;
layers = (
{
layerId = master01;
shapes = (
{
closed = 1;
nodes = (
(224,69,o),
(216,127,o),
(216,342,cs),
(216,557,o),
(224,616,o),
(224,616,c),
(227,641,o),
(246,647,o),
(306,659,c),
(303,688,l),
(261,686,o),
(223,685,o),
(173,685,cs),
(123,685,o),
(81,686,o),
(39,688,c),
(36,659,l),
(96,647,o),
(115,641,o),
(118,616,c),
(118,616,o),
(126,557,o),
(126,342,cs),
(126,127,o),
(117,69,o),
(117,69,c),
(114,44,o),
(88,38,o),
(28,26,c),
(31,-3,l),
(73,-1,o),
(101,0,o),
(151,0,cs,{
name = hr01;
}),
(544,0,l),
(546,36,o),
(556,123,o),
(568,159,c),
(541,171,l),
(500,43,o),
(424,36,o),
(321,36,cs),
(278,36,o),
(226,48,o),
(224,69,c)
);
}
);
width = 580;
}
);
unicode = 76;
},
{
glyphname = Lacute;
layers = (
{
layerId = master01;
shapes = (
{
closed = 1;
nodes = (
(347,850,o),
(348,854,o),
(348,858,cs),
(348,878,o),
(331,904,o),
(307,917,c),
(95,792,l),
(119,773,l),
(346,846,l,{
name = hr00;
})
);
},
{
ref = L;
}
);
width = 580;
}
);
unicode = 313;
},
{
glyphname = Lslash;
layers = (
{
layerId = master01;
shapes = (
{
closed = 1;
nodes = (
(420,540,l),
(38,261,l),
(38,200,l),
(420,479,l,{
name = hr00;
})
);
},
{
ref = L;
}
);
width = 580;
}
);
unicode = 321;
},
{
glyphname = M;
layers = (
{
layerId = master01;
shapes = (
{
closed = 1;
nodes = (
(701,431,o),
(708,245,o),
(708,158,cs),
(708,102,o),
(707,69,o),
(707,69,c),
(707,44,o),
(678,38,o),
(618,26,c),
(621,-3,l),
(663,-1,o),
(712,0,o),
(762,0,cs),
(812,0,o),
(853,-1,o),
(895,-3,c),
(898,26,l),
(838,38,o),
(816,44,o),
(813,69,c),
(813,69,o),
(806,117,o),
(795,342,cs),
(794,374,o),
(790,505,o),
(790,522,cs),
(790,596,o),
(794,616,o),
(794,616,c),
(797,641,o),
(816,647,o),
(876,659,c),
(873,688,l),
(831,686,o),
(746,685,o),
(696,685,c),
(458,95,l),
(220,685,l),
(170,685,o),
(88,686,o),
(46,688,c),
(43,659,l),
(103,647,o),
(122,641,o),
(125,616,c),
(125,616,o),
(129,582,o),
(129,483,cs),
(129,327,o),
(126,207,o),
(109,69,cs),
(106,45,o),
(83,38,o),
(23,26,c),
(26,-3,l),
(68,0,o),
(87,0,o),
(137,0,cs),
(187,0,o),
(237,-1,o),
(279,-3,c),
(282,26,l),
(222,38,o),
(191,44,o),
(188,69,c),
(188,69,o),
(185,101,o),
(185,174,cs),
(185,291,o),
(192,408,o),
(195,526,c),
(199,526,l),
(413,-10,l,{
name = hr01;
}),
(475,1,l),
(689,526,l),
(695,526,l)
);
}
);
width = 922;
}
);
unicode = 77;
},
{
glyphname = N;
layers = (
{
layerId = master01;
shapes = (
{
closed = 1;
nodes = (
(188,685,l),
(138,685,o),
(81,686,o),
(39,688,c),
(36,659,l),
(96,647,o),
(115,641,o),
(118,616,c),
(118,616,o),
(126,557,o),
(126,342,cs),
(126,127,o),
(118,69,o),
(118,69,c),
(115,44,o),
(81,37,o),
(21,26,c),
(24,-3,l),
(66,-1,o),
(96,0,o),
(146,0,cs),
(196,0,o),
(246,-1,o),
(288,-3,c),
(291,26,l),
(231,38,o),
(200,44,o),
(197,69,c),
(197,69,o),
(186,127,o),
(186,342,cs),
(186,427,o),
(188,493,o),
(190,537,c),
(195,537,l),
(601,-9,l,{
name = hr01;
}),
(681,0,l,{
name = hr02;
}),
(681,0,o),
(670,127,o),
(670,342,cs),
(670,557,o),
(680,616,o),
(680,616,c),
(683,641,o),
(702,647,o),
(762,659,c),
(759,688,l),
(717,686,o),
(702,685,o),
(652,685,cs),
(602,685,o),
(552,686,o),
(510,688,c),
(507,659,l),
(567,647,o),
(598,641,o),
(601,616,c),
(601,616,o),
(610,557,o),
(610,342,cs),
(610,262,o),
(610,188,o),
(608,132,c),
(603,132,l)
);
}
);
width = 785;
}
);
unicode = 78;
},
{
glyphname = Eng;
layers = (
{
layerId = master01;
shapes = (
{
closed = 1;
nodes = (
(608,-16,o),
(615,-45,o),
(615,-72,cs),
(615,-134,o),
(580,-193,o),
(541,-193,cs),
(517,-193,o),
(494,-182,o),
(481,-174,c),
(466,-193,l),
(475,-226,o),
(507,-263,o),
(517,-263,cs),
(536,-263,o),
(670,-262,o),
(670,0,cs),
(670,0,o),
(670,127,o),
(670,342,cs),
(670,557,o),
(680,616,o),
(680,616,c),
(683,641,o),
(702,647,o),
(762,659,c),
(759,688,l),
(717,686,o),
(702,685,o),
(652,685,cs),
(602,685,o),
(552,686,o),
(510,688,c),
(507,659,l),
(567,647,o),
(598,641,o),
(601,616,c),
(601,616,o),
(610,557,o),
(610,342,cs),
(610,262,o),
(610,188,o),
(608,132,c),
(603,132,l),
(188,685,l),
(138,685,o),
(81,686,o),
(39,688,c),
(36,659,l),
(96,647,o),
(115,641,o),
(118,616,c),
(118,616,o),
(126,557,o),
(126,342,cs),
(126,127,o),
(118,69,o),
(118,69,c),
(115,44,o),
(81,37,o),
(21,26,c),
(24,-3,l),
(66,-1,o),
(96,0,o),
(146,0,cs),
(196,0,o),
(246,-1,o),
(288,-3,c),
(291,26,l),
(231,38,o),
(200,44,o),
(197,69,c),
(197,69,o),
(186,127,o),
(186,342,cs),
(186,427,o),
(188,493,o),
(190,537,c),
(195,537,l),
(591,7,ls,{
name = hr00;
})
);
}
);
width = 785;
}
);
unicode = 330;
},
{
glyphname = O;
layers = (
{
layerId = master01;
shapes = (
{
closed = 1;
nodes = (
(632,216,o),
(573,32,o),
(388,32,cs),
(210,32,o),
(154,185,o),
(154,350,cs),
(154,437,o),
(195,650,o),
(398,650,cs),
(589,650,o),
(632,484,o),
(632,312,cs,{
name = hr00;
})
);
},
{
closed = 1;
nodes = (
(737,564,o),
(641,698,o),
(414,698,cs),
(152,698,o),
(49,507,o),
(49,314,cs),
(49,119,o),
(145,-16,o),
(372,-16,cs),
(634,-16,o),
(737,176,o),
(737,369,cs)
);
}
);
width = 786;
}
);
unicode = 79;
},
{
glyphname = OE;
layers = (
{
layerId = master01;
shapes = (
{
closed = 1;
nodes = (
(509,-12,o),
(557,0,o),
(925,0,c,{
name = hr01;
}),
(927,36,o),
(937,123,o),
(949,159,c),
(922,171,l),
(881,43,o),
(805,36,o),
(702,36,cs),
(659,36,o),
(608,44,o),
(601,68,c),
(601,68,o),
(590,121,o),
(590,327,c),
(653,327,o),
(725,325,o),
(750,319,cs),
(775,313,o),
(780,298,o),
(793,231,c),
(828,236,l),
(822,272,o),
(820,310,o),
(820,347,cs),
(820,385,o),
(822,422,o),
(828,459,c),
(793,463,l),
(780,396,o),
(775,381,o),
(750,375,cs),
(725,369,o),
(653,367,o),
(590,367,c),
(591,556,o),
(601,621,o),
(601,621,c),
(604,640,o),
(624,643,o),
(653,643,cs),
(815,643,o),
(852,641,o),
(891,517,c),
(918,529,l),
(912,562,o),
(906,633,o),
(906,676,cs),
(906,681,o),
(906,686,o),
(906,691,c),
(849,685,o),
(759,682,o),
(665,682,cs,{
name = hr02;
}),
(576,682,o),
(483,684,o),
(414,688,c),
(152,688,o),
(49,505,o),
(49,314,cs),
(49,121,o),
(145,-12,o),
(372,-12,cs)
);
},
{
closed = 1;
nodes = (
(219,32,o),
(154,195,o),
(154,350,cs),
(154,455,o),
(209,646,o),
(410,646,cs),
(458,646,o),
(489,640,o),
(492,616,c),
(492,616,o),
(500,557,o),
(500,342,cs),
(500,127,o),
(491,69,o),
(491,69,c),
(488,44,o),
(445,32,o),
(395,32,cs)
);
}
);
width = 983;
}
);
unicode = 338;
},
{
glyphname = P;
layers = (
{
layerId = master01;
shapes = (
{
closed = 1;
nodes = (
(123,685,o),
(81,686,o),
(39,688,c,{
name = hr01;
}),
(36,659,l),
(96,647,o),
(115,641,o),
(118,616,c),
(118,616,o),
(126,557,o),
(126,342,cs),
(126,128,o),
(118,69,o),
(118,69,c),
(115,44,o),
(89,38,o),
(29,26,c),
(32,-3,l),
(74,-1,o),
(123,0,o),
(173,0,cs,{
name = hr02;
}),
(223,0,o),
(264,-1,o),
(306,-3,c,{
name = hr03;
}),
(309,26,l),
(249,38,o),
(227,44,o),
(224,69,c),
(224,69,o),
(216,71,o),
(216,286,c),
(241,282,o),
(265,280,o),
(287,280,cs),
(456,280,o),
(551,396,o),
(551,502,cs),
(551,597,o),
(480,685,o),
(325,685,cs),
(173,685,l)
);
},
{
closed = 1;
nodes = (
(216,557,o),
(226,609,o),
(226,609,c),
(231,642,o),
(240,643,o),
(287,643,cs),
(395,643,o),
(455,602,o),
(455,489,cs),
(455,371,o),
(381,322,o),
(271,322,cs),
(254,322,o),
(235,323,o),
(216,325,c)
);
}
);
width = 576;
}
);
unicode = 80;
},
{
glyphname = Thorn;
layers = (
{
layerId = master01;
shapes = (
{
closed = 1;
nodes = (
(224,69,o),
(220,98,o),
(218,180,c),
(242,176,o),
(265,175,o),
(287,175,cs),
(456,175,o),
(551,291,o),
(551,397,cs),
(551,492,o),
(480,580,o),
(325,580,cs),
(221,580,l),
(222,606,o),
(224,616,o),
(224,616,c),
(227,641,o),
(246,647,o),
(306,659,c),
(303,688,l),
(261,686,o),
(223,685,o),
(173,685,cs),
(123,685,o),
(81,686,o),
(39,688,c),
(36,659,l),
(96,647,o),
(115,641,o),
(118,616,c),
(118,616,o),
(126,557,o),
(126,342,cs),
(126,128,o),
(118,69,o),
(118,69,c),
(115,44,o),
(89,38,o),
(29,26,c),
(32,-3,l),
(74,-1,o),
(123,0,o),
(173,0,cs,{
name = hr01;
}),
(223,0,o),
(264,-1,o),
(306,-3,c,{
name = hr02;
}),
(309,26,l),
(249,38,o),
(227,44,o),
(224,69,c)
);
},
{
closed = 1;
nodes = (
(216,452,o),
(226,504,o),
(226,504,c),
(231,537,o),
(240,538,o),
(287,538,cs),
(395,538,o),
(455,497,o),
(455,384,cs),
(455,266,o),
(381,217,o),
(271,217,cs),
(254,217,o),
(235,218,o),
(216,220,c)
);
}
);
width = 576;
}
);
unicode = 222;
},
{
glyphname = Q;
layers = (
{
layerId = master01;
shapes = (
{
closed = 1;
nodes = (
(381,-16,l),
(512,-77,o),
(717,-217,o),
(717,-217,c),
(800,-178,l),
(800,-156,l),
(488,-1,l,{
name = hr00;
})
);
},
{
ref = O;
}
);
width = 792;
}
);
unicode = 81;
},
{
glyphname = R;
layers = (
{
layerId = master01;
shapes = (
{
closed = 1;
nodes = (
(227,69,o),
(216,105,o),
(216,320,c),
(283,320,o),
(302,321,o),
(319,322,c),
(496,-9,l),
(496,-9,o),
(601,-3,o),
(665,-3,c,{
name = hr01;
}),
(668,26,l),
(608,31,o),
(585,43,o),
(585,43,c),
(409,336,l),
(512,387,o),
(544,457,o),
(544,525,cs),
(544,609,o),
(482,685,o),
(346,685,cs),
(173,685,ls),
(123,685,o),
(81,686,o),
(39,688,c,{
name = hr02;
}),
(36,659,l),
(96,647,o),
(115,641,o),
(118,616,c),
(118,616,o),
(126,557,o),
(126,342,cs),
(126,128,o),
(118,69,o),
(118,69,c),
(115,44,o),
(89,38,o),
(29,26,c),
(32,-3,l),
(74,-1,o),
(123,0,o),
(174,0,cs,{
name = hr03;
}),
(226,0,o),
(268,-1,o),
(311,-3,c,{
name = hr04;
}),
(314,26,l),
(252,38,o),
(230,44,o),
(227,69,c)
);
},
{
closed = 1;
nodes = (
(340,362,o),
(289,359,o),
(216,359,c),
(216,561,o),
(226,621,o),
(226,621,c),
(231,640,o),
(239,643,o),
(287,643,cs),
(397,643,o),
(453,601,o),
(453,525,cs),
(453,455,o),
(422,399,o),
(373,369,c)
);
}
);
width = 668;
}
);
unicode = 82;
},
{
glyphname = S;
layers = (
{
layerId = master01;
shapes = (
{
closed = 1;
nodes = (
(437,563,o),
(431,629,o),
(431,670,cs),
(431,685,l),
(414,681,o),
(399,679,o),
(386,679,cs),
(346,679,o),
(321,694,o),
(265,694,cs,{
name = hr01;
}),
(137,694,o),
(59,606,o),
(59,514,cs),
(59,458,o),
(88,401,o),
(151,360,cs),
(311,255,ls),
(354,227,o),
(376,192,o),
(376,152,cs),
(376,97,o),
(332,41,o),
(241,41,cs),
(146,41,o),
(111,77,o),
(91,185,c),
(64,173,l),
(64,110,o),
(55,62,o),
(48,26,c),
(100,4,o),
(184,-10,o),
(254,-10,cs),
(406,-10,o),
(480,85,o),
(480,176,cs),
(480,238,o),
(445,292,o),
(376,337,cs),
(218,440,ls),
(174,469,o),
(151,510,o),
(151,549,cs),
(151,599,o),
(189,644,o),
(266,644,cs),
(340,644,o),
(388,619,o),
(416,517,c),
(443,529,l)
);
}
);
width = 528;
}
);
unicode = 83;
},
{
glyphname = T;
layers = (
{
layerId = master01;
shapes = (
{
closed = 1;
nodes = (
(193,685,o),
(105,685,o),
(23,691,c,{
name = hr01;
}),
(23,676,l),
(23,634,o),
(17,563,o),
(11,529,c),
(38,517,l),
(73,630,o),
(107,643,o),
(236,643,cs,{
name = hr02;
}),
(250,643,o),
(264,641,o),
(267,616,c),
(267,616,o),
(275,557,o),
(275,342,cs),
(275,128,o),
(267,69,o),
(267,69,c),
(264,44,o),
(238,38,o),
(178,26,c),
(181,-3,l),
(223,-1,o),
(272,0,o),
(322,0,cs,{
name = hr03;
}),
(372,0,o),
(413,-1,o),
(455,-3,c,{
name = hr04;
}),
(458,26,l),
(398,38,o),
(376,44,o),
(373,69,c),
(373,69,o),
(365,127,o),
(365,342,cs),
(365,557,o),
(373,616,o),
(373,616,c),
(376,641,o),
(390,643,o),
(406,643,cs),
(535,643,o),
(569,630,o),
(604,517,c),
(631,529,l),
(625,563,o),
(619,634,o),
(619,676,c),
(619,691,l,{
name = hr05;
}),
(537,685,o),
(451,685,o),
(322,685,cs)
);
}
);
width = 642;
}
);
unicode = 84;
},
{
glyphname = Tbar;
layers = (
{
layerId = master01;
shapes = (
{
closed = 1;
nodes = (
(111,335,l),
(98,293,l),
(530,293,l),
(543,335,l,{
name = hr00;
})
);
},
{
ref = T;
}
);
width = 642;
}
);
unicode = 358;
},
{
glyphname = U;
layers = (
{
layerId = master01;
shapes = (
{
closed = 1;
nodes = (
(584,616,o),
(592,554,o),
(592,339,cs),
(592,164,o),
(560,45,o),
(380,45,cs),
(204,45,o),
(201,150,o),
(201,322,cs),
(201,551,o),
(210,616,o),
(210,616,c),
(213,641,o),
(232,647,o),
(292,659,c),
(289,688,l),
(247,686,o),
(209,685,o),
(159,685,cs),
(109,685,o),
(67,686,o),
(25,688,c),
(22,659,l),
(82,647,o),
(104,641,o),
(104,616,c),
(107,489,o),
(109,363,o),
(111,236,cs),
(115,34,o),
(211,-12,o),
(380,-12,cs),
(578,-12,o),
(648,105,o),
(652,247,cs),
(656,370,o),
(658,493,o),
(663,616,cs),
(664,641,o),
(685,647,o),
(745,659,c),
(742,688,l),
(700,686,o),
(685,685,o),
(635,685,cs),
(585,685,o),
(535,686,o),
(493,688,c),
(490,659,l),
(550,647,o),
(581,641,o),
(584,616,c,{
name = hr00;
})
);
}
);
width = 760;
}
);
unicode = 85;
},
{
glyphname = V;
layers = (
{
layerId = master01;
shapes = (
{
closed = 1;
nodes = (
(291,287,o),
(181,609,o),
(181,622,cs),
(181,641,o),
(215,648,o),
(269,659,c),
(266,688,l),
(224,686,o),
(184,685,o),
(134,685,cs),
(84,685,o),
(43,686,o),
(1,688,c),
(-2,659,l),
(58,647,o),
(73,639,o),
(83,616,c),
(297,-9,l),
(395,0,l),
(455,190,o),
(604,610,o),
(604,610,c),
(614,635,o),
(634,647,o),
(694,659,c),
(691,688,l),
(649,686,o),
(627,685,o),
(577,685,cs),
(527,685,o),
(486,686,o),
(444,688,c),
(441,659,l),
(496,648,o),
(527,640,o),
(527,621,c),
(529,607,o),
(428,301,o),
(361,87,c),
(356,87,l,{
name = hr00;
})
);
}
);
width = 689;
}
);
unicode = 86;
},
{
glyphname = W;
layers = (
{
layerId = master01;
shapes = (
{
closed = 1;
nodes = (
(657,-9,l),
(749,0,l),
(806,203,o),
(907,610,o),
(907,610,c),
(913,635,o),
(937,647,o),
(997,659,c),
(994,688,l),
(952,686,o),
(930,685,o),
(880,685,cs),
(830,685,o),
(789,686,o),
(747,688,c),
(744,659,l),
(799,648,o),
(830,640,o),
(830,621,cs),
(830,589,o),
(761,295,o),
(716,109,c),
(711,109,l),
(535,685,l),
(470,685,l),
(470,685,o),
(394,382,o),
(311,109,c),
(306,109,l),
(244,371,o),
(184,613,o),
(184,622,cs),
(184,641,o),
(218,648,o),
(272,659,c),
(269,688,l),
(227,686,o),
(184,685,o),
(134,685,cs),
(84,685,o),
(43,686,o),
(1,688,c),
(-2,659,l),
(58,647,o),
(74,639,o),
(83,616,c),
(246,-9,l),
(338,0,l),
(487,531,l),
(491,531,l,{
name = hr00;
})
);
}
);
width = 990;
}
);
unicode = 87;
},
{
glyphname = X;
layers = (
{
layerId = master01;
shapes = (
{
closed = 1;
nodes = (
(285,520,o),
(217,617,o),
(217,623,cs),
(217,640,o),
(253,649,o),
(306,659,c),
(303,688,l),
(261,686,o),
(212,685,o),
(162,685,cs),
(112,685,o),
(71,686,o),
(29,688,c),
(26,659,l),
(86,647,o),
(96,637,o),
(111,616,cs),
(305,344,l),
(97,75,ls),
(80,53,o),
(67,38,o),
(7,26,c),
(10,-3,l),
(52,-1,o),
(74,0,o),
(124,0,cs,{
name = hr01;
}),
(174,0,o),
(215,-1,o),
(257,-3,c,{
name = hr02;
}),
(260,26,l),
(208,37,o),
(173,48,o),
(173,62,cs),
(173,71,o),
(254,175,o),
(343,293,c),
(432,167,o),
(505,72,o),
(505,63,cs),
(505,45,o),
(469,37,o),
(416,26,c),
(419,-3,l),
(461,-1,o),
(510,0,o),
(560,0,cs,{
name = hr03;
}),
(610,0,o),
(651,-1,o),
(693,-3,c,{
name = hr04;
}),
(696,26,l),
(636,38,o),
(626,49,o),
(611,69,cs),
(403,358,l),
(598,610,ls),
(615,632,o),
(628,647,o),
(688,659,c),
(685,688,l),
(643,686,o),
(621,685,o),
(571,685,cs),
(521,685,o),
(480,686,o),
(438,688,c),
(435,659,l),
(487,648,o),
(522,637,o),
(522,623,cs),
(522,614,o),
(455,527,o),
(366,409,c)
);
}
);
width = 700;
}
);
unicode = 88;
},
{
glyphname = Y;
layers = (
{
layerId = master01;
shapes = (
{
closed = 1;
nodes = (
(189,615,ls),
(188,618,o),
(187,620,o),
(187,623,cs),
(187,640,o),
(223,649,o),
(276,659,c),
(273,688,l),
(231,686,o),
(182,685,o),
(132,685,cs),
(82,685,o),
(41,686,o),
(-1,688,c),
(-4,659,l),
(56,647,o),
(69,638,o),
(81,616,cs),
(274,262,l),
(273,113,o),
(267,69,o),
(267,69,c),
(264,44,o),
(238,38,o),
(178,26,c),
(181,-3,l),
(223,-1,o),
(272,0,o),
(322,0,cs,{
name = hr01;
}),
(372,0,o),
(413,-1,o),
(455,-3,c,{
name = hr02;
}),
(458,26,l),
(398,38,o),
(376,44,o),
(373,69,c),
(373,69,o),
(366,109,o),
(365,263,c),
(558,610,ls),
(571,634,o),
(588,647,o),
(648,659,c),
(645,688,l),
(603,686,o),
(581,685,o),
(531,685,cs),
(481,685,o),
(440,686,o),
(398,688,c),
(395,659,l),
(448,648,o),
(487,639,o),
(487,623,cs),
(487,616,o),
(485,609,o),
(336,331,c)
);
}
);
width = 641;
}
);
unicode = 89;
},
{
glyphname = Z;
layers = (
{
layerId = master01;
shapes = (
{
closed = 1;
nodes = (
(580,685,l),
(448,685,ls),
(319,685,o),
(150,685,o),
(68,691,c,{
name = hr01;
}),
(68,676,l),
(68,634,o),
(62,563,o),
(56,529,c),
(83,517,l),
(118,630,o),
(129,631,o),
(478,631,c,{
name = hr02;
}),
(30,35,l),
(54,0,l),
(590,0,l),
(592,36,o),
(602,123,o),
(614,159,c),
(587,171,l),
(552,60,o),
(489,53,o),
(267,53,c),
(151,53,l),
(598,652,l)
);
}
);
width = 640;
}
);
unicode = 90;
},
{
glyphname = a;
layers = (
{
layerId = master01;
shapes = (
{
closed = 1;
nodes = (
(254,65,o),
(217,51,o),
(188,51,cs),
(149,51,o),
(123,71,o),
(123,111,cs),
(123,158,o),
(174,207,o),
(291,210,c),
(291,94,l,{
name = hr00;
})
);
},
{
closed = 1;
nodes = (
(425,46,o),
(414,44,o),
(406,44,cs),
(387,44,o),
(371,56,o),
(370,92,cs),
(369,125,o),
(364,320,o),
(364,353,cs),
(364,439,o),
(314,460,o),
(252,460,cs),
(127,460,o),
(58,373,o),
(58,354,cs),
(58,343,o),
(85,311,o),
(113,296,c),
(135,306,l),
(133,316,o),
(132,324,o),
(132,333,cs),
(132,374,o),
(159,406,o),
(218,406,cs),
(258,406,o),
(291,387,o),
(291,348,cs),
(291,255,l),
(100,242,o),
(39,167,o),
(39,95,cs),
(39,23,o),
(89,-9,o),
(142,-9,cs),
(198,-9,o),
(244,19,o),
(294,56,c),
(301,10,o),
(330,-9,o),
(364,-9,cs),
(392,-9,o),
(423,4,o),
(447,26,c),
(437,52,l)
);
}
);
width = 457;
}
);
unicode = 97;
},
{
glyphname = aringacute;
layers = (
{
layerId = master01;
shapes = (
{
closed = 1;
nodes = (
(342,864,o),
(309,883,o),
(276,883,c),
(155,703,l),
(185,698,l),
(345,841,l,{
name = hr00;
})
);
},
{
ref = a;
},
{
pos = (62,-40);
ref = ring;
}
);
width = 457;
}
);
unicode = 507;
},
{
glyphname = ae;
layers = (
{
layerId = master01;
shapes = (
{
closed = 1;
nodes = (
(579,307,o),
(578,297,o),
(576,287,c),
(509,276,o),
(454,271,o),
(371,262,c),
(385,355,o),
(429,411,o),
(495,411,cs),
(531,411,o),
(579,383,o),
(579,316,cs,{
name = hr00;
})
);
},
{
closed = 1;
nodes = (
(98,242,o),
(39,167,o),
(39,95,cs),
(39,23,o),
(89,-9,o),
(142,-9,cs),
(202,-9,o),
(256,8,o),
(322,63,c),
(357,19,o),
(412,-9,o),
(492,-9,cs),
(560,-9,o),
(615,18,o),
(656,53,c),
(644,83,l),
(616,69,o),
(566,53,o),
(516,53,cs),
(395,53,o),
(366,131,o),
(366,220,c),
(456,228,o),
(524,231,o),
(635,244,c),
(669,285,l),
(669,408,o),
(588,460,o),
(517,460,cs),
(445,460,o),
(392,437,o),
(354,403,c),
(340,453,o),
(296,460,o),
(245,460,cs),
(120,460,o),
(51,373,o),
(51,354,cs),
(51,343,o),
(78,311,o),
(106,296,c),
(128,306,l),
(126,316,o),
(125,325,o),
(125,334,cs),
(125,377,o),
(152,407,o),
(211,407,cs),
(251,407,o),
(284,391,o),
(284,351,cs),
(284,255,l)
);
},
{
closed = 1;
nodes = (
(284,165,o),
(291,129,o),
(303,90,c),
(266,66,o),
(217,51,o),
(188,51,cs),
(149,51,o),
(123,71,o),
(123,111,cs),
(123,158,o),
(169,203,o),
(284,213,c)
);
}
);
width = 700;
}
);
unicode = 230;
},
{
glyphname = b;
layers = (
{
layerId = master01;
shapes = (
{
closed = 1;
nodes = (
(223,44,o),
(195,49,o),
(164,61,c),
(162,77,o),
(156,154,o),
(156,366,c),
(179,380,o),
(233,397,o),
(280,397,cs),
(378,397,o),
(410,332,o),
(410,237,cs),
(410,142,o),
(371,44,o),
(248,44,cs,{
name = hr00;
})
);
},
{
closed = 1;
nodes = (
(385,-9,o),
(495,71,o),
(495,243,cs),
(495,396,o),
(413,460,o),
(319,460,cs),
(265,460,o),
(207,440,o),
(157,402,c),
(157,610,o),
(159,721,o),
(159,721,c),
(140,730,l),
(106,721,o),
(44,712,o),
(8,712,c),
(10,686,l),
(74,667,l),
(74,667,o),
(82,627,o),
(82,369,cs),
(82,112,o),
(74,25,o),
(74,25,c),
(122,6,o),
(191,-9,o),
(265,-9,cs)
);
}
);
width = 536;
}
);
unicode = 98;
},
{
glyphname = c;
layers = (
{
layerId = master01;
shapes = (
{
closed = 1;
nodes = (
(367,65,o),
(312,50,o),
(270,50,cs),
(184,50,o),
(124,100,o),
(124,222,cs),
(124,310,o),
(164,406,o),
(253,406,cs),
(320,406,o),
(355,352,o),
(367,319,c),
(391,319,l),
(407,341,o),
(415,374,o),
(415,392,cs),
(415,403,o),
(350,460,o),
(264,460,cs),
(112,460,o),
(36,334,o),
(36,215,cs),
(36,88,o),
(103,-9,o),
(244,-9,cs),
(318,-9,o),
(376,21,o),
(421,57,c),
(409,90,l,{
name = hr00;
})
);
}
);
width = 443;
}
);
unicode = 99;
},
{
glyphname = d;
layers = (
{
layerId = master01;
shapes = (
{
closed = 1;
nodes = (
(388,9,o),
(418,-4,o),
(418,-4,c),
(452,3,o),
(491,11,o),
(527,14,c),
(530,43,l),
(496,45,o),
(456,48,o),
(454,85,cs),
(452,120,o),
(451,191,o),
(451,352,cs),
(451,596,o),
(453,721,o),
(453,721,c),
(434,730,l),
(400,721,o),
(338,712,o),
(302,712,c),
(304,686,l),
(368,667,l),
(368,667,o),
(375,634,o),
(376,426,c),
(331,452,o),
(298,461,o),
(256,461,cs),
(140,461,o),
(39,376,o),
(39,217,cs),
(39,68,o),
(123,-9,o),
(223,-9,cs),
(273,-9,o),
(330,12,o),
(377,56,c,{
name = hr00;
})
);
},
{
closed = 1;
nodes = (
(376,252,o),
(373,126,o),
(371,94,c),
(349,78,o),
(304,54,o),
(258,54,cs),
(169,54,o),
(128,125,o),
(128,219,cs),
(128,312,o),
(169,400,o),
(282,400,cs),
(313,400,o),
(341,394,o),
(376,382,c)
);
}
);
width = 544;
}
);
unicode = 100;
},
{
glyphname = eth;
layers = (
{
layerId = master01;
shapes = (
{
closed = 1;
nodes = (
(289,545,o),
(322,490,o),
(344,443,c),
(324,453,o),
(302,459,o),
(278,459,cs),
(106,459,o),
(39,333,o),
(39,206,cs),
(39,78,o),
(102,-9,o),
(251,-9,cs),
(423,-9,o),
(490,116,o),
(490,243,cs),
(489,410,o),
(378,541,o),
(265,628,c),
(328,674,l),
(328,731,l),
(225,656,l),
(176,690,o),
(128,715,o),
(92,730,c),
(76,695,l),
(120,674,o),
(157,652,o),
(188,629,c),
(103,567,l),
(103,510,l),
(226,600,l,{
name = hr00;
})
);
},
{
closed = 1;
nodes = (
(400,145,o),
(371,31,o),
(262,31,cs),
(158,31,o),
(127,136,o),
(127,230,cs),
(127,285,o),
(148,419,o),
(267,419,cs),
(378,419,o),
(402,304,o),
(402,206,c)
);
}
);
width = 529;
}
);
unicode = 240;
},
{
glyphname = dcroat;
layers = (
{
layerId = master01;
shapes = (
{
closed = 1;
nodes = (
(249,585,l),
(236,543,l),
(530,543,l),
(543,585,l,{
name = hr00;
})
);
},
{
ref = d;
}
);
width = 544;
}
);
unicode = 273;
},
{
glyphname = e;
layers = (
{
layerId = master01;
shapes = (
{
closed = 1;
nodes = (
(338,311,o),
(337,301,o),
(335,291,c),
(128,283,l),
(142,351,o),
(188,411,o),
(254,411,cs),
(290,411,o),
(338,387,o),
(338,320,cs,{
name = hr00;
})
);
},
{
closed = 1;
nodes = (
(355,62,o),
(313,51,o),
(264,51,cs),
(180,51,o),
(122,108,o),
(122,233,cs),
(122,242,l),
(160,245,o),
(290,249,o),
(357,249,cs),
(375,249,o),
(388,249,o),
(394,248,c),
(428,289,l),
(428,412,o),
(347,460,o),
(276,460,cs),
(104,460,o),
(37,334,o),
(37,207,cs),
(37,89,o),
(102,-9,o),
(251,-9,cs),
(317,-9,o),
(374,20,o),
(415,53,c),
(403,83,l)
);
}
);
width = 459;
}
);
unicode = 101;
},
{
glyphname = f;
layers = (
{
layerId = master01;
shapes = (
{
closed = 1;
nodes = (
(186,56,o),
(177,125,o),
(177,406,c),
(247,405,o),
(281,402,o),
(281,402,c),
(312,441,l),
(307,453,l),
(307,453,o),
(259,452,o),
(177,452,c),
(177,627,o),
(236,660,o),
(292,660,cs),
(327,660,o),
(360,649,o),
(378,641,c),
(393,660,l),
(384,693,o),
(352,730,o),
(342,730,cs),
(314,730,o),
(101,682,o),
(101,451,c),
(67,453,o),
(53,455,o),
(53,455,c),
(30,416,l),
(33,405,l),
(33,405,o),
(58,405,o),
(102,406,c),
(102,120,o),
(95,48,o),
(94,48,c),
(92,37,o),
(47,28,o),
(26,26,c),
(23,-3,l),
(55,-1,o),
(101,0,o),
(135,0,cs,{
name = hr01;
}),
(169,0,o),
(228,-1,o),
(260,-3,c,{
name = hr02;
}),
(263,26,l),
(242,27,o),
(188,37,o),
(187,48,cs)
);
}
);
width = 316;
}
);
unicode = 102;
},
{
glyphname = g;
layers = (
{
layerId = master01;
shapes = (
{
closed = 1;
nodes = (
(323,451,o),
(281,459,o),
(233,459,cs),
(104,459,o),
(50,372,o),
(50,294,cs),
(50,201,o),
(87,153,o),
(151,133,c),
(102,93,o),
(61,53,o),
(61,27,cs),
(61,6,o),
(82,-13,o),
(124,-22,c),
(53,-79,o),
(21,-132,o),
(21,-169,cs,{
name = hr01;
}),
(21,-233,o),
(113,-263,o),
(203,-263,cs),
(383,-263,o),
(481,-168,o),
(481,-85,cs),
(481,-8,o),
(420,37,o),
(292,37,cs),
(217,37,ls),
(171,37,o),
(152,43,o),
(152,60,cs),
(152,75,o),
(166,96,o),
(189,126,c),
(203,124,o),
(218,123,o),
(233,123,cs),
(362,123,o),
(415,210,o),
(415,288,cs,{
name = hr02;
}),
(415,341,o),
(402,378,o),
(380,405,c),
(396,413,o),
(412,416,o),
(426,416,cs),
(444,416,o),
(460,412,o),
(470,407,c),
(485,426,l),
(476,459,o),
(444,496,o),
(434,496,cs),
(406,496,o),
(365,447,o),
(354,429,c)
);
},
{
closed = 1;
nodes = (
(105,-102,o),
(122,-62,o),
(155,-25,c),
(290,-25,ls),
(368,-25,o),
(397,-56,o),
(397,-93,cs,{
name = hr03;
}),
(397,-150,o),
(326,-223,o),
(219,-223,cs),
(141,-223,o),
(105,-186,o),
(105,-136,c)
);
},
{
closed = 1;
nodes = (
(327,238,o),
(308,164,o),
(230,164,cs),
(157,164,o),
(135,233,o),
(135,294,cs),
(135,331,o),
(150,418,o),
(234,418,cs),
(314,418,o),
(329,343,o),
(329,278,c,{
name = hr04;
})
);
}
);
width = 490;
}
);
unicode = 103;
},
{
glyphname = h;
layers = (
{
layerId = master01;
shapes = (
{
closed = 1;
nodes = (
(198,375,o),
(268,398,o),
(318,398,cs),
(360,398,o),
(393,383,o),
(393,334,cs),
(393,229,ls),
(393,83,o),
(385,48,o),
(385,48,c),
(383,37,o),
(343,28,o),
(322,26,c),
(319,-3,l),
(351,-1,o),
(397,0,o),
(431,0,cs,{
name = hr01;
}),
(465,0,o),
(507,-1,o),
(539,-3,c,{
name = hr02;
}),
(542,26,l),
(521,28,o),
(480,37,o),
(478,48,c),
(478,48,o),
(468,83,o),
(468,229,cs),
(468,365,ls),
(468,437,o),
(423,460,o),
(366,460,cs),
(298,460,o),
(207,426,o),
(166,402,c),
(166,604,o),
(168,721,o),
(168,721,c),
(149,730,l),
(115,721,o),
(53,712,o),
(17,712,c),
(19,686,l),
(83,667,l),
(83,667,o),
(91,627,o),
(91,369,cs),
(91,112,o),
(84,48,o),
(84,48,c),
(82,37,o),
(42,28,o),
(21,26,c),
(18,-3,l),
(50,-1,o),
(96,0,o),
(130,0,cs,{
name = hr03;
}),
(164,0,o),
(206,-1,o),
(238,-3,c,{
name = hr04;
}),
(241,26,l),
(220,28,o),
(179,37,o),
(177,48,c),
(176,50,o),
(166,99,o),
(166,362,c)
);
}
);
width = 558;
}
);
unicode = 104;
},
{
glyphname = hbar;
layers = (
{
layerId = master01;
shapes = (
{
closed = 1;
nodes = (
(13,585,l),
(0,543,l),
(294,543,l),
(307,585,l,{
name = hr00;
})
);
},
{
ref = h;
}
);
width = 558;
}
);
unicode = 295;
},
{
glyphname = hcircumflex;
layers = (
{
layerId = master01;
shapes = (
{
closed = 1;
nodes = (
(-31,748,l),
(-1,730,l),
(113,813,l),
(228,730,l),
(258,748,l),
(132,882,l),
(95,883,l,{
name = hr00;
})
);
},
{
ref = h;
}
);
width = 558;
}
);
unicode = 293;
},
{
glyphname = i;
layers = (
{
layerId = master01;
shapes = (
{
closed = 1;
nodes = (
(168,563,o),
(191,586,o),
(191,617,cs),
(191,646,o),
(168,669,o),
(139,669,c),
(110,669,o),
(87,646,o),
(87,617,cs),
(87,586,o),
(110,563,o),
(139,563,c)
);
},
{
closed = 1;
nodes = (
(127,450,o),
(65,441,o),
(29,441,c),
(31,415,l),
(95,396,l),
(95,396,o),
(103,375,o),
(103,229,cs),
(103,83,o),
(95,48,o),
(95,48,cs),
(93,37,o),
(46,28,o),
(25,26,c),
(22,-3,l),
(54,-1,o),
(107,0,o),
(141,0,cs,{
name = hr01;
}),
(175,0,o),
(224,-1,o),
(256,-3,c,{
name = hr02;
}),
(259,26,l),
(238,28,o),
(190,37,o),
(188,48,c),
(188,48,o),
(178,83,o),
(178,229,cs),
(178,294,o),
(180,414,o),
(180,450,c),
(161,459,l)
);
}
);
width = 275;
}
);
unicode = 105;
},
{
glyphname = dotlessi;
layers = (
{
layerId = master01;
shapes = (
{
closed = 1;
nodes = (
(127,450,o),
(65,441,o),
(29,441,c),
(31,415,l),
(95,396,l),
(95,396,o),
(103,375,o),
(103,229,cs),
(103,83,o),
(95,48,o),
(95,48,cs),
(93,37,o),
(46,28,o),
(25,26,c),
(22,-3,l),
(54,-1,o),
(107,0,o),
(141,0,cs,{
name = hr01;
}),
(175,0,o),
(224,-1,o),
(256,-3,c,{
name = hr02;
}),
(259,26,l),
(238,28,o),
(190,37,o),
(188,48,c),
(188,48,o),
(178,83,o),
(178,229,cs),
(178,294,o),
(180,414,o),
(180,450,c),
(161,459,l)
);
}
);
width = 275;
}
);
unicode = 305;
},
{
glyphname = j;
layers = (
{
layerId = master01;
shapes = (
{
closed = 1;
nodes = (
(105,-160,o),
(71,-193,o),
(39,-193,cs),
(15,-193,o),
(-8,-182,o),
(-21,-174,c),
(-36,-193,l),
(-27,-226,o),
(5,-263,o),
(15,-263,cs),
(34,-263,o),
(180,-208,o),
(180,54,cs),
(180,298,o),
(182,450,o),
(182,450,c),
(163,459,l),
(129,450,o),
(67,441,o),
(31,441,c),
(33,415,l),
(97,396,l),
(97,396,o),
(105,289,o),
(105,15,c)
);
},
{
closed = 1;
nodes = (
(170,563,o),
(193,586,o),
(193,617,cs,{
name = hr01;
}),
(193,646,o),
(170,669,o),
(141,669,cs),
(112,669,o),
(89,646,o),
(89,617,cs),
(89,586,o),
(112,563,o),
(141,563,c)
);
}
);
width = 269;
}
);
unicode = 106;
},
{
glyphname = jcircumflex;
layers = (
{
layerId = master01;
shapes = (
{
closed = 1;
nodes = (
(105,-160,o),
(71,-193,o),
(39,-193,cs),
(15,-193,o),
(-8,-182,o),
(-21,-174,c),
(-36,-193,l),
(-27,-226,o),
(5,-263,o),
(15,-263,cs),
(34,-263,o),
(180,-208,o),
(180,54,cs),
(180,298,o),
(182,450,o),
(182,450,c),
(163,459,l),
(129,450,o),
(67,441,o),
(31,441,c),
(33,415,l),
(97,396,l),
(97,396,o),
(105,289,o),
(105,15,c,{
name = hr00;
})
);
},
{
pos = (-44,0);
ref = circumflex;
}
);
width = 269;
}
);
unicode = 309;
},
{
glyphname = k;
layers = (
{
layerId = master01;
shapes = (
{
closed = 1;
nodes = (
(496,28,o),
(462,26,o),
(450,43,cs),
(262,294,l),
(386,386,ls),
(407,401,o),
(437,419,o),
(492,427,c),
(489,456,l),
(448,454,o),
(427,453,o),
(378,453,cs),
(329,453,o),
(319,454,o),
(278,456,c),
(275,427,l),
(318,426,o),
(335,415,o),
(335,404,cs),
(335,400,o),
(333,396,o),
(328,392,cs),
(168,272,l),
(168,352,ls),
(168,596,o),
(170,721,o),
(170,721,c),
(151,730,l),
(117,721,o),
(55,712,o),
(19,712,c),
(21,686,l),
(85,667,l),
(85,667,o),
(93,627,o),
(93,369,cs),
(93,112,o),
(84,48,o),
(84,48,c),
(82,37,o),
(42,28,o),
(21,26,c),
(18,-3,l),
(50,-1,o),
(96,0,o),
(130,0,cs,{
name = hr01;
}),
(164,0,o),
(206,-1,o),
(238,-3,c,{
name = hr02;
}),
(241,26,l),
(220,28,o),
(179,37,o),
(177,48,cs),
(177,50,o),
(172,95,o),
(169,226,c),
(200,249,l),
(385,-9,l,{
name = hr03;
}),
(409,-7,o),
(479,-3,o),
(514,-3,c,{
name = hr04;
}),
(517,26,l)
);
}
);
width = 517;
}
);
unicode = 107;
},
{
glyphname = kgreenlandic;
layers = (
{
layerId = master01;
shapes = (
{
closed = 1;
nodes = (
(128,450,o),
(66,441,o),
(30,441,c),
(32,415,l),
(96,396,l),
(96,396,o),
(104,375,o),
(104,229,cs),
(104,83,o),
(96,48,o),
(96,48,c),
(94,37,o),
(47,28,o),
(26,26,c),
(23,-3,l),
(55,-1,o),
(108,0,o),
(142,0,cs),
(172,0,o),
(216,-1,o),
(244,-3,c),
(247,26,l),
(230,28,o),
(191,37,o),
(189,48,c),
(189,48,o),
(179,83,o),
(179,229,cs),
(179,294,o),
(181,414,o),
(181,450,c),
(162,459,l)
);
},
{
closed = 1;
nodes = (
(216,216,l),
(379,-9,l,{
name = hr01;
}),
(379,-9,o),
(455,-5,o),
(499,-5,c,{
name = hr02;
}),
(501,24,l),
(460,27,o),
(445,34,o),
(445,34,c),
(272,266,l),
(412,395,l),
(427,407,o),
(449,419,o),
(490,426,c),
(488,455,l),
(458,454,o),
(441,453,o),
(405,453,cs),
(369,453,o),
(343,454,o),
(312,455,c),
(310,426,l),
(338,421,o),
(351,411,o),
(351,404,cs),
(351,401,o),
(350,398,o),
(346,395,cs),
(110,173,l),
(120,124,l)
);
}
);
width = 511;
}
);
unicode = 312;
},
{
glyphname = l;
layers = (
{
layerId = master01;
shapes = (
{
closed = 1;
nodes = (
(173,596,o),
(175,721,o),
(175,721,c),
(156,730,l),
(122,721,o),
(60,712,o),
(24,712,c),
(26,686,l),
(90,667,l),
(90,667,o),
(98,627,o),
(98,370,cs),
(98,112,o),
(91,48,o),
(91,48,c),
(89,37,o),
(43,28,o),
(22,26,c),
(19,-3,l),
(51,-1,o),
(103,0,o),
(137,0,cs,{
name = hr01;
}),
(171,0,o),
(219,-1,o),
(251,-3,c,{
name = hr02;
}),
(254,26,l),
(233,27,o),
(186,37,o),
(184,48,cs),
(182,60,o),
(173,113,o),
(173,352,cs)
);
}
);
width = 272;
}
);
unicode = 108;
},
{
glyphname = lacute;
layers = (
{
layerId = master01;
shapes = (
{
closed = 1;
nodes = (
(275,827,o),
(276,831,o),
(276,835,cs),
(276,855,o),
(259,881,o),
(235,894,c),
(23,769,l),
(47,750,l),
(274,823,l,{
name = hr00;
})
);
},
{
ref = l;
}
);
width = 272;
}
);
unicode = 314;
},
{
glyphname = lslash;
layers = (
{
layerId = master01;
shapes = (
{
closed = 1;
nodes = (
(250,483,l),
(25,319,l),
(25,262,l),
(250,426,l,{
name = hr00;
})
);
},
{
ref = l;
}
);
width = 272;
}
);
unicode = 322;
},
{
glyphname = m;
layers = (
{
layerId = master01;
shapes = (
{
closed = 1;
nodes = (
(459,437,o),
(414,460,o),
(357,460,cs),
(293,460,o),
(212,426,o),
(173,402,c),
(173,425,o),
(174,450,o),
(174,450,c),
(155,459,l),
(121,450,o),
(59,441,o),
(23,441,c),
(25,415,l),
(89,396,l),
(89,396,o),
(97,375,o),
(97,229,cs),
(97,83,o),
(90,48,o),
(90,48,c),
(88,37,o),
(48,28,o),
(27,26,c),
(24,-3,l),
(56,-1,o),
(102,0,o),
(136,0,cs,{
name = hr01;
}),
(170,0,o),
(212,-1,o),
(244,-3,c,{
name = hr02;
}),
(247,26,l),
(226,28,o),
(185,37,o),
(183,48,c),
(183,48,o),
(172,83,o),
(172,229,cs),
(172,362,l),
(202,375,o),
(262,398,o),
(309,398,cs),
(351,398,o),
(384,383,o),
(384,334,cs),
(384,229,ls),
(384,83,o),
(376,48,o),
(376,48,c),
(374,37,o),
(334,28,o),
(313,26,c),
(310,-3,l),
(342,-1,o),
(388,0,o),
(422,0,cs,{
name = hr03;
}),
(456,0,o),
(498,-1,o),
(530,-3,c,{
name = hr04;
}),
(533,26,l),
(512,28,o),
(471,37,o),
(469,48,c),
(469,48,o),
(459,83,o),
(459,229,cs),
(459,365,ls)
);
},
{
closed = 1;
nodes = (
(484,375,o),
(548,398,o),
(597,398,cs),
(639,398,o),
(672,383,o),
(672,334,cs),
(672,229,ls),
(672,83,o),
(664,48,o),
(664,48,c),
(662,37,o),
(622,28,o),
(601,26,c),
(598,-3,l),
(630,-1,o),
(676,0,o),
(710,0,cs,{
name = hr05;
}),
(744,0,o),
(786,-1,o),
(818,-3,c,{
name = hr06;
}),
(821,26,l),
(800,28,o),
(759,37,o),
(757,48,c),
(757,48,o),
(747,83,o),
(747,229,cs),
(747,365,ls),
(747,437,o),
(702,460,o),
(645,460,cs),
(579,460,o),
(494,426,o),
(454,402,c),
(453,362,l)
);
}
);
width = 838;
}
);
unicode = 109;
},
{
glyphname = n;
layers = (
{
layerId = master01;
shapes = (
{
closed = 1;
nodes = (
(121,450,o),
(59,441,o),
(23,441,c),
(25,415,l),
(89,396,l),
(89,396,o),
(97,375,o),
(97,229,cs),
(97,83,o),
(89,48,o),
(89,48,c),
(87,37,o),
(47,28,o),
(26,26,c),
(23,-3,l),
(55,-1,o),
(101,0,o),
(135,0,cs,{
name = hr01;
}),
(169,0,o),
(211,-1,o),
(243,-3,c,{
name = hr02;
}),
(246,26,l),
(225,28,o),
(184,37,o),
(182,48,c),
(182,48,o),
(172,83,o),
(172,229,cs),
(172,288,o),
(173,329,o),
(173,362,c),
(205,375,o),
(269,398,o),
(319,398,cs),
(361,398,o),
(394,383,o),
(394,334,cs),
(394,229,ls),
(394,83,o),
(386,48,o),
(386,48,c),
(384,37,o),
(344,28,o),
(323,26,c),
(320,-3,l),
(352,-1,o),
(398,0,o),
(432,0,cs,{
name = hr03;
}),
(466,0,o),
(508,-1,o),
(540,-3,c,{
name = hr04;
}),
(543,26,l),
(522,28,o),
(481,37,o),
(479,48,c),
(479,48,o),
(469,83,o),
(469,229,cs),
(469,365,ls),
(469,437,o),
(424,460,o),
(367,460,cs),
(299,460,o),
(215,426,o),
(174,402,c),
(174,450,l),
(155,459,l)
);
}
);
width = 560;
}
);
unicode = 110;
},
{
glyphname = eng;
layers = (
{
layerId = master01;
shapes = (
{
closed = 1;
nodes = (
(471,437,o),
(424,460,o),
(367,460,cs),
(299,460,o),
(215,426,o),
(174,402,c),
(174,450,l),
(155,459,l),
(121,450,o),
(59,441,o),
(23,441,c),
(25,415,l),
(89,396,l),
(89,396,o),
(97,375,o),
(97,229,cs),
(97,83,o),
(89,48,o),
(89,48,c),
(87,37,o),
(47,28,o),
(26,26,c),
(23,-3,l),
(55,-1,o),
(101,0,o),
(135,0,cs),
(169,0,o),
(211,-1,o),
(243,-3,c),
(246,26,l),
(225,28,o),
(184,37,o),
(182,48,c),
(182,48,o),
(172,83,o),
(172,229,cs),
(172,288,o),
(173,329,o),
(173,362,c),
(205,375,o),
(269,398,o),
(319,398,cs),
(361,398,o),
(394,383,o),
(394,334,cs),
(394,15,ls),
(394,-160,o),
(359,-193,o),
(327,-193,cs),
(303,-193,o),
(280,-182,o),
(267,-174,c),
(252,-193,l),
(261,-226,o),
(293,-263,o),
(303,-263,cs),
(324,-263,o),
(471,-208,o),
(471,54,cs),
(471,365,ls,{
name = hr00;
})
);
}
);
width = 547;
}
);
unicode = 331;
},
{
glyphname = o;
layers = (
{
layerId = master01;
shapes = (
{
closed = 1;
nodes = (
(404,149,o),
(369,39,o),
(262,39,cs),
(160,39,o),
(125,132,o),
(125,230,cs),
(125,282,o),
(150,411,o),
(267,411,cs),
(376,411,o),
(404,308,o),
(404,206,cs,{
name = hr00;
})
);
},
{
closed = 1;
nodes = (
(490,371,o),
(427,460,o),
(278,460,cs),
(106,460,o),
(39,333,o),
(39,206,cs),
(39,78,o),
(102,-9,o),
(251,-9,cs),
(423,-9,o),
(490,116,o),
(490,243,cs)
);
}
);
width = 529;
}
);
unicode = 111;
},
{
glyphname = oe;
layers = (
{
layerId = master01;
shapes = (
{
closed = 1;
nodes = (
(554,460,o),
(493,427,o),
(455,379,c),
(422,429,o),
(365,459,o),
(278,459,cs,{
name = hr01;
}),
(106,459,o),
(39,333,o),
(39,206,cs),
(39,78,o),
(102,-9,o),
(251,-9,cs),
(340,-9,o),
(400,24,o),
(438,74,c),
(472,24,o),
(530,-9,o),
(616,-9,cs),
(684,-9,o),
(739,18,o),
(780,53,c),
(768,83,l),
(740,69,o),
(690,53,o),
(640,53,cs),
(538,53,o),
(490,137,o),
(490,233,cs),
(490,242,l),
(528,245,o),
(655,249,o),
(722,249,cs),
(740,249,o),
(753,249,o),
(759,248,c),
(793,289,l),
(793,412,o),
(712,460,o),
(641,460,c)
);
},
{
closed = 1;
nodes = (
(405,149,o),
(376,39,o),
(265,39,cs),
(159,39,o),
(127,140,o),
(127,230,cs),
(127,283,o),
(148,411,o),
(270,411,cs,{
name = hr03;
}),
(383,411,o),
(408,300,o),
(408,206,c)
);
},
{
closed = 1;
nodes = (
(703,311,o),
(702,301,o),
(700,291,c),
(495,283,l),
(509,351,o),
(553,411,o),
(619,411,cs),
(655,411,o),
(703,387,o),
(703,320,cs)
);
}
);
width = 824;
}
);
unicode = 339;
},
{
glyphname = p;
layers = (
{
layerId = master01;
shapes = (
{
closed = 1;
nodes = (
(186,380,o),
(241,397,o),
(288,397,cs),
(387,397,o),
(420,332,o),
(420,237,cs),
(420,142,o),
(381,44,o),
(256,44,cs),
(229,44,o),
(198,49,o),
(164,61,c),
(164,366,l,{
name = hr00;
})
);
},
{
closed = 1;
nodes = (
(204,1,o),
(247,-9,o),
(288,-9,cs),
(410,-9,o),
(505,71,o),
(505,243,cs),
(505,396,o),
(423,460,o),
(328,460,cs),
(274,460,o),
(215,439,o),
(165,401,c),
(165,450,l),
(146,459,l),
(112,450,o),
(51,441,o),
(15,441,c),
(17,415,l),
(81,396,l),
(81,396,o),
(89,356,o),
(89,98,cs),
(89,-159,o),
(77,-215,o),
(77,-215,c),
(75,-226,o),
(29,-232,o),
(8,-234,c),
(5,-263,l),
(37,-261,o),
(89,-260,o),
(123,-260,cs),
(157,-260,o),
(205,-261,o),
(237,-263,c),
(240,-234,l),
(219,-232,o),
(172,-226,o),
(170,-215,cs),
(169,-212,o),
(165,-165,o),
(164,23,c)
);
}
);
width = 546;
}
);
unicode = 112;
},
{
glyphname = thorn;
layers = (
{
layerId = master01;
shapes = (
{
closed = 1;
nodes = (
(186,380,o),
(241,397,o),
(288,397,cs),
(387,397,o),
(420,332,o),
(420,237,cs),
(420,142,o),
(381,44,o),
(256,44,cs),
(229,44,o),
(198,49,o),
(164,61,c),
(164,366,l,{
name = hr00;
})
);
},
{
closed = 1;
nodes = (
(204,1,o),
(247,-9,o),
(288,-9,cs),
(410,-9,o),
(505,71,o),
(505,243,cs),
(505,396,o),
(423,460,o),
(328,460,cs),
(274,460,o),
(215,439,o),
(165,401,c),
(165,722,l),
(147,731,l),
(113,722,o),
(51,713,o),
(15,713,c),
(17,687,l),
(81,668,l),
(81,668,o),
(89,492,o),
(89,234,cs),
(89,-23,o),
(77,-215,o),
(77,-215,c),
(75,-226,o),
(29,-232,o),
(8,-234,c),
(5,-263,l),
(37,-261,o),
(89,-260,o),
(123,-260,cs),
(157,-260,o),
(205,-261,o),
(237,-263,c),
(240,-234,l),
(219,-232,o),
(172,-226,o),
(170,-215,cs),
(169,-212,o),
(165,-165,o),
(164,23,c)
);
}
);
width = 546;
}
);
unicode = 254;
},
{
glyphname = q;
layers = (
{
layerId = master01;
shapes = (
{
closed = 1;
nodes = (
(336,60,o),
(304,50,o),
(262,50,cs),
(170,50,o),
(130,129,o),
(130,211,cs),
(130,306,o),
(184,406,o),
(286,406,cs),
(311,406,o),
(339,401,o),
(370,389,c),
(372,372,o),
(379,288,o),
(379,81,c)
);
},
{
closed = 1;
nodes = (
(354,452,o),
(307,461,o),
(266,461,cs),
(142,461,o),
(41,355,o),
(41,211,cs),
(41,97,o),
(104,-10,o),
(219,-10,cs),
(279,-10,o),
(320,4,o),
(378,44,c),
(377,-163,o),
(370,-215,o),
(370,-215,c),
(368,-226,o),
(322,-232,o),
(301,-234,c),
(298,-263,l),
(330,-261,o),
(382,-260,o),
(416,-260,cs),
(450,-260,o),
(492,-261,o),
(524,-263,c),
(527,-234,l),
(506,-232,o),
(465,-226,o),
(463,-215,cs),
(461,-203,o),
(452,-150,o),
(452,89,cs),
(452,337,o),
(454,458,o),
(454,458,c),
(435,467,l,{
name = hr01;
}),
(393,430,l)
);
}
);
width = 536;
}
);
unicode = 113;
},
{
glyphname = r;
layers = (
{
layerId = master01;
shapes = (
{
closed = 1;
nodes = (
(126,450,o),
(64,441,o),
(28,441,c),
(30,415,l),
(94,396,l),
(94,396,o),
(102,375,o),
(102,229,cs),
(102,83,o),
(94,48,o),
(94,48,c),
(92,37,o),
(50,28,o),
(29,26,c),
(26,-3,l),
(58,-1,o),
(106,0,o),
(140,0,cs,{
name = hr01;
}),
(174,0,o),
(237,-1,o),
(269,-3,c,{
name = hr02;
}),
(272,26,l),
(234,28,o),
(188,38,o),
(186,49,c),
(183,60,o),
(177,89,o),
(177,254,cs),
(177,359,o),
(234,391,o),
(286,391,cs),
(312,391,o),
(337,384,o),
(355,377,c),
(370,396,l),
(361,429,o),
(329,466,o),
(319,466,cs),
(298,466,o),
(221,441,o),
(177,368,c),
(177,403,o),
(177,435,o),
(179,450,c),
(160,459,l)
);
}
);
width = 377;
}
);
unicode = 114;
},
{
glyphname = s;
layers = (
{
layerId = master01;
shapes = (
{
closed = 1;
nodes = (
(101,460,o),
(50,395,o),
(50,331,cs),
(50,290,o),
(71,248,o),
(116,224,cs),
(224,164,ls),
(256,146,o),
(271,121,o),
(271,96,cs),
(271,61,o),
(241,28,o),
(184,28,cs),
(104,28,o),
(96,69,o),
(78,140,c),
(52,131,l),
(52,102,o),
(45,45,o),
(40,16,c),
(97,-2,o),
(150,-9,o),
(190,-9,cs),
(304,-9,o),
(350,56,o),
(350,117,cs),
(350,167,o),
(325,201,o),
(284,224,cs),
(182,280,ls),
(142,302,o),
(130,330,o),
(130,354,cs),
(130,388,o),
(160,418,o),
(205,418,cs),
(255,418,o),
(286,397,o),
(304,327,c),
(330,336,l),
(325,364,o),
(324,406,o),
(324,435,cs),
(324,435,o),
(276,460,o),
(193,460,cs,{
name = hr00;
})
);
}
);
width = 382;
}
);
unicode = 115;
},
{
glyphname = germandbls;
layers = (
{
layerId = master01;
shapes = (
{
closed = 1;
nodes = (
(269,1,o),
(328,-9,o),
(378,-9,cs),
(493,-9,o),
(536,56,o),
(536,117,cs),
(536,242,o),
(327,269,o),
(327,369,cs),
(327,498,o),
(510,481,o),
(510,620,cs,{
name = hr01;
}),
(510,654,o),
(486,730,o),
(347,730,cs),
(180,730,o),
(101,595,o),
(101,451,c),
(67,453,o),
(53,455,o),
(53,455,c),
(30,416,l),
(33,405,l),
(33,405,o),
(58,405,o),
(102,406,c),
(102,120,o),
(95,48,o),
(94,48,c),
(92,37,o),
(47,28,o),
(26,26,c),
(23,-3,l),
(64,-1,o),
(134,0,o),
(190,0,c),
(190,24,o),
(180,197,o),
(180,456,cs),
(180,632,o),
(247,686,o),
(325,686,cs),
(382,686,o),
(426,653,o),
(426,608,cs),
(426,481,o),
(249,497,o),
(249,357,cs),
(249,217,o),
(453,182,o),
(453,97,cs,{
name = hr02;
}),
(453,48,o),
(424,31,o),
(386,31,cs),
(337,31,o),
(273,61,o),
(244,87,c),
(231,16,l)
);
}
);
width = 576;
}
);
unicode = 223;
},
{
glyphname = t;
layers = (
{
layerId = master01;
shapes = (
{
closed = 1;
nodes = (
(290,61,o),
(254,48,o),
(223,48,cs),
(195,48,o),
(172,59,o),
(170,93,cs),
(167,147,o),
(167,192,o),
(167,272,cs),
(167,406,l),
(249,405,o),
(283,401,o),
(283,401,c),
(319,441,l),
(314,453,l),
(314,453,o),
(258,452,o),
(167,452,c),
(167,519,o),
(169,593,o),
(169,593,c),
(150,602,l),
(84,543,l),
(84,543,o),
(87,491,o),
(88,451,c),
(60,452,o),
(46,455,o),
(46,455,c),
(23,416,l),
(26,405,l),
(26,405,o),
(50,405,o),
(90,406,c),
(91,366,o),
(92,310,o),
(92,243,cs),
(92,179,o),
(91,91,o),
(91,91,c),
(91,14,o),
(138,-9,o),
(195,-9,cs),
(238,-9,o),
(278,8,o),
(323,38,c),
(311,71,l,{
name = hr00;
})
);
}
);
width = 327;
}
);
unicode = 116;
},
{
glyphname = tbar;
layers = (
{
layerId = master01;
shapes = (
{
closed = 1;
nodes = (
(44,261,l),
(31,219,l),
(267,219,l),
(280,261,l,{
name = hr00;
})
);
},
{
ref = t;
}
);
width = 327;
}
);
unicode = 359;
},
{
glyphname = u;
layers = (
{
layerId = master01;
shapes = (
{
closed = 1;
nodes = (
(458,85,o),
(455,118,o),
(455,202,cs),
(455,375,o),
(458,450,o),
(458,450,c),
(439,459,l),
(405,450,o),
(343,441,o),
(307,441,c),
(309,415,l),
(372,396,l),
(372,396,o),
(380,375,o),
(380,229,cs),
(380,152,o),
(378,122,o),
(376,95,c),
(348,76,o),
(290,53,o),
(241,53,cs),
(187,53,o),
(160,70,o),
(160,120,cs),
(160,268,o),
(163,450,o),
(163,450,c),
(144,459,l),
(110,450,o),
(53,441,o),
(17,441,c),
(19,415,l),
(78,396,l),
(78,396,o),
(85,375,o),
(85,229,cs),
(85,95,ls),
(85,16,o),
(128,-9,o),
(187,-9,cs),
(254,-9,o),
(328,20,o),
(381,56,c),
(392,9,o),
(422,-4,o),
(422,-4,c),
(456,3,o),
(495,11,o),
(531,14,c),
(534,43,l),
(500,45,o),
(459,48,o),
(458,85,c,{
name = hr00;
})
);
}
);
width = 550;
}
);
unicode = 117;
},
{
glyphname = v;
layers = (
{
layerId = master01;
shapes = (
{
closed = 1;
nodes = (
(142,407,o),
(161,422,o),
(205,427,c),
(202,456,l),
(202,456,o),
(142,453,o),
(104,453,cs),
(67,453,o),
(2,456,o),
(2,456,c),
(5,427,l),
(49,420,o),
(61,401,o),
(66,386,cs),
(203,-9,l),
(278,0,l),
(414,387,ls),
(421,408,o),
(431,420,o),
(478,427,c),
(475,456,l),
(475,456,o),
(410,453,o),
(373,453,cs),
(335,453,o),
(301,456,o),
(301,456,c),
(304,427,l),
(341,422,o),
(359,411,o),
(359,398,cs),
(359,391,o),
(321,282,o),
(250,66,c),
(185,279,o),
(142,391,o),
(142,397,cs,{
name = hr00;
})
);
}
);
width = 479;
}
);
unicode = 118;
},
{
glyphname = w;
layers = (
{
layerId = master01;
shapes = (
{
closed = 1;
nodes = (
(604,385,o),
(549,178,o),
(522,66,c),
(390,450,l),
(368,450,l),
(232,66,l),
(205,177,o),
(153,385,o),
(153,393,cs),
(153,403,o),
(169,420,o),
(220,427,c),
(217,456,l),
(217,456,o),
(143,453,o),
(105,453,cs),
(68,453,o),
(3,456,o),
(3,456,c),
(6,427,l),
(50,420,o),
(63,401,o),
(67,386,cs),
(179,-9,l),
(257,0,l),
(360,279,l),
(470,-9,l),
(549,0,l),
(660,390,ls),
(665,409,o),
(680,421,o),
(723,427,c),
(720,456,l),
(720,456,o),
(655,453,o),
(618,453,cs),
(580,453,o),
(538,456,o),
(538,456,c),
(541,427,l),
(579,422,o),
(604,411,o),
(604,396,cs,{
name = hr00;
})
);
}
);
width = 725;
}
);
unicode = 119;
},
{
glyphname = x;
layers = (
{
layerId = master01;
shapes = (
{
closed = 1;
nodes = (
(318,68,ls),
(327,56,o),
(330,50,o),
(330,47,cs),
(330,38,o),
(320,30,o),
(277,26,c),
(274,-3,l),
(274,-3,o),
(332,0,o),
(370,0,cs,{
name = hr01;
}),
(407,0,o),
(487,-3,o),
(487,-3,c,{
name = hr02;
}),
(490,26,l),
(446,30,o),
(431,44,o),
(422,57,cs),
(291,236,l),
(412,393,ls),
(424,408,o),
(448,425,o),
(473,427,c),
(470,456,l),
(470,456,o),
(425,453,o),
(388,453,cs),
(350,453,o),
(301,456,o),
(301,456,c),
(304,427,l),
(340,423,o),
(352,418,o),
(352,406,cs),
(352,397,o),
(346,387,o),
(338,376,cs),
(263,275,l),
(189,377,ls),
(178,392,o),
(173,403,o),
(173,407,cs),
(173,416,o),
(184,423,o),
(229,427,c),
(226,456,l),
(226,456,o),
(179,453,o),
(141,453,cs),
(104,453,o),
(24,456,o),
(24,456,c),
(27,427,l),
(66,423,o),
(76,412,o),
(85,399,cs),
(207,222,l),
(73,54,ls),
(60,38,o),
(48,30,o),
(10,26,c),
(7,-3,l),
(7,-3,o),
(67,0,o),
(104,0,cs,{
name = hr03;
}),
(142,0,o),
(188,-3,o),
(188,-3,c,{
name = hr04;
}),
(194,26,l),
(149,30,o),
(132,36,o),
(132,44,cs),
(132,49,o),
(137,56,o),
(148,70,cs),
(234,183,l)
);
}
);
width = 496;
}
);
unicode = 120;
},
{
glyphname = y;
layers = (
{
layerId = master01;
shapes = (
{
closed = 1;
nodes = (
(168,-153,o),
(115,-183,o),
(84,-183,cs),
(66,-183,o),
(54,-181,o),
(39,-174,c),
(24,-193,l),
(33,-226,o),
(65,-263,o),
(75,-263,cs),
(104,-263,o),
(178,-257,o),
(275,0,cs),
(408,354,ls),
(427,405,o),
(420,418,o),
(483,427,c),
(480,456,l),
(480,456,o),
(414,453,o),
(378,453,cs),
(340,453,o),
(306,456,o),
(306,456,c),
(309,427,l),
(346,422,o),
(364,411,o),
(364,398,cs),
(364,386,o),
(326,275,o),
(252,64,c),
(183,277,o),
(142,391,o),
(142,397,cs),
(142,407,o),
(158,422,o),
(202,427,c),
(199,456,l),
(199,456,o),
(139,453,o),
(101,453,cs),
(64,453,o),
(-1,456,o),
(-1,456,c),
(2,427,l),
(46,420,o),
(57,401,o),
(63,386,cs),
(193,21,l),
(228,0,l,{
name = hr00;
})
);
}
);
width = 482;
}
);
unicode = 121;
},
{
glyphname = z;
layers = (
{
layerId = master01;
shapes = (
{
closed = 1;
nodes = (
(400,31,o),
(409,107,o),
(419,138,c),
(393,147,l),
(364,54,o),
(307,45,o),
(130,45,c),
(413,422,l),
(398,450,l),
(301,450,o),
(118,450,o),
(56,455,c,{
name = hr01;
}),
(56,442,l),
(56,409,o),
(51,358,o),
(47,333,c),
(73,324,l),
(100,409,o),
(111,410,o),
(313,410,c,{
name = hr02;
}),
(26,30,l),
(46,0,l),
(398,0,l)
);
}
);
width = 444;
}
);
unicode = 122;
},
{
glyphname = ff;
layers = (
{
layerId = master01;
shapes = (
{
closed = 1;
nodes = (
(411,120,o),
(404,48,o),
(403,48,c),
(401,37,o),
(356,28,o),
(335,26,c),
(332,-3,l),
(364,-1,o),
(410,0,o),
(444,0,cs,{
name = hr01;
}),
(478,0,o),
(537,-1,o),
(569,-3,c,{
name = hr02;
}),
(572,26,l),
(551,27,o),
(497,37,o),
(496,48,cs),
(495,56,o),
(486,125,o),
(486,406,c),
(556,405,o),
(590,402,o),
(590,402,c),
(621,441,l),
(616,453,l),
(616,453,o),
(568,452,o),
(486,452,c),
(486,626,o),
(545,659,o),
(601,659,cs),
(636,659,o),
(669,648,o),
(687,640,c),
(702,659,l),
(693,692,o),
(661,729,o),
(651,729,cs),
(634,729,o),
(553,712,o),
(489,650,c),
(454,682,o),
(400,702,o),
(338,702,cs),
(224,702,o),
(101,636,o),
(101,451,c),
(67,453,o),
(53,455,o),
(53,455,c),
(30,416,l),
(33,405,l),
(33,405,o),
(58,405,o),
(102,406,c),
(102,120,o),
(95,48,o),
(94,48,c),
(92,37,o),
(47,28,o),
(26,26,c),
(23,-3,l),
(55,-1,o),
(101,0,o),
(135,0,cs,{
name = hr03;
}),
(169,0,o),
(228,-1,o),
(260,-3,c,{
name = hr04;
}),
(263,26,l),
(242,27,o),
(188,37,o),
(187,48,cs),
(186,56,o),
(177,125,o),
(177,406,c),
(411,406,l)
);
},
{
closed = 1;
nodes = (
(373,661,o),
(413,634,o),
(448,599,c),
(425,561,o),
(410,512,o),
(410,450,c),
(364,448,o),
(324,447,o),
(278,447,cs),
(244,447,o),
(211,448,o),
(177,449,c),
(177,627,o),
(243,661,o),
(308,661,c)
);
}
);
width = 625;
}
);
unicode = 64256;
},
{
glyphname = ffi;
layers = (
{
layerId = master01;
shapes = (
{
closed = 1;
nodes = (
(224,703,o),
(101,637,o),
(101,452,c),
(67,454,o),
(53,456,o),
(53,456,c),
(30,417,l),
(33,406,l),
(102,406,l),
(102,120,o),
(95,48,o),
(94,48,c),
(92,37,o),
(47,28,o),
(26,26,c),
(23,-3,l),
(55,-1,o),
(101,0,o),
(135,0,cs,{
name = hr01;
}),
(169,0,o),
(228,-1,o),
(260,-3,c,{
name = hr02;
}),
(263,26,l),
(242,27,o),
(188,37,o),
(187,48,cs),
(186,56,o),
(177,125,o),
(177,406,c),
(411,406,l),
(411,120,o),
(404,48,o),
(403,48,c),
(401,37,o),
(356,28,o),
(335,26,c),
(332,-3,l),
(364,-1,o),
(410,0,o),
(444,0,cs,{
name = hr03;
}),
(478,0,o),
(537,-1,o),
(569,-3,c,{
name = hr04;
}),
(572,26,l),
(551,27,o),
(497,37,o),
(496,48,cs),
(495,56,o),
(486,125,o),
(486,406,c),
(574,406,ls),
(660,406,o),
(710,396,o),
(710,396,c),
(710,396,o),
(718,375,o),
(718,229,cs),
(718,83,o),
(710,48,o),
(710,48,c),
(708,37,o),
(661,28,o),
(640,26,c),
(637,-3,l),
(669,-1,o),
(722,0,o),
(756,0,cs,{
name = hr05;
}),
(790,0,o),
(839,-1,o),
(871,-3,c,{
name = hr06;
}),
(874,26,l),
(853,28,o),
(805,37,o),
(803,48,c),
(803,48,o),
(793,83,o),
(793,229,cs),
(793,294,o),
(795,414,o),
(795,450,c),
(776,459,l),
(742,452,o),
(522,452,o),
(486,452,c),
(486,627,o),
(549,670,o),
(620,670,cs),
(662,670,o),
(705,648,o),
(736,610,c),
(766,624,o),
(785,648,o),
(785,672,cs),
(785,708,o),
(726,730,o),
(667,730,cs),
(608,730,o),
(539,709,o),
(487,658,c),
(451,686,o),
(396,703,o),
(338,703,cs)
);
},
{
closed = 1;
nodes = (
(364,449,o),
(324,448,o),
(278,448,cs),
(244,448,o),
(211,449,o),
(177,450,c),
(177,628,o),
(243,662,o),
(308,662,cs),
(368,662,o),
(414,638,o),
(448,607,c),
(424,567,o),
(410,515,o),
(410,451,c)
);
}
);
width = 891;
}
);
unicode = 64259;
},
{
glyphname = ffl;
layers = (
{
layerId = master01;
shapes = (
{
closed = 1;
nodes = (
(798,596,o),
(800,721,o),
(800,721,c),
(781,730,l,{
name = hr01;
}),
(750,722,o),
(744,720,o),
(720,717,c),
(705,720,o),
(691,721,o),
(676,721,cs,{
name = hr02;
}),
(610,721,o),
(541,697,o),
(490,649,c),
(455,682,o),
(401,702,o),
(338,702,cs,{
name = hr03;
}),
(224,702,o),
(101,636,o),
(101,451,c),
(67,453,o),
(53,455,o),
(53,455,c),
(30,416,l),
(33,405,l),
(33,405,o),
(58,405,o),
(102,406,c),
(102,120,o),
(95,48,o),
(94,48,c),
(92,37,o),
(47,28,o),
(26,26,c),
(23,-3,l,{
name = hr04;
}),
(55,-1,o),
(101,0,o),
(135,0,cs,{
name = hr05;
}),
(169,0,o),
(228,-1,o),
(260,-3,c,{
name = hr06;
}),
(263,26,l,{
name = hr07;
}),
(242,27,o),
(188,37,o),
(187,48,cs),
(186,56,o),
(177,125,o),
(177,406,c),
(411,406,l),
(411,120,o),
(404,48,o),
(403,48,c),
(401,37,o),
(356,28,o),
(335,26,c),
(332,-3,l,{
name = hr08;
}),
(364,-1,o),
(410,0,o),
(444,0,cs,{
name = hr09;
}),
(478,0,o),
(537,-1,o),
(569,-3,c,{
name = hr10;
}),
(572,26,l,{
name = hr11;
}),
(551,27,o),
(497,37,o),
(496,48,cs),
(495,56,o),
(486,125,o),
(486,406,c),
(556,405,o),
(590,402,o),
(590,402,c),
(621,441,l),
(616,453,l),
(616,453,o),
(568,452,o),
(486,452,c),
(486,580,o),
(520,668,o),
(614,668,cs),
(642,668,o),
(677,660,o),
(717,643,c),
(720,589,o),
(723,504,o),
(723,370,cs),
(723,112,o),
(716,48,o),
(716,48,c),
(714,37,o),
(668,28,o),
(647,26,c),
(644,-3,l,{
name = hr12;
}),
(676,-1,o),
(728,0,o),
(762,0,cs,{
name = hr13;
}),
(796,0,o),
(844,-1,o),
(876,-3,c,{
name = hr14;
}),
(879,26,l,{
name = hr15;
}),
(858,27,o),
(811,37,o),
(809,48,cs),
(807,60,o),
(798,113,o),
(798,352,c)
);
},
{
closed = 1;
nodes = (
(373,661,o),
(413,634,o),
(449,599,c),
(424,559,o),
(410,509,o),
(410,450,c),
(364,448,o),
(324,447,o),
(278,447,cs),
(244,447,o),
(211,448,o),
(177,449,c),
(177,627,o),
(243,661,o),
(308,661,c)
);
}
);
width = 897;
}
);
unicode = 64260;
},
{
glyphname = fi;
layers = (
{
layerId = master01;
shapes = (
{
closed = 1;
nodes = (
(177,627,o),
(240,670,o),
(311,670,cs),
(353,670,o),
(396,648,o),
(427,610,c),
(457,624,o),
(476,648,o),
(476,672,cs),
(476,708,o),
(417,730,o),
(358,730,cs),
(248,730,o),
(101,656,o),
(101,451,c),
(67,453,o),
(53,455,o),
(53,455,c),
(30,416,l),
(33,405,l),
(33,405,o),
(58,405,o),
(102,406,c),
(102,120,o),
(95,48,o),
(94,48,c),
(92,37,o),
(47,28,o),
(26,26,c),
(23,-3,l),
(55,-1,o),
(101,0,o),
(135,0,cs,{
name = hr01;
}),
(169,0,o),
(228,-1,o),
(260,-3,c,{
name = hr02;
}),
(263,26,l),
(242,27,o),
(188,37,o),
(187,48,cs),
(186,56,o),
(177,125,o),
(177,406,c),
(209,409,o),
(239,411,o),
(265,411,cs),
(351,411,o),
(401,396,o),
(401,396,c),
(401,396,o),
(409,375,o),
(409,229,cs),
(409,83,o),
(401,48,o),
(401,48,c),
(399,37,o),
(352,28,o),
(331,26,c),
(328,-3,l),
(360,-1,o),
(413,0,o),
(447,0,cs,{
name = hr03;
}),
(481,0,o),
(530,-1,o),
(562,-3,c,{
name = hr04;
}),
(565,26,l),
(544,28,o),
(496,37,o),
(494,48,c),
(494,48,o),
(484,83,o),
(484,229,cs),
(484,294,o),
(486,414,o),
(486,450,c),
(467,459,l),
(433,452,o),
(213,452,o),
(177,452,c)
);
}
);
width = 581;
}
);
unicode = 64257;
},
{
glyphname = fl;
layers = (
{
layerId = master01;
shapes = (
{
closed = 1;
nodes = (
(247,405,o),
(281,402,o),
(281,402,c),
(312,441,l),
(307,453,l),
(307,453,o),
(259,452,o),
(177,452,c),
(177,580,o),
(210,668,o),
(304,668,cs),
(333,668,o),
(367,660,o),
(408,642,c),
(411,610,o),
(414,538,o),
(414,370,cs),
(414,112,o),
(407,48,o),
(407,48,c),
(405,37,o),
(359,28,o),
(338,26,c),
(335,-3,l),
(367,-1,o),
(419,0,o),
(453,0,cs,{
name = hr01;
}),
(487,0,o),
(535,-1,o),
(567,-3,c,{
name = hr02;
}),
(570,26,l),
(549,27,o),
(502,37,o),
(500,48,cs),
(498,60,o),
(489,113,o),
(489,352,cs),
(489,596,o),
(491,721,o),
(491,721,c),
(472,730,l,{
name = hr03;
}),
(449,708,l),
(423,716,o),
(395,721,o),
(367,721,cs,{
name = hr04;
}),
(240,721,o),
(101,633,o),
(101,451,c),
(67,453,o),
(53,455,o),
(53,455,c),
(30,416,l),
(33,405,l),
(33,405,o),
(58,405,o),
(102,406,c),
(102,120,o),
(95,48,o),
(94,48,c),
(92,37,o),
(47,28,o),
(26,26,c),
(23,-3,l),
(55,-1,o),
(101,0,o),
(135,0,cs,{
name = hr05;
}),
(169,0,o),
(228,-1,o),
(260,-3,c,{
name = hr06;
}),
(263,26,l),
(242,27,o),
(188,37,o),
(187,48,cs),
(186,56,o),
(177,125,o),
(177,406,c)
);
}
);
width = 588;
}
);
unicode = 64258;
},
{
glyphname = asuperior;
layers = (
{
layerId = master01;
shapes = (
{
closed = 1;
nodes = (
(157,410,o),
(135,404,o),
(118,404,cs),
(97,404,o),
(82,414,o),
(82,435,cs),
(82,463,o),
(112,495,o),
(177,496,c),
(177,422,l,{
name = hr00;
})
);
},
{
closed = 1;
nodes = (
(263,401,o),
(256,400,o),
(252,400,cs),
(242,400,o),
(234,405,o),
(234,426,cs),
(234,446,o),
(230,566,o),
(230,587,cs),
(230,642,o),
(197,656,o),
(157,656,cs),
(77,656,o),
(33,599,o),
(33,588,cs),
(33,581,o),
(51,558,o),
(71,548,c),
(90,556,l),
(87,565,o),
(87,569,o),
(87,574,cs),
(87,598,o),
(103,617,o),
(135,617,cs),
(159,617,o),
(177,606,o),
(177,584,cs),
(177,530,l),
(71,516,o),
(21,469,o),
(21,422,cs),
(21,376,o),
(54,360,o),
(89,360,cs),
(121,360,o),
(150,376,o),
(180,398,c),
(186,372,o),
(205,360,o),
(226,360,cs),
(244,360,o),
(265,370,o),
(282,384,c),
(273,406,l)
);
}
);
width = 286;
}
);
},
{
glyphname = osuperior;
layers = (
{
layerId = master01;
shapes = (
{
closed = 1;
nodes = (
(244,461,o),
(227,394,o),
(163,394,cs),
(102,394,o),
(84,455,o),
(84,511,cs),
(84,544,o),
(96,623,o),
(166,623,cs),
(232,623,o),
(245,555,o),
(245,496,c,{
name = hr00;
})
);
},
{
closed = 1;
nodes = (
(308,600,o),
(268,656,o),
(173,656,cs),
(63,656,o),
(21,575,o),
(21,496,cs),
(21,415,o),
(61,360,o),
(156,360,cs),
(266,360,o),
(308,439,o),
(308,519,cs)
);
}
);
width = 331;
}
);
},
{
glyphname = ordfeminine;
layers = (
{
layerId = master01;
shapes = (
{
closed = 1;
nodes = (
(12,278,l),
(16,265,l),
(69,269,o),
(92,269,o),
(145,269,cs,{
name = hr01;
}),
(192,269,o),
(206,269,o),
(253,266,c),
(278,305,l),
(274,317,l,{
name = hr02;
}),
(221,313,o),
(199,313,o),
(145,313,cs,{
name = hr03;
}),
(98,313,o),
(84,313,o),
(37,317,c)
);
},
{
ref = asuperior;
}
);
width = 286;
}
);
unicode = 170;
},
{
glyphname = ordmasculine;
layers = (
{
layerId = master01;
shapes = (
{
closed = 1;
nodes = (
(26,278,l),
(30,265,l),
(83,269,o),
(106,269,o),
(159,269,cs,{
name = hr01;
}),
(206,269,o),
(220,269,o),
(267,266,c),
(292,305,l),
(288,317,l,{
name = hr02;
}),
(235,313,o),
(213,313,o),
(159,313,cs,{
name = hr03;
}),
(112,313,o),
(98,313,o),
(51,317,c)
);
},
{
ref = osuperior;
}
);
width = 331;
}
);
unicode = 186;
},
{
glyphname = pi;
layers = (
{
layerId = master01;
shapes = (
{
closed = 1;
nodes = (
(229,456,o),
(149,457,o),
(68,461,cs),
(58,461,o),
(26,418,o),
(17,385,c),
(32,366,l),
(50,374,o),
(83,385,o),
(118,385,cs),
(137,385,l),
(137,95,o),
(121,74,o),
(64,74,cs),
(56,74,o),
(50,71,o),
(50,61,cs),
(50,28,o),
(79,-9,o),
(101,-9,cs),
(140,-9,o),
(180,27,o),
(181,385,c),
(320,385,l),
(320,91,ls),
(320,22,o),
(352,-9,o),
(389,-9,cs),
(429,-9,o),
(478,27,o),
(512,89,c),
(483,107,l),
(467,79,o),
(442,54,o),
(423,54,cs),
(411,54,o),
(399,66,o),
(399,93,cs),
(399,384,l),
(418,383,o),
(438,382,o),
(463,382,cs),
(473,382,o),
(505,425,o),
(514,458,c,{
name = hr01;
}),
(499,477,l,{
name = hr02;
}),
(481,469,o),
(448,458,o),
(413,458,cs,{
name = hr03;
}),
(263,456,l)
);
}
);
width = 539;
}
);
unicode = 960;
},
{
glyphname = zero;
layers = (
{
layerId = master01;
shapes = (
{
closed = 1;
nodes = (
(485,520,o),
(414,673,o),
(261,673,cs),
(108,673,o),
(37,520,o),
(37,332,cs),
(37,144,o),
(108,-9,o),
(261,-9,cs),
(414,-9,o),
(485,144,o),
(485,332,c,{
name = hr00;
})
);
},
{
closed = 1;
nodes = (
(349,628,o),
(390,496,o),
(390,332,cs),
(390,168,o),
(349,36,o),
(261,36,cs),
(173,36,o),
(132,168,o),
(132,332,cs),
(132,496,o),
(173,628,o),
(261,628,c)
);
}
);
width = 523;
}
);
unicode = 48;
},
{
glyphname = one;
layers = (
{
layerId = master01;
shapes = (
{
closed = 1;
nodes = (
(204,663,o),
(135,653,o),
(41,653,c),
(44,617,l),
(165,596,l),
(165,596,o),
(172,557,o),
(172,342,cs),
(172,128,o),
(165,69,o),
(165,69,c),
(162,44,o),
(106,38,o),
(46,26,c),
(49,-3,l),
(101,-1,o),
(162,0,o),
(222,0,cs,{
name = hr01;
}),
(269,0,o),
(315,-1,o),
(355,-3,c,{
name = hr02;
}),
(358,26,l),
(298,38,o),
(270,44,o),
(267,69,c),
(267,69,o),
(259,127,o),
(259,342,cs),
(259,557,o),
(263,663,o),
(263,663,c),
(242,673,l)
);
}
);
width = 403;
}
);
unicode = 49;
},
{
glyphname = two;
layers = (
{
layerId = master01;
shapes = (
{
closed = 1;
nodes = (
(444,613,o),
(350,673,o),
(249,673,cs),
(160,673,o),
(98,635,o),
(49,594,c),
(63,566,l),
(93,582,o),
(158,605,o),
(219,605,cs),
(287,605,o),
(349,576,o),
(349,479,cs),
(349,293,o),
(30,40,o),
(30,40,c),
(42,0,l),
(444,0,l),
(446,36,o),
(456,123,o),
(468,159,c),
(441,171,l),
(409,72,o),
(372,66,o),
(131,66,c),
(129,71,l),
(178,105,o),
(444,294,o),
(444,492,cs,{
name = hr00;
})
);
}
);
width = 517;
}
);
unicode = 50;
},
{
glyphname = three;
layers = (
{
layerId = master01;
shapes = (
{
closed = 1;
nodes = (
(355,431,o),
(396,497,o),
(396,552,cs),
(396,621,o),
(332,674,o),
(247,674,cs),
(191,674,o),
(126,651,o),
(64,594,c),
(78,566,l),
(133,600,o),
(179,614,o),
(215,614,cs),
(272,614,o),
(304,580,o),
(304,535,cs),
(304,482,o),
(250,390,o),
(109,358,c),
(106,319,l),
(133,326,o),
(158,329,o),
(181,329,cs),
(284,329,o),
(335,263,o),
(335,190,cs),
(335,101,o),
(260,6,o),
(110,6,cs),
(85,6,o),
(58,9,o),
(28,15,c),
(25,-33,l),
(57,-40,o),
(87,-43,o),
(116,-43,cs),
(310,-43,o),
(430,86,o),
(430,203,cs),
(430,282,o),
(379,351,o),
(247,370,c),
(247,375,l,{
name = hr00;
})
);
}
);
width = 480;
}
);
unicode = 51;
},
{
glyphname = four;
layers = (
{
layerId = master01;
shapes = (
{
closed = 1;
nodes = (
(318,446,o),
(320,426,o),
(320,426,c),
(320,241,l),
(92,241,l),
(366,697,l),
(275,706,l),
(20,225,l),
(32,186,l),
(319,186,l),
(316,92,o),
(313,69,o),
(313,69,c),
(310,44,o),
(254,38,o),
(194,26,c),
(197,-3,l),
(239,-1,o),
(309,0,o),
(359,0,cs,{
name = hr01;
}),
(409,0,o),
(454,-1,o),
(496,-3,c,{
name = hr02;
}),
(499,26,l),
(439,38,o),
(418,44,o),
(415,69,c),
(415,69,o),
(411,94,o),
(409,185,c),
(457,183,o),
(457,181,o),
(457,181,c),
(495,227,l),
(489,242,l),
(408,242,l),
(407,278,o),
(407,338,o),
(407,450,c)
);
}
);
width = 523;
}
);
unicode = 52;
},
{
glyphname = five;
layers = (
{
layerId = master01;
shapes = (
{
closed = 1;
nodes = (
(77,375,l),
(258,375,o),
(344,287,o),
(344,191,cs),
(344,99,o),
(261,7,o),
(106,7,cs),
(85,7,o),
(63,9,o),
(39,12,c),
(36,-33,l),
(69,-40,o),
(100,-43,o),
(129,-43,cs),
(319,-43,o),
(439,89,o),
(439,214,cs),
(439,325,o),
(344,432,o),
(120,439,c),
(148,592,l),
(276,604,o),
(294,604,o),
(310,604,cs),
(359,604,o),
(383,598,o),
(383,598,c),
(424,675,l),
(417,690,l),
(112,657,l),
(65,414,l,{
name = hr00;
})
);
}
);
width = 489;
}
);
unicode = 53;
},
{
glyphname = six;
layers = (
{
layerId = master01;
shapes = (
{
closed = 1;
nodes = (
(207,293,o),
(225,297,o),
(242,297,cs),
(308,297,o),
(347,240,o),
(347,170,cs),
(347,106,o),
(312,42,o),
(243,42,cs),
(171,42,o),
(128,122,o),
(128,224,cs),
(128,367,o),
(212,557,o),
(427,657,c),
(411,692,l),
(136,569,o),
(30,384,o),
(30,234,cs),
(30,98,o),
(119,-9,o),
(247,-9,cs),
(382,-9,o),
(446,84,o),
(446,174,cs),
(446,258,o),
(387,341,o),
(273,341,cs),
(248,341,o),
(218,337,o),
(183,325,c),
(187,285,l,{
name = hr00;
})
);
}
);
width = 486;
}
);
unicode = 54;
},
{
glyphname = seven;
layers = (
{
layerId = master01;
shapes = (
{
closed = 1;
nodes = (
(474,667,l),
(456,666,o),
(394,666,o),
(318,666,cs),
(219,666,o),
(104,667,o),
(57,670,c),
(57,624,o),
(52,547,o),
(45,508,c),
(72,496,l),
(103,604,o),
(149,600,o),
(321,600,cs),
(362,600,o),
(389,597,o),
(392,577,c),
(104,-24,l),
(195,-33,l),
(477,638,l,{
name = hr00;
})
);
}
);
width = 477;
}
);
unicode = 55;
},
{
glyphname = eight;
layers = (
{
layerId = master01;
shapes = (
{
closed = 1;
nodes = (
(323,629,o),
(357,580,o),
(357,523,cs),
(357,475,o),
(328,414,o),
(273,383,c),
(222,412,o),
(154,461,o),
(154,534,cs),
(154,587,o),
(192,629,o),
(250,629,c,{
name = hr00;
})
);
},
{
closed = 1;
nodes = (
(171,41,o),
(132,99,o),
(132,164,cs),
(132,225,o),
(166,286,o),
(231,318,c),
(330,275,o),
(366,217,o),
(366,162,cs),
(366,97,o),
(314,41,o),
(251,41,c)
);
},
{
closed = 1;
nodes = (
(460,243,o),
(415,309,o),
(309,364,c),
(399,398,o),
(438,470,o),
(438,530,cs),
(438,605,o),
(375,673,o),
(259,673,cs),
(147,673,o),
(62,604,o),
(62,514,cs),
(62,468,o),
(87,400,o),
(193,336,c),
(92,302,o),
(45,227,o),
(45,156,cs),
(45,70,o),
(113,-9,o),
(241,-9,cs),
(368,-9,o),
(460,71,o),
(460,170,c)
);
}
);
width = 505;
}
);
unicode = 56;
},
{
glyphname = nine;
layers = (
{
layerId = master01;
shapes = (
{
closed = 1;
nodes = (
(287,340,o),
(271,338,o),
(257,338,cs),
(172,338,o),
(131,409,o),
(131,479,cs),
(131,550,o),
(172,621,o),
(249,621,cs),
(327,621,o),
(377,538,o),
(377,428,cs),
(377,277,o),
(284,75,o),
(58,-30,c),
(74,-66,l),
(361,63,o),
(473,259,o),
(473,417,cs),
(473,561,o),
(379,673,o),
(245,673,cs),
(106,673,o),
(40,578,o),
(40,483,cs),
(40,389,o),
(105,295,o),
(228,295,cs),
(252,295,o),
(279,299,o),
(308,307,c),
(304,344,l,{
name = hr00;
})
);
}
);
width = 503;
}
);
unicode = 57;
},
{
glyphname = fraction;
layers = (
{
layerId = master01;
shapes = (
{
closed = 1;
nodes = (
(48,-1,l),
(460,679,l),
(412,679,l),
(0,-1,l,{
name = hr00;
})
);
}
);
width = 460;
}
);
unicode = 8260;
},
{
glyphname = zeroinferior;
layers = (
{
layerId = master01;
shapes = (
{
closed = 1;
nodes = (
(303,152,o),
(257,244,o),
(159,244,cs),
(61,244,o),
(16,152,o),
(16,39,cs),
(16,-74,o),
(61,-165,o),
(159,-165,cs),
(257,-165,o),
(303,-74,o),
(303,39,cs,{
name = hr00;
})
);
},
{
closed = 1;
nodes = (
(207,207,o),
(228,132,o),
(228,39,cs),
(228,-54,o),
(207,-128,o),
(159,-128,cs),
(112,-128,o),
(91,-54,o),
(91,39,cs),
(91,132,o),
(112,207,o),
(159,207,cs)
);
}
);
width = 320;
}
);
unicode = 8320;
},
{
glyphname = oneinferior;
layers = (
{
layerId = master01;
shapes = (
{
closed = 1;
nodes = (
(169,238,o),
(122,232,o),
(59,232,c),
(61,203,l),
(130,190,l),
(130,190,o),
(134,168,o),
(134,45,cs),
(134,-78,o),
(130,-112,o),
(130,-112,c),
(128,-126,o),
(96,-131,o),
(62,-136,c),
(64,-162,l),
(97,-161,o),
(136,-160,o),
(174,-160,cs),
(204,-160,o),
(233,-161,o),
(259,-162,c),
(261,-136,l),
(228,-130,o),
(212,-126,o),
(210,-112,c),
(210,-112,o),
(206,-78,o),
(206,45,cs),
(206,174,o),
(208,238,o),
(208,238,c),
(194,244,l,{
name = hr00;
})
);
}
);
width = 320;
}
);
unicode = 8321;
},
{
glyphname = twoinferior;
layers = (
{
layerId = master01;
shapes = (
{
closed = 1;
nodes = (
(286,208,o),
(227,244,o),
(163,244,cs),
(107,244,o),
(68,221,o),
(37,196,c),
(52,172,l),
(68,181,o),
(104,195,o),
(138,195,cs),
(175,195,o),
(209,178,o),
(209,127,cs),
(209,16,o),
(18,-130,o),
(18,-130,c),
(25,-160,l),
(289,-160,l),
(290,-137,o),
(296,-83,o),
(302,-60,c),
(272,-53,l),
(253,-115,o),
(219,-120,o),
(97,-120,c),
(95,-117,l),
(105,-110,o),
(286,12,o),
(286,135,cs,{
name = hr00;
})
);
}
);
width = 320;
}
);
unicode = 8322;
},
{
glyphname = threeinferior;
layers = (
{
layerId = master01;
shapes = (
{
closed = 1;
nodes = (
(266,210,o),
(236,244,o),
(172,244,cs),
(122,244,o),
(83,225,o),
(49,197,c),
(63,172,l),
(85,185,o),
(115,197,o),
(143,197,cs),
(174,197,o),
(196,184,o),
(196,150,cs),
(196,116,o),
(165,74,o),
(80,59,c),
(78,23,l),
(94,28,o),
(108,29,o),
(121,29,cs),
(181,29,o),
(212,-10,o),
(212,-52,cs,{
name = hr01;
}),
(212,-98,o),
(173,-148,o),
(91,-148,cs),
(64,-148,o),
(49,-147,o),
(32,-143,c),
(30,-180,l),
(53,-184,o),
(74,-186,o),
(94,-186,cs),
(226,-186,o),
(285,-119,o),
(285,-56,cs),
(285,-4,o),
(246,44,o),
(177,53,c),
(177,57,l),
(235,81,o),
(266,128,o),
(266,169,cs)
);
}
);
width = 320;
}
);
unicode = 8323;
},
{
glyphname = fourinferior;
layers = (
{
layerId = master01;
shapes = (
{
closed = 1;
nodes = (
(196,109,o),
(191,96,o),
(191,96,c),
(191,-16,l),
(72,-16,l),
(249,263,l),
(179,269,l),
(9,-26,l),
(19,-57,l),
(191,-57,l),
(189,-107,o),
(188,-111,o),
(188,-111,c),
(186,-125,o),
(157,-130,o),
(121,-136,c),
(123,-162,l),
(150,-160,o),
(191,-159,o),
(224,-159,cs),
(256,-159,o),
(286,-160,o),
(313,-162,c),
(315,-136,l),
(282,-130,o),
(266,-125,o),
(264,-111,c),
(264,-111,o),
(262,-106,o),
(261,-58,c),
(287,-60,l),
(310,-26,l),
(306,-15,l),
(260,-15,l),
(260,110,l,{
name = hr00;
})
);
}
);
width = 320;
}
);
unicode = 8324;
},
{
glyphname = fiveinferior;
layers = (
{
layerId = master01;
shapes = (
{
closed = 1;
nodes = (
(58,57,l),
(161,57,o),
(210,8,o),
(210,-45,cs),
(210,-97,o),
(165,-148,o),
(82,-148,cs),
(67,-148,o),
(52,-147,o),
(35,-145,c),
(33,-180,l),
(54,-184,o),
(73,-186,o),
(92,-186,cs),
(211,-186,o),
(287,-107,o),
(287,-32,cs),
(287,33,o),
(231,95,o),
(99,99,c),
(116,187,l),
(193,194,o),
(204,194,o),
(213,194,cs),
(243,194,o),
(257,191,o),
(257,191,c),
(282,245,l),
(277,254,l),
(79,234,l),
(50,82,l,{
name = hr00;
})
);
}
);
width = 320;
}
);
unicode = 8325;
},
{
glyphname = sixinferior;
layers = (
{
layerId = master01;
shapes = (
{
closed = 1;
nodes = (
(143,8,o),
(154,10,o),
(164,10,cs),
(200,10,o),
(219,-22,o),
(219,-58,cs),
(219,-98,o),
(195,-132,o),
(160,-132,cs),
(123,-132,o),
(100,-92,o),
(100,-26,cs),
(100,57,o),
(155,174,o),
(275,236,c),
(257,265,l),
(102,199,o),
(24,70,o),
(24,-20,cs),
(24,-112,o),
(83,-169,o),
(165,-169,cs),
(253,-169,o),
(296,-110,o),
(296,-56,cs),
(296,-5,o),
(256,45,o),
(182,45,cs),
(167,45,o),
(149,41,o),
(128,32,c),
(131,3,l,{
name = hr00;
})
);
}
);
width = 320;
}
);
unicode = 8326;
},
{
glyphname = seveninferior;
layers = (
{
layerId = master01;
shapes = (
{
closed = 1;
nodes = (
(295,240,l),
(272,239,o),
(225,239,o),
(175,239,cs),
(117,239,o),
(55,240,o),
(29,242,c,{
name = hr01;
}),
(29,216,o),
(26,163,o),
(22,137,c),
(51,129,l),
(70,196,o),
(101,196,o),
(178,196,cs,{
name = hr02;
}),
(209,196,o),
(226,194,o),
(228,182,c),
(53,-174,l),
(128,-180,l),
(297,215,l)
);
}
);
width = 320;
}
);
unicode = 8327;
},
{
glyphname = eightinferior;
layers = (
{
layerId = master01;
shapes = (
{
closed = 1;
nodes = (
(196,207,o),
(214,183,o),
(214,154,cs),
(214,128,o),
(197,96,o),
(171,79,c),
(143,95,o),
(108,121,o),
(108,160,cs),
(108,187,o),
(129,207,o),
(159,207,cs)
);
},
{
closed = 1;
nodes = (
(119,-130,o),
(98,-100,o),
(98,-66,cs),
(98,-33,o),
(118,4,o),
(150,22,c),
(203,-2,o),
(221,-37,o),
(221,-67,cs),
(221,-101,o),
(193,-130,o),
(160,-130,cs)
);
},
{
closed = 1;
nodes = (
(293,-15,o),
(272,23,o),
(210,56,c),
(262,85,o),
(281,122,o),
(281,158,cs,{
name = hr01;
}),
(281,203,o),
(238,244,o),
(164,244,cs),
(92,244,o),
(37,202,o),
(37,148,cs),
(37,121,o),
(48,82,o),
(108,44,c),
(48,14,o),
(26,-25,o),
(26,-68,cs),
(26,-131,o),
(83,-169,o),
(154,-169,cs),
(226,-169,o),
(293,-128,o),
(293,-59,cs)
);
}
);
width = 320;
}
);
unicode = 8328;
},
{
glyphname = nineinferior;
layers = (
{
layerId = master01;
shapes = (
{
closed = 1;
nodes = (
(176,52,o),
(167,51,o),
(158,51,cs),
(115,51,o),
(94,89,o),
(94,127,cs),
(94,174,o),
(120,205,o),
(155,205,cs),
(192,205,o),
(225,166,o),
(225,97,cs),
(225,-2,o),
(168,-109,o),
(31,-170,c),
(48,-200,l),
(229,-122,o),
(300,-5,o),
(300,90,cs),
(300,177,o),
(239,244,o),
(153,244,cs),
(63,244,o),
(20,187,o),
(20,130,cs),
(20,73,o),
(62,17,o),
(141,17,cs),
(155,17,o),
(171,20,o),
(189,27,c),
(186,54,l,{
name = hr00;
})
);
}
);
width = 320;
}
);
unicode = 8329;
},
{
glyphname = period;
layers = (
{
layerId = master01;
shapes = (
{
closed = 1;
nodes = (
(111,-9,o),
(135,13,o),
(135,46,cs),
(135,76,o),
(111,98,o),
(82,98,cs),
(53,98,o),
(30,76,o),
(30,46,cs),
(30,13,o),
(53,-9,o),
(82,-9,cs,{
name = hr00;
})
);
}
);
width = 165;
}
);
unicode = 46;
},
{
glyphname = comma;
layers = (
{
layerId = master01;
shapes = (
{
closed = 1;
nodes = (
(84,91,o),
(57,73,o),
(57,41,cs),
(57,13,o),
(78,-8,o),
(104,-8,cs),
(114,-8,o),
(127,-5,o),
(138,7,c),
(138,-53,o),
(90,-98,o),
(30,-125,c),
(39,-147,l),
(145,-113,o),
(185,-48,o),
(185,5,cs),
(185,53,o),
(154,91,o),
(112,91,cs,{
name = hr00;
})
);
}
);
width = 214;
}
);
unicode = 44;
},
{
glyphname = colon;
layers = (
{
layerId = master01;
shapes = (
{
closed = 1;
nodes = (
(142,-9,o),
(166,14,o),
(166,46,cs),
(166,76,o),
(142,99,o),
(113,99,cs),
(84,99,o),
(60,76,o),
(60,46,cs),
(60,14,o),
(84,-9,o),
(113,-9,c,{
name = hr00;
})
);
},
{
closed = 1;
nodes = (
(142,295,o),
(166,318,o),
(166,350,cs),
(166,380,o),
(142,403,o),
(113,403,cs),
(84,403,o),
(60,380,o),
(60,350,cs),
(60,318,o),
(84,295,o),
(113,295,c)
);
}
);
width = 196;
}
);
unicode = 58;
},
{
glyphname = semicolon;
layers = (
{
layerId = master01;
shapes = (
{
closed = 1;
nodes = (
(142,295,o),
(166,318,o),
(166,350,cs),
(166,380,o),
(142,403,o),
(113,403,cs),
(84,403,o),
(60,380,o),
(60,350,cs),
(60,318,o),
(84,295,o),
(113,295,c,{
name = hr00;
})
);
},
{
closed = 1;
nodes = (
(81,91,o),
(54,73,o),
(54,41,cs),
(54,13,o),
(75,-8,o),
(101,-8,cs),
(111,-8,o),
(124,-5,o),
(135,7,c),
(135,-53,o),
(87,-98,o),
(27,-125,c),
(36,-147,l),
(142,-113,o),
(182,-48,o),
(182,5,cs),
(182,53,o),
(151,91,o),
(109,91,cs)
);
}
);
width = 211;
}
);
unicode = 59;
},
{
glyphname = exclam;
layers = (
{
layerId = master01;
shapes = (
{
closed = 1;
nodes = (
(147,-9,o),
(171,14,o),
(171,46,cs),
(171,76,o),
(147,99,o),
(118,99,cs),
(89,99,o),
(65,76,o),
(65,46,cs),
(65,14,o),
(89,-9,o),
(118,-9,c,{
name = hr00;
})
);
},
{
closed = 1;
nodes = (
(66,689,o),
(64,664,o),
(64,664,c),
(101,159,l),
(139,168,l),
(172,691,l)
);
}
);
width = 236;
}
);
unicode = 33;
},
{
glyphname = exclamdown;
layers = (
{
layerId = master01;
shapes = (
{
closed = 1;
nodes = (
(89,461,o),
(65,438,o),
(65,406,cs),
(65,376,o),
(89,353,o),
(118,353,cs),
(147,353,o),
(171,376,o),
(171,406,cs),
(171,438,o),
(147,461,o),
(118,461,cs,{
name = hr00;
})
);
},
{
closed = 1;
nodes = (
(170,-237,o),
(172,-212,o),
(172,-212,c),
(135,293,l),
(97,284,l),
(64,-239,l)
);
}
);
width = 236;
}
);
unicode = 161;
},
{
glyphname = question;
layers = (
{
layerId = master01;
shapes = (
{
closed = 1;
nodes = (
(177,-9,o),
(201,14,o),
(201,46,cs),
(201,76,o),
(177,99,o),
(148,99,cs),
(119,99,o),
(95,76,o),
(95,46,cs),
(95,14,o),
(119,-9,o),
(148,-9,cs,{
name = hr00;
})
);
},
{
closed = 1;
nodes = (
(185,581,o),
(246,545,o),
(246,498,cs),
(246,425,o),
(77,381,o),
(77,299,cs),
(77,265,o),
(89,220,o),
(130,159,c),
(168,168,l),
(155,197,o),
(153,220,o),
(153,243,cs),
(153,350,o),
(293,369,o),
(293,470,cs),
(293,543,o),
(235,621,o),
(72,693,c),
(55,680,o),
(50,661,o),
(50,642,cs),
(50,626,o),
(59,595,o),
(68,584,c)
);
}
);
width = 343;
}
);
unicode = 63;
},
{
glyphname = questiondown;
layers = (
{
layerId = master01;
shapes = (
{
closed = 1;
nodes = (
(166,461,o),
(142,438,o),
(142,406,cs),
(142,376,o),
(166,353,o),
(195,353,cs),
(224,353,o),
(248,376,o),
(248,406,cs),
(248,438,o),
(224,461,o),
(195,461,cs,{
name = hr00;
})
);
},
{
closed = 1;
nodes = (
(158,-129,o),
(97,-93,o),
(97,-46,cs),
(97,27,o),
(266,71,o),
(266,153,cs),
(266,187,o),
(254,232,o),
(213,293,c),
(175,284,l),
(188,255,o),
(190,232,o),
(190,209,cs),
(190,102,o),
(50,83,o),
(50,-18,cs),
(50,-91,o),
(108,-169,o),
(271,-241,c),
(288,-228,o),
(293,-209,o),
(293,-190,cs),
(293,-174,o),
(284,-143,o),
(275,-132,c)
);
}
);
width = 343;
}
);
unicode = 191;
},
{
glyphname = periodcentered;
layers = (
{
layerId = master01;
shapes = (
{
closed = 1;
nodes = (
(111,209,o),
(135,231,o),
(135,264,cs),
(135,294,o),
(111,316,o),
(82,316,cs),
(53,316,o),
(30,294,o),
(30,264,cs),
(30,231,o),
(53,209,o),
(82,209,cs,{
name = hr00;
})
);
}
);
width = 165;
}
);
unicode = 183;
},
{
glyphname = bullet;
layers = (
{
layerId = master01;
shapes = (
{
closed = 1;
nodes = (
(70,285,o),
(128,227,o),
(199,227,cs),
(270,227,o),
(328,285,o),
(328,356,cs),
(328,427,o),
(270,485,o),
(199,485,cs),
(128,485,o),
(70,427,o),
(70,356,c,{
name = hr00;
})
);
}
);
width = 398;
}
);
unicode = 8226;
},
{
glyphname = asterisk;
layers = (
{
layerId = master01;
shapes = (
{
closed = 1;
nodes = (
(340,377,l),
(340,377,o),
(308,434,o),
(255,518,c),
(329,517,o),
(406,505,o),
(406,505,c),
(427,571,l),
(406,599,l),
(406,599,o),
(341,586,o),
(244,561,c),
(267,631,o),
(303,701,o),
(303,701,c),
(248,742,l),
(214,730,l),
(214,730,o),
(207,664,o),
(201,564,c),
(141,608,o),
(86,664,o),
(86,664,c),
(31,623,l),
(30,588,l),
(30,588,o),
(90,561,o),
(183,524,c),
(123,481,o),
(53,446,o),
(53,446,c),
(76,380,l),
(110,370,l),
(110,370,o),
(154,418,o),
(216,494,c),
(239,424,o),
(251,348,o),
(251,348,c),
(321,348,l,{
name = hr00;
})
);
}
);
width = 457;
}
);
unicode = 42;
},
{
glyphname = numbersign;
layers = (
{
layerId = master01;
shapes = (
{
closed = 1;
nodes = (
(105,223,l),
(45,-9,l),
(110,-9,l),
(170,223,l),
(298,223,l),
(238,-9,l),
(303,-9,l),
(363,223,l),
(460,223,l),
(460,284,l),
(378,284,l),
(404,385,l),
(499,385,l),
(499,446,l),
(420,446,l),
(479,674,l),
(414,674,l),
(355,446,l),
(227,446,l),
(286,674,l),
(221,674,l),
(162,446,l),
(65,446,l),
(65,385,l),
(146,385,l),
(120,284,l),
(24,284,l),
(24,223,l,{
name = hr00;
})
);
},
{
closed = 1;
nodes = (
(339,385,l),
(313,284,l),
(185,284,l),
(211,385,l)
);
}
);
width = 523;
}
);
unicode = 35;
},
{
glyphname = slash;
layers = (
{
layerId = master01;
shapes = (
{
closed = 1;
nodes = (
(85,-140,l),
(270,701,l),
(205,701,l),
(20,-140,l,{
name = hr00;
})
);
}
);
width = 290;
}
);
unicode = 47;
},
{
glyphname = backslash;
layers = (
{
layerId = master01;
shapes = (
{
closed = 1;
nodes = (
(20,701,l),
(205,-140,l),
(270,-140,l),
(85,701,l,{
name = hr00;
})
);
}
);
width = 290;
}
);
unicode = 92;
},
{
glyphname = hyphen;
layers = (
{
layerId = master01;
shapes = (
{
closed = 1;
nodes = (
(232,241,o),
(257,241,o),
(257,241,c),
(296,293,l),
(288,308,l,{
name = hr01;
}),
(288,308,o),
(253,295,o),
(154,289,cs,{
name = hr02;
}),
(69,284,o),
(57,284,o),
(57,284,c),
(18,232,l),
(26,216,l,{
name = hr03;
}),
(26,216,o),
(72,230,o),
(148,235,cs)
);
}
);
width = 314;
}
);
unicode = 45;
},
{
glyphname = endash;
layers = (
{
layerId = master01;
shapes = (
{
closed = 1;
nodes = (
(-7,246,l),
(0,230,l),
(93,234,o),
(187,235,o),
(280,235,cs,{
name = hr01;
}),
(361,235,o),
(442,234,o),
(523,231,c),
(567,279,l),
(560,294,l,{
name = hr02;
}),
(467,290,o),
(374,289,o),
(280,289,cs,{
name = hr03;
}),
(199,289,o),
(118,290,o),
(37,294,c)
);
}
);
width = 560;
}
);
unicode = 8211;
},
{
glyphname = emdash;
layers = (
{
layerId = master01;
shapes = (
{
closed = 1;
nodes = (
(-7,246,l),
(0,230,l),
(147,233,o),
(294,233,o),
(440,233,cs,{
name = hr01;
}),
(561,233,o),
(681,233,o),
(801,231,c),
(845,279,l),
(838,294,l,{
name = hr02;
}),
(692,291,o),
(546,288,o),
(399,288,cs,{
name = hr03;
}),
(279,288,o),
(158,291,o),
(37,294,c)
);
}
);
width = 838;
}
);
unicode = 8212;
},
{
glyphname = underscore;
layers = (
{
layerId = master01;
shapes = (
{
closed = 1;
nodes = (
(0,-64,l),
(7,-80,l),
(100,-76,o),
(138,-75,o),
(231,-75,cs,{
name = hr01;
}),
(312,-75,o),
(337,-76,o),
(418,-79,c),
(462,-31,l),
(455,-16,l,{
name = hr02;
}),
(362,-20,o),
(325,-21,o),
(231,-21,cs,{
name = hr03;
}),
(150,-21,o),
(125,-20,o),
(44,-16,c)
);
}
);
width = 462;
}
);
unicode = 95;
},
{
glyphname = parenleft;
layers = (
{
layerId = master01;
shapes = (
{
closed = 1;
nodes = (
(164,419,o),
(211,556,o),
(317,681,c),
(286,709,l),
(119,573,o),
(70,418,o),
(70,291,c),
(70,163,o),
(119,-9,o),
(286,-145,c),
(317,-116,l),
(211,7,o),
(164,161,o),
(164,291,c,{
name = hr00;
})
);
}
);
width = 397;
}
);
unicode = 40;
},
{
glyphname = parenright;
layers = (
{
layerId = master01;
shapes = (
{
closed = 1;
nodes = (
(233,161,o),
(186,7,o),
(80,-116,c),
(111,-145,l),
(278,-9,o),
(327,163,o),
(327,291,c),
(327,418,o),
(278,573,o),
(111,709,c),
(80,681,l),
(186,556,o),
(233,419,o),
(233,291,c,{
name = hr00;
})
);
}
);
width = 397;
}
);
unicode = 41;
},
{
glyphname = braceleft;
layers = (
{
layerId = master01;
shapes = (
{
closed = 1;
nodes = (
(62,263,o),
(129,264,o),
(129,196,cs),
(129,175,o),
(80,-36,o),
(80,-100,cs,{
name = hr01;
}),
(80,-145,o),
(204,-147,o),
(303,-147,c),
(300,-111,l),
(249,-110,o),
(164,-98,o),
(164,-75,cs),
(164,-75,o),
(195,29,o),
(195,126,cs,{
name = hr02;
}),
(195,193,o),
(189,257,o),
(137,280,c),
(189,303,o),
(195,367,o),
(195,435,cs),
(195,531,o),
(164,635,o),
(164,635,c,{
name = hr03;
}),
(164,658,o),
(249,670,o),
(300,671,c),
(303,707,l),
(204,707,o),
(80,705,o),
(80,660,cs),
(80,596,o),
(129,385,o),
(129,364,cs,{
name = hr04;
}),
(129,296,o),
(62,297,o),
(60,297,c),
(60,263,l)
);
}
);
width = 353;
}
);
unicode = 123;
},
{
glyphname = braceright;
layers = (
{
layerId = master01;
shapes = (
{
closed = 1;
nodes = (
(291,297,o),
(224,296,o),
(224,364,cs),
(224,385,o),
(273,596,o),
(273,660,cs,{
name = hr01;
}),
(273,705,o),
(149,707,o),
(50,707,c),
(53,671,l),
(104,670,o),
(189,658,o),
(189,635,cs),
(189,635,o),
(158,531,o),
(158,434,cs,{
name = hr02;
}),
(158,367,o),
(164,303,o),
(216,280,c),
(164,257,o),
(158,193,o),
(158,125,cs),
(158,29,o),
(189,-75,o),
(189,-75,c,{
name = hr03;
}),
(189,-98,o),
(104,-110,o),
(53,-111,c),
(50,-147,l),
(149,-147,o),
(273,-145,o),
(273,-100,cs),
(273,-36,o),
(224,175,o),
(224,196,cs,{
name = hr04;
}),
(224,264,o),
(291,263,o),
(293,263,c),
(293,297,l)
);
}
);
width = 353;
}
);
unicode = 125;
},
{
glyphname = bracketleft;
layers = (
{
layerId = master01;
shapes = (
{
closed = 1;
nodes = (
(124,76,o),
(100,-134,o),
(100,-134,c),
(121,-144,l),
(159,-134,o),
(253,-124,o),
(347,-124,c),
(344,-88,l),
(192,-72,l),
(192,-72,o),
(205,76,o),
(205,291,cs),
(205,506,o),
(192,635,o),
(192,635,c),
(344,651,l),
(347,687,l),
(253,687,o),
(159,697,o),
(121,707,c),
(100,697,l),
(100,697,o),
(124,506,o),
(124,291,cs,{
name = hr00;
})
);
}
);
width = 427;
}
);
unicode = 91;
},
{
glyphname = bracketright;
layers = (
{
layerId = master01;
shapes = (
{
closed = 1;
nodes = (
(303,488,o),
(327,698,o),
(327,698,c),
(306,708,l),
(268,698,o),
(174,688,o),
(80,688,c),
(83,652,l),
(235,636,l),
(235,636,o),
(222,488,o),
(222,273,cs),
(222,58,o),
(235,-71,o),
(235,-71,c),
(83,-87,l),
(80,-123,l),
(174,-123,o),
(268,-133,o),
(306,-143,c),
(327,-133,l),
(327,-133,o),
(303,58,o),
(303,273,cs,{
name = hr00;
})
);
}
);
width = 427;
}
);
unicode = 93;
},
{
glyphname = quotedblleft;
layers = (
{
layerId = master01;
shapes = (
{
closed = 1;
nodes = (
(131,442,o),
(158,460,o),
(158,492,cs),
(158,520,o),
(137,541,o),
(111,541,cs),
(101,541,o),
(88,538,o),
(77,526,c),
(77,586,o),
(125,631,o),
(185,658,c),
(176,680,l),
(70,646,o),
(30,581,o),
(30,528,cs),
(30,480,o),
(61,442,o),
(103,442,cs,{
name = hr00;
})
);
},
{
closed = 1;
nodes = (
(294,442,o),
(321,460,o),
(321,492,cs),
(321,520,o),
(300,541,o),
(274,541,cs),
(264,541,o),
(251,538,o),
(240,526,c),
(240,586,o),
(288,631,o),
(348,658,c),
(339,680,l),
(233,646,o),
(193,581,o),
(193,528,cs),
(193,480,o),
(224,442,o),
(266,442,cs)
);
}
);
width = 378;
}
);
unicode = 8220;
},
{
glyphname = quotedblright;
layers = (
{
layerId = master01;
shapes = (
{
closed = 1;
nodes = (
(247,682,o),
(220,664,o),
(220,632,cs),
(220,604,o),
(241,583,o),
(267,583,cs),
(277,583,o),
(290,586,o),
(301,598,c),
(301,538,o),
(253,493,o),
(193,466,c),
(202,444,l),
(308,478,o),
(348,543,o),
(348,596,cs),
(348,644,o),
(317,682,o),
(275,682,cs,{
name = hr00;
})
);
},
{
closed = 1;
nodes = (
(84,682,o),
(57,664,o),
(57,632,cs),
(57,604,o),
(78,583,o),
(104,583,cs),
(114,583,o),
(127,586,o),
(138,598,c),
(138,538,o),
(90,493,o),
(30,466,c),
(39,444,l),
(145,478,o),
(185,543,o),
(185,596,cs),
(185,644,o),
(154,682,o),
(112,682,cs)
);
}
);
width = 378;
}
);
unicode = 8221;
},
{
glyphname = quoteleft;
layers = (
{
layerId = master01;
shapes = (
{
closed = 1;
nodes = (
(131,442,o),
(158,460,o),
(158,492,cs),
(158,520,o),
(137,541,o),
(111,541,cs),
(101,541,o),
(88,538,o),
(77,526,c),
(77,586,o),
(125,631,o),
(185,658,c),
(176,680,l),
(70,646,o),
(30,581,o),
(30,528,cs),
(30,480,o),
(61,442,o),
(103,442,cs,{
name = hr00;
})
);
}
);
width = 215;
}
);
unicode = 8216;
},
{
glyphname = quoteright;
layers = (
{
layerId = master01;
shapes = (
{
closed = 1;
nodes = (
(84,682,o),
(57,664,o),
(57,632,cs),
(57,604,o),
(78,583,o),
(104,583,cs),
(114,583,o),
(127,586,o),
(138,598,c),
(138,538,o),
(90,493,o),
(30,466,c),
(39,444,l),
(145,478,o),
(185,543,o),
(185,596,cs),
(185,644,o),
(154,682,o),
(112,682,cs,{
name = hr00;
})
);
}
);
width = 215;
}
);
unicode = 8217;
},
{
glyphname = guillemotleft;
layers = (
{
layerId = master01;
shapes = (
{
closed = 1;
nodes = (
(240,238,l),
(238,234,o),
(236,228,o),
(236,223,cs),
(236,218,o),
(238,212,o),
(240,208,c),
(397,57,l),
(417,74,l),
(313,223,l),
(417,372,l),
(397,389,l,{
name = hr00;
})
);
},
{
closed = 1;
nodes = (
(94,238,l),
(92,234,o),
(90,228,o),
(90,223,cs),
(90,218,o),
(92,212,o),
(94,208,c),
(251,57,l),
(271,74,l),
(167,223,l),
(271,372,l),
(251,389,l)
);
}
);
width = 517;
}
);
unicode = 171;
},
{
glyphname = guillemotright;
layers = (
{
layerId = master01;
shapes = (
{
closed = 1;
nodes = (
(204,223,l),
(100,74,l),
(120,57,l),
(277,208,l),
(279,212,o),
(281,218,o),
(281,223,cs),
(281,228,o),
(279,234,o),
(277,238,c),
(120,389,l),
(100,372,l,{
name = hr00;
})
);
},
{
closed = 1;
nodes = (
(350,223,l),
(246,74,l),
(266,57,l),
(423,208,l),
(425,212,o),
(427,218,o),
(427,223,cs),
(427,228,o),
(425,234,o),
(423,238,c),
(266,389,l),
(246,372,l)
);
}
);
width = 517;
}
);
unicode = 187;
},
{
glyphname = guilsinglleft;
layers = (
{
layerId = master01;
shapes = (
{
closed = 1;
nodes = (
(94,238,l),
(92,234,o),
(90,228,o),
(90,223,cs),
(90,218,o),
(92,212,o),
(94,208,c),
(251,57,l),
(271,74,l),
(167,223,l),
(271,372,l),
(251,389,l,{
name = hr00;
})
);
}
);
width = 371;
}
);
unicode = 8249;
},
{
glyphname = guilsinglright;
layers = (
{
layerId = master01;
shapes = (
{
closed = 1;
nodes = (
(204,223,l),
(100,74,l),
(120,57,l),
(277,208,l),
(279,212,o),
(281,218,o),
(281,223,cs),
(281,228,o),
(279,234,o),
(277,238,c),
(120,389,l),
(100,372,l,{
name = hr00;
})
);
}
);
width = 371;
}
);
unicode = 8250;
},
{
glyphname = quotedbl;
layers = (
{
layerId = master01;
shapes = (
{
closed = 1;
nodes = (
(43,683,o),
(36,659,o),
(36,659,c),
(55,438,l),
(96,438,o),
(95,451,o),
(95,451,cs),
(127,683,l,{
name = hr00;
})
);
},
{
closed = 1;
nodes = (
(181,683,o),
(175,659,o),
(175,659,c),
(194,438,l),
(235,438,o),
(234,451,o),
(234,451,c),
(266,683,l)
);
}
);
width = 290;
}
);
unicode = 34;
},
{
glyphname = quotesingle;
layers = (
{
layerId = master01;
shapes = (
{
closed = 1;
nodes = (
(43,683,o),
(36,659,o),
(36,659,c),
(56,438,l),
(97,438,o),
(96,451,o),
(96,451,c),
(128,683,l,{
name = hr00;
})
);
}
);
width = 152;
}
);
unicode = 39;
},
{
glyphname = florin;
layers = (
{
layerId = master01;
shapes = (
{
closed = 1;
nodes = (
(204,509,o),
(196,425,o),
(186,332,c),
(78,332,l),
(72,289,l),
(182,289,l),
(153,12,ls),
(138,-134,o),
(93,-149,o),
(55,-149,cs),
(19,-149,o),
(-10,-140,o),
(-56,-119,c),
(-70,-148,l),
(-25,-184,o),
(22,-210,o),
(96,-210,cs),
(146,-210,o),
(215,-192,o),
(238,39,cs),
(263,289,l),
(404,289,l),
(410,332,l),
(267,332,l),
(285,514,ls),
(291,576,o),
(318,592,o),
(351,592,cs),
(388,592,o),
(431,575,o),
(456,485,c),
(480,496,l),
(474,531,o),
(469,599,o),
(469,633,c,{
name = hr01;
}),
(454,630,o),
(441,628,o),
(430,628,cs),
(401,628,o),
(371,630,o),
(344,630,cs,{
name = hr02;
}),
(273,630,o),
(215,615,o),
(204,509,cs)
);
}
);
width = 523;
}
);
unicode = 402;
},
{
glyphname = at;
layers = (
{
layerId = master01;
shapes = (
{
closed = 1;
nodes = (
(524,-10,o),
(456,-23,o),
(388,-23,cs),
(216,-23,o),
(125,130,o),
(125,283,cs),
(125,452,o),
(234,597,o),
(403,597,cs),
(587,597,o),
(665,475,o),
(665,360,cs),
(665,254,o),
(595,153,o),
(484,153,c),
(484,207,o),
(510,344,o),
(550,472,c),
(535,472,l),
(505,450,l),
(487,457,o),
(460,460,o),
(444,460,cs),
(306,460,o),
(219,343,o),
(219,229,cs),
(219,162,o),
(246,124,o),
(290,124,cs),
(313,124,o),
(356,142,o),
(425,240,c),
(427,240,l),
(421,215,o),
(417,193,o),
(417,175,cs),
(417,142,o),
(431,123,o),
(475,123,cs),
(647,123,o),
(741,250,o),
(741,378,cs),
(741,508,o),
(644,638,o),
(434,638,cs),
(179,638,o),
(40,445,o),
(40,270,cs),
(40,40,o),
(201,-68,o),
(365,-68,cs),
(461,-68,o),
(563,-26,o),
(640,35,c),
(624,58,l)
);
},
{
closed = 1;
nodes = (
(380,218,o),
(344,179,o),
(327,179,cs,{
name = hr01;
}),
(311,179,o),
(302,202,o),
(302,235,cs),
(302,310,o),
(348,434,o),
(447,434,cs),
(456,434,o),
(465,432,o),
(474,429,c),
(438,288,l)
);
}
);
width = 781;
}
);
unicode = 64;
},
{
glyphname = ampersand;
layers = (
{
layerId = master01;
shapes = (
{
closed = 1;
nodes = (
(619,326,o),
(645,343,o),
(705,355,c),
(702,384,l),
(670,380,o),
(629,378,o),
(587,378,cs),
(537,378,o),
(488,380,o),
(449,384,c),
(446,355,l),
(510,343,o),
(532,332,o),
(532,309,cs),
(532,261,o),
(514,211,o),
(486,167,c),
(437,220,o),
(367,307,o),
(313,393,c),
(314,393,o),
(314,394,o),
(315,395,cs),
(378,436,o),
(476,504,o),
(476,587,cs),
(476,673,o),
(393,707,o),
(315,707,cs),
(208,707,o),
(147,637,o),
(147,559,cs),
(147,515,o),
(175,451,o),
(218,379,c),
(219,379,l),
(105,312,o),
(50,248,o),
(50,159,cs),
(50,64,o),
(123,-10,o),
(245,-10,cs),
(311,-10,o),
(386,13,o),
(456,71,c),
(482,42,o),
(511,12,o),
(536,-13,c,{
name = hr01;
}),
(589,1,o),
(739,33,o),
(739,33,c),
(736,62,l),
(613,63,o),
(559,94,o),
(516,135,c),
(552,181,o),
(584,237,o),
(610,303,c)
);
},
{
closed = 1;
nodes = (
(214,46,o),
(143,74,o),
(143,180,cs),
(143,255,o),
(191,306,o),
(241,345,c),
(289,271,o),
(361,180,o),
(428,103,c),
(386,69,o),
(336,46,o),
(284,46,c,{
name = hr02;
})
);
},
{
closed = 1;
nodes = (
(233,640,o),
(268,666,o),
(306,666,cs),
(345,666,o),
(387,638,o),
(387,578,cs),
(387,527,o),
(367,475,o),
(293,423,c),
(257,484,o),
(233,539,o),
(233,578,c)
);
}
);
width = 739;
}
);
unicode = 38;
},
{
glyphname = paragraph;
layers = (
{
layerId = master01;
shapes = (
{
closed = 1;
nodes = (
(283,-229,o),
(428,-127,o),
(428,121,cs),
(428,211,o),
(394,387,o),
(394,471,cs),
(394,528,o),
(416,557,o),
(467,557,c),
(460,594,l),
(226,594,o),
(50,512,o),
(50,350,cs),
(50,235,o),
(132,172,o),
(233,172,cs),
(273,172,o),
(316,183,o),
(358,204,c),
(362,176,o),
(363,150,o),
(363,125,cs),
(363,-46,o),
(309,-116,o),
(234,-116,cs),
(217,-116,o),
(199,-113,o),
(180,-106,c),
(170,-119,o),
(160,-153,o),
(160,-172,cs),
(160,-193,o),
(167,-214,o),
(186,-229,c,{
name = hr00;
})
);
}
);
width = 524;
}
);
unicode = 182;
},
{
glyphname = section;
layers = (
{
layerId = master01;
shapes = (
{
closed = 1;
nodes = (
(203,658,o),
(164,462,o),
(164,266,cs),
(164,35,o),
(164,-31,o),
(72,-79,c),
(80,-80,o),
(88,-81,o),
(96,-81,cs),
(214,-81,o),
(226,37,o),
(226,174,c),
(226,283,l),
(226,444,o),
(250,594,o),
(408,594,cs),
(425,594,o),
(443,591,o),
(461,584,c),
(481,597,o),
(494,626,o),
(494,655,cs),
(494,674,o),
(488,693,o),
(474,707,c,{
name = hr00;
})
);
},
{
closed = 1;
nodes = (
(298,-180,o),
(337,16,o),
(337,212,cs),
(337,443,o),
(337,509,o),
(429,557,c),
(421,558,o),
(413,559,o),
(405,559,cs),
(287,559,o),
(275,441,o),
(275,304,cs),
(275,195,ls),
(275,34,o),
(251,-116,o),
(93,-116,cs),
(76,-116,o),
(58,-113,o),
(40,-106,c),
(20,-119,o),
(7,-148,o),
(7,-177,cs),
(7,-196,o),
(13,-215,o),
(27,-229,c)
);
}
);
width = 501;
}
);
unicode = 167;
},
{
glyphname = copyright;
layers = (
{
layerId = master01;
shapes = (
{
closed = 1;
nodes = (
(217,339,o),
(186,416,o),
(186,487,cs),
(186,583,o),
(242,627,o),
(299,627,cs),
(340,627,o),
(381,611,o),
(396,561,c),
(417,570,l),
(414,587,o),
(412,619,o),
(412,649,c),
(402,645,o),
(391,644,o),
(381,644,cs),
(356,644,o),
(328,651,o),
(306,651,cs),
(177,651,o),
(126,560,o),
(126,469,cs),
(126,360,o),
(204,312,o),
(300,312,cs),
(337,312,o),
(379,321,o),
(420,336,c),
(422,358,o),
(425,380,o),
(431,399,c),
(409,408,l),
(396,367,o),
(359,339,o),
(302,339,c,{
name = hr00;
})
);
},
{
closed = 1;
nodes = (
(55,613,o),
(165,723,o),
(299,723,cs),
(434,723,o),
(543,613,o),
(543,479,cs),
(543,344,o),
(434,235,o),
(299,235,cs),
(165,235,o),
(55,344,o),
(55,479,c)
);
},
{
closed = 1;
nodes = (
(18,323,o),
(144,197,o),
(299,197,cs),
(455,197,o),
(581,323,o),
(581,479,cs),
(581,634,o),
(455,760,o),
(299,760,cs),
(144,760,o),
(18,634,o),
(18,479,c)
);
}
);
width = 600;
}
);
unicode = 169;
},
{
glyphname = registered;
layers = (
{
layerId = master01;
shapes = (
{
closed = 1;
nodes = (
(304,491,o),
(272,491,o),
(252,491,c),
(252,588,o),
(258,615,o),
(258,615,c),
(260,623,o),
(263,624,o),
(281,624,cs),
(331,624,o),
(355,605,o),
(355,569,cs),
(355,535,o),
(341,509,o),
(319,496,c,{
name = hr00;
})
);
},
{
closed = 1;
nodes = (
(258,352,o),
(252,371,o),
(252,472,c),
(268,472,o),
(280,472,o),
(294,473,c),
(377,313,l),
(377,313,o),
(431,316,o),
(462,316,c),
(463,332,l),
(447,334,o),
(430,338,o),
(424,341,c),
(394,388,o),
(370,434,o),
(341,483,c),
(383,501,o),
(407,537,o),
(407,572,cs),
(407,611,o),
(376,647,o),
(309,647,cs),
(227,647,ls),
(204,647,o),
(178,647,o),
(157,648,c),
(156,632,l),
(185,627,o),
(194,624,o),
(196,613,c),
(196,613,o),
(200,584,o),
(200,483,cs),
(200,381,o),
(196,352,o),
(196,352,c),
(194,341,o),
(182,338,o),
(152,332,c),
(154,316,l),
(175,317,o),
(204,318,o),
(227,318,cs),
(252,318,o),
(277,317,o),
(298,316,c),
(299,332,l),
(269,338,o),
(259,341,o),
(258,352,c)
);
},
{
closed = 1;
nodes = (
(55,613,o),
(165,723,o),
(299,723,cs),
(434,723,o),
(543,613,o),
(543,479,cs),
(543,344,o),
(434,235,o),
(299,235,cs),
(165,235,o),
(55,344,o),
(55,479,c)
);
},
{
closed = 1;
nodes = (
(18,323,o),
(144,197,o),
(299,197,cs),
(455,197,o),
(581,323,o),
(581,479,cs),
(581,634,o),
(455,760,o),
(299,760,cs),
(144,760,o),
(18,634,o),
(18,479,c)
);
}
);
width = 600;
}
);
unicode = 174;
},
{
glyphname = trademark;
layers = (
{
layerId = master01;
shapes = (
{
closed = 1;
nodes = (
(720,493,o),
(721,387,o),
(721,371,cs),
(721,346,o),
(715,341,o),
(675,334,c),
(677,317,l),
(699,318,o),
(724,318,o),
(749,318,cs),
(774,318,o),
(799,318,o),
(821,317,c),
(822,334,l),
(794,339,o),
(781,343,o),
(779,354,c),
(774,397,o),
(771,435,o),
(771,497,cs),
(771,528,o),
(771,575,o),
(773,611,cs),
(774,621,o),
(783,624,o),
(812,630,c),
(810,647,l),
(790,646,o),
(737,645,o),
(713,645,c),
(607,384,l),
(503,645,l),
(480,645,o),
(426,646,o),
(406,647,c),
(405,630,l),
(441,622,o),
(446,621,o),
(446,593,cs),
(446,552,o),
(443,391,o),
(436,353,cs),
(434,342,o),
(424,339,o),
(395,334,c),
(397,317,l),
(413,318,o),
(432,318,o),
(452,318,cs),
(479,318,o),
(508,318,o),
(529,317,c),
(531,334,l),
(491,341,o),
(481,352,o),
(481,366,cs),
(481,407,o),
(482,502,o),
(483,553,c),
(487,553,l),
(585,313,l),
(618,320,l),
(712,553,l),
(716,553,l)
);
},
{
closed = 1;
nodes = (
(344,621,o),
(359,619,o),
(375,566,c),
(393,570,l),
(390,586,o),
(387,621,o),
(387,642,cs),
(387,649,l,{
name = hr01;
}),
(348,646,o),
(309,645,o),
(247,645,cs,{
name = hr02;
}),
(184,645,o),
(145,646,o),
(106,649,c,{
name = hr03;
}),
(106,642,ls),
(106,621,o),
(103,586,o),
(100,570,c),
(118,566,l),
(134,619,o),
(149,621,o),
(196,621,cs,{
name = hr04;
}),
(206,621,ls),
(210,621,o),
(213,620,o),
(214,611,c),
(214,611,o),
(218,583,o),
(218,482,cs),
(218,381,o),
(214,353,o),
(214,353,c),
(213,342,o),
(201,339,o),
(172,334,c),
(174,317,l),
(196,318,o),
(221,318,o),
(247,318,cs),
(272,318,o),
(297,318,o),
(318,317,c),
(319,334,l),
(291,339,o),
(280,342,o),
(279,353,c),
(279,353,o),
(275,381,o),
(275,482,cs),
(275,583,o),
(279,611,o),
(279,611,c),
(280,620,o),
(283,621,o),
(287,621,cs),
(297,621,l)
);
}
);
width = 852;
}
);
unicode = 8482;
},
{
glyphname = degree;
layers = (
{
layerId = master01;
shapes = (
{
closed = 1;
nodes = (
(10,482,o),
(68,424,o),
(140,424,cs),
(212,424,o),
(271,482,o),
(271,554,cs),
(271,626,o),
(212,685,o),
(140,685,cs),
(68,685,o),
(10,626,o),
(10,554,c,{
name = hr00;
})
);
},
{
closed = 1;
nodes = (
(52,603,o),
(91,644,o),
(140,644,cs),
(189,644,o),
(230,603,o),
(230,554,cs),
(230,505,o),
(189,466,o),
(140,466,cs),
(91,466,o),
(52,505,o),
(52,554,c)
);
}
);
width = 281;
}
);
unicode = 176;
},
{
glyphname = bar;
layers = (
{
layerId = master01;
shapes = (
{
closed = 1;
nodes = (
(177,-140,l),
(177,701,l),
(112,701,l),
(112,-140,l,{
name = hr00;
})
);
}
);
width = 289;
}
);
unicode = 124;
},
{
glyphname = brokenbar;
layers = (
{
layerId = master01;
shapes = (
{
closed = 1;
nodes = (
(177,-140,l),
(177,195,l),
(112,195,l),
(112,-140,l,{
name = hr00;
})
);
},
{
closed = 1;
nodes = (
(177,366,l),
(177,701,l),
(112,701,l),
(112,366,l)
);
}
);
width = 289;
}
);
unicode = 166;
},
{
glyphname = dagger;
layers = (
{
layerId = master01;
shapes = (
{
closed = 1;
nodes = (
(158,612,o),
(165,557,o),
(170,504,c),
(94,506,o),
(43,514,o),
(43,514,c),
(0,453,l),
(7,435,l),
(7,435,o),
(77,448,o),
(175,450,c),
(185,292,o),
(175,157,o),
(161,0,c),
(209,-9,l),
(257,0,l),
(243,157,o),
(232,292,o),
(243,450,c),
(322,448,o),
(372,441,o),
(372,441,c),
(416,502,l),
(408,520,l),
(408,520,o),
(343,507,o),
(247,504,c),
(252,557,o),
(259,612,o),
(270,672,c),
(148,672,l,{
name = hr00;
})
);
}
);
width = 418;
}
);
unicode = 8224;
},
{
glyphname = uni2113;
layers = (
{
layerId = master01;
shapes = (
{
closed = 1;
nodes = (
(110,-63,o),
(275,-40,o),
(376,106,c),
(351,132,l),
(246,29,o),
(197,34,o),
(197,107,c),
(197,563,l),
(187,602,l),
(108,560,l),
(110,79,l,{
name = hr00;
})
);
},
{
closed = 1;
nodes = (
(412,377,o),
(418,685,o),
(229,685,cs),
(151,685,o),
(108,629,o),
(108,560,c),
(108,560,o),
(197,563,o),
(197,563,c),
(197,605,o),
(206,640,o),
(242,640,cs),
(320,640,o),
(321,363,o),
(23,202,c),
(41,168,l)
);
}
);
width = 403;
}
);
unicode = 8467;
},
{
glyphname = daggerdbl;
layers = (
{
layerId = master01;
shapes = (
{
closed = 1;
nodes = (
(258,-144,o),
(251,-89,o),
(246,-36,c),
(322,-38,o),
(373,-46,o),
(373,-46,c),
(416,15,l),
(409,33,l),
(409,33,o),
(346,21,o),
(255,18,c),
(248,100,o),
(242,157,o),
(239,234,c),
(242,298,o),
(247,382,o),
(253,450,c),
(326,447,o),
(372,441,o),
(372,441,c),
(416,502,l),
(408,520,l),
(408,520,o),
(343,507,o),
(247,504,c),
(252,557,o),
(259,612,o),
(270,672,c),
(148,672,l),
(158,612,o),
(165,557,o),
(170,504,c),
(94,506,o),
(43,514,o),
(43,514,c),
(0,453,l),
(7,435,l),
(7,435,o),
(70,447,o),
(160,450,c),
(167,368,o),
(174,311,o),
(176,234,c),
(173,170,o),
(168,86,o),
(162,18,c),
(89,20,o),
(44,27,o),
(44,27,c),
(0,-34,l),
(8,-52,l),
(8,-52,o),
(73,-39,o),
(169,-36,c),
(164,-89,o),
(157,-144,o),
(146,-204,c),
(268,-204,l,{
name = hr00;
})
);
}
);
width = 418;
}
);
unicode = 8225;
},
{
glyphname = estimated;
layers = (
{
layerId = master01;
shapes = (
{
closed = 1;
nodes = (
(755,311,ls),
(755,490,o),
(594,635,o),
(395,635,cs),
(196,635,o),
(35,490,o),
(35,311,cs),
(35,132,o),
(196,-13,o),
(395,-13,cs),
(511,-13,o),
(615,37,o),
(680,113,c),
(628,113,l),
(571,48,o),
(489,6,o),
(396,6,cs),
(309,6,o),
(231,43,o),
(175,102,cs),
(170,107,o),
(167,114,o),
(167,122,cs),
(167,298,ls),
(167,301,o),
(169,302,o),
(172,302,cs),
(755,302,l,{
name = hr00;
})
);
},
{
closed = 1;
nodes = (
(623,323,o),
(622,320,o),
(619,320,cs),
(172,320,ls),
(169,320,o),
(167,323,o),
(167,325,cs),
(167,499,ls),
(167,508,o),
(170,515,o),
(176,521,cs),
(232,579,o),
(310,616,o),
(396,616,cs),
(481,616,o),
(558,580,o),
(614,524,cs),
(620,518,o),
(623,511,o),
(623,503,cs),
(623,325,ls)
);
}
);
width = 788;
}
);
unicode = 8494;
},
{
glyphname = Euro;
layers = (
{
layerId = master01;
shapes = (
{
closed = 1;
nodes = (
(184,641,o),
(107,519,o),
(84,379,c),
(37,379,l),
(31,336,l),
(80,336,l),
(79,321,o),
(78,306,o),
(78,291,cs),
(78,284,l),
(37,284,l),
(31,241,l),
(81,241,l),
(97,90,o),
(187,-9,o),
(316,-9,cs),
(390,-9,o),
(446,17,o),
(491,53,c),
(477,82,l),
(431,61,o),
(388,52,o),
(352,52,cs),
(248,52,o),
(194,112,o),
(186,241,c),
(369,241,l),
(375,284,l),
(185,284,l),
(185,302,o),
(185,319,o),
(186,336,c),
(369,336,l),
(375,379,l),
(188,379,l),
(199,512,o),
(237,597,o),
(328,597,cs),
(393,597,o),
(435,575,o),
(460,485,c),
(484,496,l),
(479,526,o),
(473,584,o),
(473,620,cs),
(473,633,l),
(458,630,o),
(445,628,o),
(434,628,cs),
(398,628,o),
(376,641,o),
(327,641,cs)
);
}
);
width = 523;
}
);
unicode = 8364;
},
{
glyphname = cent;
layers = (
{
layerId = master01;
shapes = (
{
closed = 1;
nodes = (
(123,540,o),
(53,422,o),
(53,308,cs),
(53,213,o),
(101,122,o),
(200,94,c),
(187,-9,l),
(232,-9,l),
(244,87,l),
(251,86,o),
(258,86,o),
(265,86,cs),
(339,86,o),
(395,112,o),
(440,148,c),
(426,177,l),
(380,156,o),
(337,147,o),
(301,147,cs),
(283,147,o),
(267,149,o),
(252,153,c),
(296,509,l),
(345,505,o),
(391,480,o),
(414,398,c),
(438,409,l),
(433,439,o),
(427,497,o),
(427,533,cs),
(427,546,l),
(412,543,o),
(399,541,o),
(388,541,cs),
(357,541,o),
(337,550,o),
(302,553,c),
(313,641,l),
(268,641,l),
(257,553,l,{
name = hr00;
})
);
},
{
closed = 1;
nodes = (
(139,407,o),
(166,491,o),
(251,507,c),
(209,172,l),
(160,206,o),
(139,267,o),
(139,328,c)
);
}
);
width = 523;
}
);
unicode = 162;
},
{
glyphname = currency;
layers = (
{
layerId = master01;
shapes = (
{
closed = 1;
nodes = (
(89,97,l),
(151,177,l),
(182,154,o),
(219,141,o),
(261,141,cs),
(301,141,o),
(338,154,o),
(370,177,c),
(436,95,l),
(487,151,l),
(407,213,l),
(428,244,o),
(443,281,o),
(443,323,cs),
(443,363,o),
(428,400,o),
(407,431,c),
(489,496,l),
(434,549,l),
(370,468,l),
(338,490,o),
(301,504,o),
(261,504,cs),
(219,504,o),
(183,490,o),
(152,468,c),
(86,551,l),
(35,495,l),
(115,432,l),
(92,400,o),
(79,363,o),
(79,323,cs),
(79,281,o),
(92,244,o),
(115,213,c),
(33,148,l,{
name = hr00;
})
);
},
{
closed = 1;
nodes = (
(146,387,o),
(195,438,o),
(261,438,cs),
(327,438,o),
(376,387,o),
(376,323,cs),
(376,257,o),
(327,207,o),
(261,207,cs),
(195,207,o),
(146,257,o),
(146,323,c)
);
}
);
width = 523;
}
);
unicode = 164;
},
{
glyphname = dollar;
layers = (
{
layerId = master01;
shapes = (
{
closed = 1;
nodes = (
(265,641,ls),
(159,641,o),
(87,581,o),
(87,487,cs),
(87,406,o),
(120,373,o),
(190,323,cs),
(203,313,o),
(216,304,o),
(230,294,c),
(199,44,l),
(149,57,o),
(126,97,o),
(112,181,c),
(88,170,l),
(88,164,o),
(89,158,o),
(89,152,cs),
(89,114,o),
(80,52,o),
(74,25,c),
(107,12,o),
(150,1,o),
(193,-4,c),
(179,-121,l),
(224,-121,l),
(238,-9,l),
(256,-9,ls),
(374,-9,o),
(453,58,o),
(453,166,cs),
(453,236,o),
(418,283,o),
(343,335,cs),
(325,347,o),
(305,360,o),
(285,374,c),
(312,591,l),
(352,580,o),
(379,550,o),
(398,481,c),
(422,493,l),
(417,526,o),
(411,584,o),
(411,620,cs),
(411,633,l),
(396,630,o),
(383,628,o),
(372,628,cs),
(352,628,o),
(336,632,o),
(318,635,c),
(334,762,l),
(289,762,l),
(274,641,l,{
name = hr00;
})
);
},
{
closed = 1;
nodes = (
(272,265,l),
(278,260,o),
(284,255,o),
(291,251,c),
(326,224,o),
(355,201,o),
(355,139,cs),
(355,76,o),
(322,39,o),
(245,39,c),
(244,39,l)
);
},
{
closed = 1;
nodes = (
(172,558,o),
(210,597,o),
(266,597,cs),
(268,597,l),
(244,402,l),
(208,428,o),
(172,459,o),
(172,519,c)
);
}
);
width = 523;
}
);
unicode = 36;
},
{
glyphname = franc;
layers = (
{
layerId = master01;
shapes = (
{
closed = 1;
nodes = (
(279,327,o),
(359,325,o),
(384,319,cs),
(406,315,o),
(411,305,o),
(422,260,c),
(457,265,l),
(455,292,o),
(454,320,o),
(454,348,cs),
(454,377,o),
(455,406,o),
(458,434,c),
(423,438,l),
(411,390,o),
(407,379,o),
(384,375,cs),
(359,369,o),
(279,367,o),
(216,367,c),
(217,558,o),
(225,621,o),
(225,621,c),
(227,643,o),
(258,643,o),
(306,643,cs),
(435,643,o),
(469,630,o),
(504,517,c),
(531,529,l),
(525,563,o),
(519,634,o),
(519,676,cs),
(519,691,l,{
name = hr01;
}),
(437,685,o),
(268,685,o),
(139,685,cs,{
name = hr02;
}),
(89,685,o),
(81,686,o),
(39,688,c),
(36,659,l),
(96,647,o),
(115,641,o),
(118,616,c),
(118,616,o),
(126,557,o),
(126,342,cs),
(126,128,o),
(118,69,o),
(118,69,c),
(115,44,o),
(89,38,o),
(29,26,c),
(32,-3,l),
(74,-1,o),
(123,0,o),
(173,0,cs,{
name = hr03;
}),
(223,0,o),
(264,-1,o),
(306,-3,c,{
name = hr04;
}),
(309,26,l),
(249,38,o),
(227,44,o),
(224,69,c),
(224,69,o),
(216,126,o),
(216,327,c)
);
},
{
closed = 1;
nodes = (
(366,194,l),
(46,194,l),
(40,151,l),
(360,151,l)
);
}
);
width = 554;
}
);
unicode = 8355;
},
{
glyphname = lira;
layers = (
{
layerId = master01;
shapes = (
{
closed = 1;
nodes = (
(210,378,o),
(207,414,o),
(207,447,cs),
(207,529,o),
(218,597,o),
(297,597,cs),
(362,597,o),
(404,575,o),
(429,485,c),
(453,496,l),
(447,531,o),
(442,599,o),
(442,633,c),
(427,630,o),
(414,628,o),
(403,628,cs),
(367,628,o),
(345,641,o),
(296,641,cs,{
name = hr01;
}),
(191,641,o),
(119,600,o),
(119,490,cs),
(119,457,o),
(134,401,o),
(134,332,cs,{
name = hr02;
}),
(134,214,o),
(113,117,o),
(76,54,c),
(31,24,l),
(46,0,l),
(448,0,l),
(450,32,o),
(459,109,o),
(469,140,c),
(446,151,l),
(417,75,o),
(372,42,o),
(251,42,cs),
(217,42,o),
(176,45,o),
(128,50,c),
(179,99,o),
(210,223,o),
(210,332,cs)
);
},
{
closed = 1;
nodes = (
(40,336,l),
(360,336,l),
(366,379,l),
(46,379,l)
);
},
{
closed = 1;
nodes = (
(366,284,l),
(46,284,l),
(40,241,l),
(360,241,l)
);
}
);
width = 523;
}
);
unicode = 8356;
},
{
glyphname = sterling;
layers = (
{
layerId = master01;
shapes = (
{
closed = 1;
nodes = (
(179,99,o),
(202,196,o),
(208,289,c),
(360,289,l),
(366,332,l),
(210,332,l),
(210,341,ls),
(210,378,o),
(207,414,o),
(207,447,cs),
(207,529,o),
(218,597,o),
(297,597,cs),
(362,597,o),
(404,575,o),
(429,485,c),
(453,496,l),
(447,531,o),
(442,599,o),
(442,633,c),
(427,630,o),
(414,628,o),
(403,628,cs),
(367,628,o),
(345,641,o),
(296,641,cs,{
name = hr01;
}),
(191,641,o),
(119,600,o),
(119,490,cs),
(119,457,o),
(132,401,o),
(134,332,c,{
name = hr02;
}),
(46,332,l),
(40,289,l),
(134,289,l),
(131,221,o),
(113,117,o),
(76,54,c),
(31,24,l),
(46,0,l),
(448,0,l),
(450,32,o),
(459,109,o),
(469,140,c),
(446,151,l),
(417,75,o),
(372,42,o),
(251,42,cs),
(217,42,o),
(176,45,o),
(128,50,c)
);
}
);
width = 523;
}
);
unicode = 163;
},
{
glyphname = yen;
layers = (
{
layerId = master01;
shapes = (
{
closed = 1;
nodes = (
(162,600,o),
(178,606,o),
(209,612,c),
(206,641,l),
(189,640,o),
(157,638,o),
(113,638,cs),
(89,638,o),
(57,639,o),
(25,641,c),
(22,612,l),
(55,605,o),
(77,596,o),
(87,570,cs),
(163,379,l),
(60,379,l),
(54,336,l),
(180,336,l),
(201,284,l),
(60,284,l),
(54,241,l),
(217,241,l),
(216,109,o),
(213,69,o),
(213,69,c),
(210,44,o),
(184,38,o),
(124,26,c),
(127,-3,l),
(169,-1,o),
(215,0,o),
(265,0,cs,{
name = hr01;
}),
(315,0,o),
(353,-1,o),
(395,-3,c,{
name = hr02;
}),
(398,26,l),
(338,38,o),
(316,44,o),
(313,69,c),
(313,69,o),
(309,111,o),
(308,241,c),
(465,241,l),
(471,284,l),
(320,284,l),
(343,336,l),
(465,336,l),
(471,379,l),
(363,379,l),
(448,569,ls),
(461,597,o),
(473,606,o),
(506,612,c),
(503,641,l),
(469,639,o),
(445,638,o),
(426,638,cs),
(396,638,o),
(378,640,o),
(352,641,c),
(349,612,l),
(383,602,o),
(395,594,o),
(395,580,cs),
(395,577,o),
(395,573,o),
(393,569,cs),
(271,295,l),
(218,426,o),
(162,579,o),
(162,584,cs)
);
}
);
width = 523;
}
);
unicode = 165;
},
{
glyphname = plus;
layers = (
{
layerId = master01;
shapes = (
{
closed = 1;
nodes = (
(231,334,l),
(24,334,l),
(24,273,l),
(231,273,l),
(231,66,l),
(292,66,l),
(292,273,l),
(499,273,l),
(499,334,l),
(292,334,l),
(292,541,l),
(231,541,l,{
name = hr00;
})
);
}
);
width = 523;
}
);
unicode = 43;
},
{
glyphname = minus;
layers = (
{
layerId = master01;
shapes = (
{
closed = 1;
nodes = (
(499,273,l),
(499,334,l),
(24,334,l),
(24,273,l,{
name = hr00;
})
);
}
);
width = 523;
}
);
unicode = 8722;
},
{
glyphname = multiply;
layers = (
{
layerId = master01;
shapes = (
{
closed = 1;
nodes = (
(261,347,l),
(80,529,l),
(37,485,l),
(218,304,l),
(37,123,l),
(81,80,l),
(261,260,l),
(443,79,l),
(486,123,l),
(305,304,l),
(487,486,l),
(443,529,l,{
name = hr00;
})
);
}
);
width = 523;
}
);
unicode = 215;
},
{
glyphname = divide;
layers = (
{
layerId = master01;
shapes = (
{
closed = 1;
nodes = (
(499,273,l),
(499,334,l),
(24,334,l),
(24,273,l,{
name = hr00;
})
);
},
{
closed = 1;
nodes = (
(290,398,o),
(314,420,o),
(314,453,cs),
(314,483,o),
(290,505,o),
(261,505,cs),
(232,505,o),
(209,483,o),
(209,453,cs),
(209,420,o),
(232,398,o),
(261,398,cs)
);
},
{
closed = 1;
nodes = (
(290,101,o),
(314,123,o),
(314,156,cs),
(314,186,o),
(290,208,o),
(261,208,cs),
(232,208,o),
(209,186,o),
(209,156,cs),
(209,123,o),
(232,101,o),
(261,101,cs)
);
}
);
width = 523;
}
);
unicode = 247;
},
{
glyphname = equal;
layers = (
{
layerId = master01;
shapes = (
{
closed = 1;
nodes = (
(499,354,l),
(499,415,l),
(24,415,l),
(24,354,l,{
name = hr00;
})
);
},
{
closed = 1;
nodes = (
(499,192,l),
(499,253,l),
(24,253,l),
(24,192,l)
);
}
);
width = 523;
}
);
unicode = 61;
},
{
glyphname = notequal;
layers = (
{
layerId = master01;
shapes = (
{
closed = 1;
nodes = (
(159,192,l),
(45,-9,l),
(110,-9,l),
(224,192,l),
(499,192,l),
(499,253,l),
(259,253,l),
(317,354,l),
(499,354,l),
(499,415,l),
(352,415,l),
(479,638,l),
(414,638,l),
(287,415,l),
(24,415,l),
(24,354,l),
(252,354,l),
(194,253,l),
(24,253,l),
(24,192,l,{
name = hr00;
})
);
}
);
width = 523;
}
);
unicode = 8800;
},
{
glyphname = greater;
layers = (
{
layerId = master01;
shapes = (
{
closed = 1;
nodes = (
(37,550,l),
(37,481,l),
(373,303,l),
(37,125,l),
(37,56,l),
(487,303,l,{
name = hr00;
})
);
}
);
width = 523;
}
);
unicode = 62;
},
{
glyphname = less;
layers = (
{
layerId = master01;
shapes = (
{
closed = 1;
nodes = (
(487,125,l),
(151,303,l),
(487,481,l),
(487,550,l),
(37,303,l),
(487,56,l,{
name = hr00;
})
);
}
);
width = 523;
}
);
unicode = 60;
},
{
glyphname = greaterequal;
layers = (
{
layerId = master01;
shapes = (
{
closed = 1;
nodes = (
(35,550,l),
(35,481,l),
(371,303,l),
(35,125,l),
(35,56,l),
(485,303,l,{
name = hr00;
})
);
},
{
closed = 1;
nodes = (
(35,1,l),
(35,-60,l),
(488,-60,l),
(488,1,l)
);
}
);
width = 523;
}
);
unicode = 8805;
},
{
glyphname = lessequal;
layers = (
{
layerId = master01;
shapes = (
{
closed = 1;
nodes = (
(487,125,l),
(151,303,l),
(487,481,l),
(487,550,l),
(37,303,l),
(487,56,l,{
name = hr00;
})
);
},
{
closed = 1;
nodes = (
(487,-60,l),
(487,1,l),
(34,1,l),
(34,-60,l)
);
}
);
width = 523;
}
);
unicode = 8804;
},
{
glyphname = plusminus;
layers = (
{
layerId = master01;
shapes = (
{
closed = 1;
nodes = (
(231,334,l),
(24,334,l),
(24,273,l),
(231,273,l),
(231,66,l),
(292,66,l),
(292,273,l),
(499,273,l),
(499,334,l),
(292,334,l),
(292,541,l),
(231,541,l,{
name = hr00;
})
);
},
{
closed = 1;
nodes = (
(499,-60,l),
(499,1,l),
(24,1,l),
(24,-60,l)
);
}
);
width = 523;
}
);
unicode = 177;
},
{
glyphname = approxequal;
layers = (
{
layerId = master01;
shapes = (
{
closed = 1;
nodes = (
(261,511,o),
(261,321,o),
(24,415,c),
(24,354,l),
(261,260,o),
(261,450,o),
(499,354,c),
(499,415,l)
);
},
{
closed = 1;
nodes = (
(261,349,o),
(261,159,o),
(24,253,c),
(24,192,l),
(261,98,o),
(261,288,o),
(499,192,c),
(499,253,l)
);
}
);
width = 523;
}
);
unicode = 8776;
},
{
glyphname = asciitilde;
layers = (
{
layerId = master01;
shapes = (
{
closed = 1;
nodes = (
(448,318,o),
(421,302,o),
(382,302,cs),
(302,302,o),
(223,367,o),
(143,367,cs),
(103,367,o),
(65,351,o),
(25,305,c),
(56,274,l),
(75,290,o),
(103,306,o),
(142,306,cs),
(222,306,o),
(301,241,o),
(381,241,cs),
(421,241,o),
(459,257,o),
(499,303,c),
(468,334,l,{
name = hr00;
})
);
}
);
width = 523;
}
);
unicode = 126;
},
{
glyphname = logicalnot;
layers = (
{
layerId = master01;
shapes = (
{
closed = 1;
nodes = (
(438,273,l),
(438,66,l),
(499,66,l),
(499,334,l),
(24,334,l),
(24,273,l,{
name = hr00;
})
);
}
);
width = 523;
}
);
unicode = 172;
},
{
glyphname = asciicircum;
layers = (
{
layerId = master01;
shapes = (
{
closed = 1;
nodes = (
(36,265,l),
(105,265,l),
(261,601,l),
(417,265,l),
(486,265,l),
(286,664,l),
(235,664,l,{
name = hr00;
})
);
}
);
width = 523;
}
);
unicode = 94;
},
{
glyphname = infinity;
layers = (
{
layerId = master01;
shapes = (
{
closed = 1;
nodes = (
(523,255,o),
(479,224,o),
(433,224,cs),
(389,224,o),
(348,254,o),
(329,312,c),
(348,370,o),
(389,401,o),
(433,401,cs),
(479,401,o),
(523,369,o),
(523,312,c,{
name = hr00;
})
);
},
{
closed = 1;
nodes = (
(269,431,o),
(216,459,o),
(163,459,cs),
(91,459,o),
(16,406,o),
(16,312,cs),
(16,218,o),
(91,165,o),
(163,165,cs),
(216,165,o),
(269,193,o),
(300,252,c),
(331,193,o),
(384,165,o),
(437,165,cs),
(509,165,o),
(584,218,o),
(584,312,cs),
(584,406,o),
(509,459,o),
(437,459,c),
(384,459,o),
(331,431,o),
(300,372,c)
);
},
{
closed = 1;
nodes = (
(77,369,o),
(121,401,o),
(167,401,cs),
(211,401,o),
(252,370,o),
(271,312,c),
(252,254,o),
(211,224,o),
(167,224,cs),
(121,224,o),
(77,255,o),
(77,312,cs)
);
}
);
width = 600;
}
);
unicode = 8734;
},
{
glyphname = integral;
layers = (
{
layerId = master01;
shapes = (
{
closed = 1;
nodes = (
(102,-113,o),
(72,-141,o),
(12,-141,cs),
(-15,-141,o),
(-41,-130,o),
(-54,-122,c),
(-66,-141,l),
(-59,-174,o),
(-34,-211,o),
(-27,-211,c),
(102,-211,o),
(180,-76,o),
(180,68,c),
(180,417,l),
(180,593,o),
(210,621,o),
(270,621,c),
(297,621,o),
(323,610,o),
(336,602,c),
(348,621,l),
(341,654,o),
(316,691,o),
(309,691,c),
(180,691,o),
(102,556,o),
(102,412,c),
(102,63,l,{
name = hr00;
})
);
}
);
width = 282;
}
);
unicode = 8747;
},
{
glyphname = Omega;
layers = (
{
layerId = master01;
shapes = (
{
closed = 1;
nodes = (
(216,138,o),
(176,271,o),
(176,372,cs),
(176,520,o),
(280,638,o),
(408,638,cs),
(536,638,o),
(640,520,o),
(640,372,cs),
(640,271,o),
(600,138,o),
(522,89,c),
(546,0,l),
(772,0,l),
(774,36,o),
(784,123,o),
(796,159,c),
(769,171,l),
(745,97,o),
(711,51,o),
(636,51,cs),
(621,51,o),
(605,53,o),
(586,57,c),
(581,75,l),
(683,135,o),
(748,240,o),
(748,360,cs),
(748,543,o),
(596,691,o),
(408,691,cs),
(220,691,o),
(68,543,o),
(68,360,cs),
(68,240,o),
(133,135,o),
(235,75,c),
(230,57,l),
(211,53,o),
(195,51,o),
(180,51,cs),
(105,51,o),
(71,97,o),
(47,171,c),
(20,159,l),
(32,123,o),
(42,36,o),
(44,0,c),
(270,0,l),
(294,89,l,{
name = hr00;
})
);
}
);
width = 816;
}
);
unicode = 8486;
},
{
glyphname = Delta;
layers = (
{
layerId = master01;
shapes = (
{
closed = 1;
nodes = (
(0,0,l),
(615,0,l),
(332,691,l),
(321,691,l,{
name = hr00;
})
);
},
{
closed = 1;
nodes = (
(67,50,l),
(290,528,l),
(488,50,l)
);
}
);
width = 615;
}
);
unicode = 8710;
},
{
glyphname = product;
layers = (
{
layerId = master01;
shapes = (
{
closed = 1;
nodes = (
(580,620,o),
(588,443,o),
(588,258,c),
(588,52,o),
(580,-134,o),
(580,-134,c),
(577,-159,o),
(551,-165,o),
(491,-177,c),
(494,-206,l),
(536,-204,o),
(585,-203,o),
(635,-203,cs),
(685,-203,o),
(726,-204,o),
(768,-206,c),
(771,-177,l),
(711,-165,o),
(689,-159,o),
(686,-134,c),
(686,-134,o),
(678,42,o),
(678,257,cs),
(678,472,o),
(686,614,o),
(686,614,c),
(689,639,o),
(708,645,o),
(768,657,c),
(765,686,l,{
name = hr01;
}),
(723,684,o),
(685,683,o),
(635,683,c,{
name = hr02;
}),
(174,683,l),
(124,683,o),
(82,684,o),
(40,686,c,{
name = hr03;
}),
(37,657,l),
(97,645,o),
(116,639,o),
(119,614,c),
(119,614,o),
(127,472,o),
(127,257,cs),
(127,43,o),
(119,-134,o),
(119,-134,c),
(116,-159,o),
(90,-165,o),
(30,-177,c),
(33,-206,l),
(75,-204,o),
(124,-203,o),
(174,-203,cs),
(224,-203,o),
(265,-204,o),
(307,-206,c),
(310,-177,l),
(250,-165,o),
(228,-159,o),
(225,-134,c),
(225,-134,o),
(217,51,o),
(217,258,cs),
(217,442,o),
(225,627,o),
(225,627,c,{
name = hr04;
}),
(580,627,l)
);
}
);
width = 801;
}
);
unicode = 8719;
},
{
glyphname = summation;
layers = (
{
layerId = master01;
shapes = (
{
closed = 1;
nodes = (
(30,-203,l),
(600,-203,l),
(602,-167,o),
(612,-80,o),
(624,-44,c),
(597,-32,l),
(547,-127,o),
(429,-148,o),
(326,-148,cs),
(227,-148,o),
(131,-138,o),
(131,-120,c),
(411,259,l),
(177,613,l),
(181,634,o),
(270,635,o),
(318,635,cs),
(447,635,o),
(531,622,o),
(566,509,c),
(593,521,l),
(587,555,o),
(581,626,o),
(581,668,c),
(581,683,l),
(36,683,l),
(36,653,l),
(325,226,l),
(30,-168,l,{
name = hr00;
})
);
}
);
width = 654;
}
);
unicode = 8721;
},
{
glyphname = radical;
layers = (
{
layerId = master01;
shapes = (
{
closed = 1;
nodes = (
(579,730,l),
(406,730,l),
(260,173,l),
(255,173,l),
(162,465,l),
(0,430,l),
(9,393,l),
(94,411,l),
(233,0,l),
(262,0,l),
(449,691,l),
(579,691,l,{
name = hr00;
})
);
}
);
width = 574;
}
);
unicode = 8730;
},
{
glyphname = partialdiff;
layers = (
{
layerId = master01;
shapes = (
{
closed = 1;
nodes = (
(318,455,o),
(293,459,o),
(278,459,cs),
(119,459,o),
(20,290,o),
(20,155,cs),
(20,66,o),
(69,-9,o),
(174,-9,cs),
(333,-9,o),
(439,160,o),
(439,295,cs),
(439,556,o),
(242,691,o),
(116,691,cs),
(106,691,o),
(74,654,o),
(65,621,c),
(80,602,l),
(98,610,o),
(131,621,o),
(166,621,cs),
(249,621,o),
(308,551,o),
(336,450,c),
(332,448,l,{
name = hr00;
})
);
},
{
closed = 1;
nodes = (
(134,36,o),
(108,97,o),
(108,168,cs),
(108,278,o),
(166,414,o),
(262,414,cs),
(324,414,o),
(351,353,o),
(351,282,cs),
(351,172,o),
(292,36,o),
(196,36,cs)
);
}
);
width = 459;
}
);
unicode = 8706;
},
{
glyphname = mu;
layers = (
{
layerId = master01;
shapes = (
{
closed = 1;
nodes = (
(275,-9,o),
(348,24,o),
(381,56,c),
(388,10,o),
(417,-10,o),
(451,-10,cs,{
name = hr01;
}),
(479,-10,o),
(510,4,o),
(534,26,c),
(531,56,l),
(519,49,o),
(505,44,o),
(493,44,cs),
(474,44,o),
(459,56,o),
(458,92,c),
(458,92,o),
(455,118,o),
(455,202,cs),
(455,375,o),
(458,450,o),
(458,450,c),
(439,459,l),
(405,450,o),
(343,441,o),
(307,441,c),
(309,415,l),
(372,396,l),
(372,396,o),
(380,375,o),
(380,229,cs),
(380,152,o),
(378,122,o),
(376,95,c),
(348,78,o),
(289,58,o),
(240,58,cs),
(192,58,o),
(160,68,o),
(160,138,cs),
(160,284,o),
(163,450,o),
(163,450,c),
(144,459,l),
(110,450,o),
(53,441,o),
(17,441,c),
(19,415,l),
(78,396,l),
(81,316,o),
(85,232,o),
(85,78,cs),
(85,-223,o),
(126,-259,o),
(165,-259,cs),
(187,-259,o),
(216,-222,o),
(216,-189,cs),
(216,-179,o),
(210,-176,o),
(202,-176,cs),
(144,-176,o),
(130,-102,o),
(130,-21,c,{
name = hr02;
}),
(130,37,l),
(134,37,l),
(145,4,o),
(180,-9,o),
(217,-9,cs)
);
}
);
width = 550;
}
);
unicode = 181;
},
{
glyphname = percent;
layers = (
{
layerId = master01;
shapes = (
{
closed = 1;
nodes = (
(194,-1,l),
(606,679,l),
(558,679,l),
(146,-1,l)
);
},
{
closed = 1;
nodes = (
(228,638,o),
(243,581,o),
(243,510,cs),
(243,437,o),
(228,382,o),
(197,382,cs),
(167,382,o),
(151,437,o),
(151,510,cs),
(151,581,o),
(167,638,o),
(197,638,cs,{
name = hr01;
})
);
},
{
closed = 1;
nodes = (
(314,599,o),
(276,673,o),
(197,673,cs),
(118,673,o),
(80,599,o),
(80,509,cs),
(80,419,o),
(118,346,o),
(197,346,cs),
(276,346,o),
(314,419,o),
(314,509,cs)
);
},
{
closed = 1;
nodes = (
(578,283,o),
(593,226,o),
(593,155,cs),
(593,82,o),
(578,27,o),
(547,27,cs),
(517,27,o),
(501,82,o),
(501,155,cs),
(501,226,o),
(517,283,o),
(547,283,cs)
);
},
{
closed = 1;
nodes = (
(664,244,o),
(626,318,o),
(547,318,cs),
(468,318,o),
(430,244,o),
(430,154,cs),
(430,64,o),
(468,-9,o),
(547,-9,cs),
(626,-9,o),
(664,64,o),
(664,154,cs)
);
}
);
width = 784;
}
);
unicode = 37;
},
{
glyphname = perthousand;
layers = (
{
layerId = master01;
shapes = (
{
closed = 1;
nodes = (
(194,-1,l),
(606,679,l),
(558,679,l),
(146,-1,l)
);
},
{
closed = 1;
nodes = (
(228,638,o),
(243,581,o),
(243,510,cs),
(243,437,o),
(228,382,o),
(197,382,cs),
(167,382,o),
(151,437,o),
(151,510,cs),
(151,581,o),
(167,638,o),
(197,638,cs,{
name = hr01;
})
);
},
{
closed = 1;
nodes = (
(314,599,o),
(276,673,o),
(197,673,cs),
(118,673,o),
(80,599,o),
(80,509,cs),
(80,419,o),
(118,346,o),
(197,346,cs),
(276,346,o),
(314,419,o),
(314,509,cs)
);
},
{
closed = 1;
nodes = (
(578,283,o),
(593,226,o),
(593,155,cs),
(593,82,o),
(578,27,o),
(547,27,cs),
(517,27,o),
(501,82,o),
(501,155,cs),
(501,226,o),
(517,283,o),
(547,283,cs)
);
},
{
closed = 1;
nodes = (
(664,244,o),
(626,318,o),
(547,318,cs),
(468,318,o),
(430,244,o),
(430,154,cs),
(430,64,o),
(468,-9,o),
(547,-9,cs),
(626,-9,o),
(664,64,o),
(664,154,cs)
);
},
{
closed = 1;
nodes = (
(849,283,o),
(864,226,o),
(864,155,cs),
(864,82,o),
(849,27,o),
(818,27,cs),
(788,27,o),
(772,82,o),
(772,155,cs),
(772,226,o),
(788,283,o),
(818,283,cs)
);
},
{
closed = 1;
nodes = (
(935,244,o),
(897,318,o),
(818,318,cs),
(739,318,o),
(701,244,o),
(701,154,cs),
(701,64,o),
(739,-9,o),
(818,-9,cs),
(897,-9,o),
(935,64,o),
(935,154,cs)
);
}
);
width = 985;
}
);
unicode = 8240;
},
{
glyphname = lozenge;
layers = (
{
layerId = master01;
shapes = (
{
closed = 1;
nodes = (
(410,345,l),
(248,691,l),
(201,691,l),
(40,345,l),
(201,0,l),
(248,0,l,{
name = hr00;
})
);
},
{
closed = 1;
nodes = (
(225,60,l),
(106,345,l),
(225,631,l),
(345,345,l)
);
}
);
width = 450;
}
);
unicode = 9674;
},
{
glyphname = commaaccent;
layers = (
{
layerId = master01;
shapes = (
{
closed = 1;
nodes = (
(62,-114,o),
(78,-135,o),
(105,-135,cs),
(117,-135,o),
(132,-129,o),
(138,-119,c),
(140,-126,o),
(140,-132,o),
(140,-139,cs),
(140,-176,o),
(115,-215,o),
(81,-244,c),
(96,-265,l),
(154,-233,o),
(190,-183,o),
(190,-131,cs),
(190,-71,o),
(151,-45,o),
(116,-45,cs),
(87,-45,o),
(62,-62,o),
(62,-92,cs,{
name = hr00;
})
);
}
);
width = 250;
}
);
},
{
glyphname = dieresis;
layers = (
{
layerId = master01;
shapes = (
{
closed = 1;
nodes = (
(349,563,o),
(372,586,o),
(372,617,cs),
(372,646,o),
(349,669,o),
(320,669,cs),
(291,669,o),
(268,646,o),
(268,617,cs),
(268,586,o),
(291,563,o),
(320,563,cs,{
name = hr00;
})
);
},
{
closed = 1;
nodes = (
(169,563,o),
(192,586,o),
(192,617,cs),
(192,646,o),
(169,669,o),
(140,669,cs),
(111,669,o),
(88,646,o),
(88,617,cs),
(88,586,o),
(111,563,o),
(140,563,cs)
);
}
);
width = 464;
}
);
unicode = 168;
},
{
glyphname = dotaccent;
layers = (
{
layerId = master01;
shapes = (
{
closed = 1;
nodes = (
(164,563,o),
(187,586,o),
(187,617,cs),
(187,646,o),
(164,669,o),
(135,669,c),
(106,669,o),
(83,646,o),
(83,617,cs),
(83,586,o),
(106,563,o),
(135,563,c,{
name = hr00;
})
);
}
);
width = 267;
}
);
unicode = 729;
},
{
glyphname = grave;
layers = (
{
layerId = master01;
shapes = (
{
closed = 1;
nodes = (
(182,523,l),
(48,722,l),
(15,722,o),
(-18,703,o),
(-21,680,c),
(152,518,l,{
name = hr00;
})
);
}
);
width = 285;
}
);
unicode = 96;
},
{
glyphname = acute;
layers = (
{
layerId = master01;
shapes = (
{
closed = 1;
nodes = (
(270,703,o),
(237,722,o),
(204,722,c),
(70,523,l),
(100,518,l),
(273,680,l,{
name = hr00;
})
);
}
);
width = 285;
}
);
unicode = 180;
},
{
glyphname = hungarumlaut;
layers = (
{
layerId = master01;
shapes = (
{
closed = 1;
nodes = (
(240,703,o),
(207,722,o),
(174,722,c),
(40,523,l),
(70,518,l),
(243,680,l,{
name = hr00;
})
);
},
{
closed = 1;
nodes = (
(69,703,o),
(36,722,o),
(3,722,c),
(-131,523,l),
(-101,518,l),
(72,680,l)
);
}
);
width = 285;
}
);
unicode = 733;
},
{
glyphname = circumflex;
layers = (
{
layerId = master01;
shapes = (
{
closed = 1;
nodes = (
(50,523,l),
(80,518,l),
(162,622,l),
(245,518,l),
(275,523,l),
(181,717,l),
(144,717,l,{
name = hr00;
})
);
}
);
width = 325;
}
);
unicode = 710;
},
{
glyphname = caron;
layers = (
{
layerId = master01;
shapes = (
{
closed = 1;
nodes = (
(285,717,l),
(255,722,l),
(162,608,l),
(70,722,l),
(40,717,l),
(144,522,l),
(181,522,l,{
name = hr00;
})
);
}
);
width = 325;
}
);
unicode = 711;
},
{
glyphname = breve;
layers = (
{
layerId = master01;
shapes = (
{
closed = 1;
nodes = (
(43,587,o),
(103,551,o),
(162,551,cs),
(222,551,o),
(282,587,o),
(292,659,c),
(255,664,l),
(248,628,o),
(205,611,o),
(162,611,cs),
(120,611,o),
(77,628,o),
(70,664,c),
(33,659,l,{
name = hr00;
})
);
}
);
width = 325;
}
);
unicode = 728;
},
{
glyphname = ring;
layers = (
{
layerId = master01;
shapes = (
{
closed = 1;
nodes = (
(197,694,o),
(210,656,o),
(210,615,cs),
(210,561,o),
(188,545,o),
(161,545,cs),
(124,545,o),
(109,584,o),
(109,624,cs),
(109,678,o),
(132,694,o),
(159,694,c,{
name = hr00;
})
);
},
{
closed = 1;
nodes = (
(57,561,o),
(104,515,o),
(162,515,cs),
(220,515,o),
(266,561,o),
(266,619,cs),
(266,677,o),
(220,724,o),
(162,724,cs),
(104,724,o),
(57,677,o),
(57,619,c)
);
}
);
width = 325;
}
);
unicode = 730;
},
{
glyphname = tilde;
layers = (
{
layerId = master01;
shapes = (
{
closed = 1;
nodes = (
(218,535,o),
(79,797,o),
(9,564,c),
(35,556,l),
(128,685,o),
(267,423,o),
(337,656,c),
(311,664,l)
);
}
);
width = 360;
}
);
unicode = 732;
},
{
glyphname = macron;
layers = (
{
layerId = master01;
shapes = (
{
closed = 1;
nodes = (
(332,633,l),
(290,630,o),
(248,629,o),
(206,629,cs),
(156,629,o),
(107,631,o),
(57,634,c,{
name = hr01;
}),
(18,588,l),
(26,572,l),
(72,575,o),
(118,576,o),
(163,576,cs,{
name = hr02;
}),
(209,576,o),
(255,575,o),
(301,572,c,{
name = hr03;
}),
(340,618,l)
);
}
);
width = 360;
}
);
unicode = 175;
},
{
glyphname = cedilla;
layers = (
{
layerId = master01;
shapes = (
{
closed = 1;
nodes = (
(199,-16,o),
(191,-37,o),
(191,-53,cs),
(191,-100,o),
(258,-112,o),
(258,-145,cs),
(258,-164,o),
(222,-177,o),
(161,-180,c),
(148,-191,o),
(138,-209,o),
(138,-226,cs),
(138,-238,o),
(143,-250,o),
(154,-259,c),
(261,-219,o),
(312,-170,o),
(312,-125,cs),
(312,-78,o),
(234,-57,o),
(234,-24,cs),
(234,-16,o),
(235,-8,o),
(247,11,c),
(221,11,l,{
name = hr00;
})
);
}
);
width = 443;
}
);
unicode = 184;
},
{
glyphname = ogonek;
layers = (
{
layerId = master01;
shapes = (
{
closed = 1;
nodes = (
(305,-150,o),
(290,-153,o),
(277,-153,cs),
(245,-153,o),
(221,-136,o),
(221,-97,cs),
(221,-66,o),
(237,-21,o),
(298,0,c),
(298,26,l),
(202,2,o),
(156,-69,o),
(156,-126,cs),
(156,-169,o),
(183,-203,o),
(239,-203,cs),
(268,-203,o),
(300,-193,o),
(326,-176,c),
(320,-144,l,{
name = hr00;
})
);
}
);
width = 459;
}
);
unicode = 731;
},
{
glyphname = dieresis.case;
layers = (
{
layerId = master01;
shapes = (
{
closed = 1;
nodes = (
(349,793,o),
(372,816,o),
(372,847,cs),
(372,876,o),
(349,899,o),
(320,899,cs),
(291,899,o),
(268,876,o),
(268,847,cs),
(268,816,o),
(291,793,o),
(320,793,cs,{
name = hr00;
})
);
},
{
closed = 1;
nodes = (
(169,793,o),
(192,816,o),
(192,847,cs),
(192,876,o),
(169,899,o),
(140,899,cs),
(111,899,o),
(88,876,o),
(88,847,cs),
(88,816,o),
(111,793,o),
(140,793,cs)
);
}
);
width = 464;
}
);
},
{
glyphname = dotaccent.case;
layers = (
{
layerId = master01;
shapes = (
{
closed = 1;
nodes = (
(164,793,o),
(187,816,o),
(187,847,cs),
(187,876,o),
(164,899,o),
(135,899,c),
(106,899,o),
(83,876,o),
(83,847,cs),
(83,816,o),
(106,793,o),
(135,793,c,{
name = hr00;
})
);
}
);
width = 267;
}
);
},
{
glyphname = grave.case;
layers = (
{
layerId = master01;
shapes = (
{
closed = 1;
nodes = (
(182,753,l),
(48,952,l),
(15,952,o),
(-18,933,o),
(-21,910,c),
(152,748,l,{
name = hr00;
})
);
}
);
width = 285;
}
);
},
{
glyphname = acute.case;
layers = (
{
layerId = master01;
shapes = (
{
closed = 1;
nodes = (
(270,933,o),
(237,952,o),
(204,952,c),
(70,753,l),
(100,748,l),
(273,910,l,{
name = hr00;
})
);
}
);
width = 285;
}
);
},
{
glyphname = hungarumlaut.case;
layers = (
{
layerId = master01;
shapes = (
{
closed = 1;
nodes = (
(240,933,o),
(207,952,o),
(174,952,c),
(40,753,l),
(70,748,l),
(243,910,l,{
name = hr00;
})
);
},
{
closed = 1;
nodes = (
(69,933,o),
(36,952,o),
(3,952,c),
(-131,753,l),
(-101,748,l),
(72,910,l)
);
}
);
width = 285;
}
);
},
{
glyphname = circumflex.case;
layers = (
{
layerId = master01;
shapes = (
{
closed = 1;
nodes = (
(50,753,l),
(80,748,l),
(162,852,l),
(245,748,l),
(275,753,l),
(181,947,l),
(144,947,l,{
name = hr00;
})
);
}
);
width = 325;
}
);
},
{
glyphname = caron.case;
layers = (
{
layerId = master01;
shapes = (
{
closed = 1;
nodes = (
(285,947,l),
(255,952,l),
(162,838,l),
(70,952,l),
(40,947,l),
(144,752,l),
(181,752,l,{
name = hr00;
})
);
}
);
width = 325;
}
);
},
{
glyphname = breve.case;
layers = (
{
layerId = master01;
shapes = (
{
closed = 1;
nodes = (
(43,817,o),
(103,781,o),
(162,781,cs),
(222,781,o),
(282,817,o),
(292,889,c),
(255,894,l),
(248,858,o),
(205,841,o),
(162,841,cs),
(120,841,o),
(77,858,o),
(70,894,c),
(33,889,l,{
name = hr00;
})
);
}
);
width = 325;
}
);
},
{
glyphname = ring.case;
layers = (
{
layerId = master01;
shapes = (
{
closed = 1;
nodes = (
(197,924,o),
(210,886,o),
(210,845,cs),
(210,791,o),
(188,775,o),
(161,775,cs),
(124,775,o),
(109,814,o),
(109,854,cs),
(109,908,o),
(132,924,o),
(159,924,c,{
name = hr00;
})
);
},
{
closed = 1;
nodes = (
(57,791,o),
(104,745,o),
(162,745,cs),
(220,745,o),
(266,791,o),
(266,849,cs),
(266,907,o),
(220,954,o),
(162,954,cs),
(104,954,o),
(57,907,o),
(57,849,c)
);
}
);
width = 325;
}
);
},
{
glyphname = tilde.case;
layers = (
{
layerId = master01;
shapes = (
{
closed = 1;
nodes = (
(218,765,o),
(79,1027,o),
(9,794,c),
(35,786,l),
(128,915,o),
(267,653,o),
(337,886,c),
(311,894,l)
);
}
);
width = 360;
}
);
},
{
glyphname = macron.case;
layers = (
{
layerId = master01;
shapes = (
{
closed = 1;
nodes = (
(332,863,l),
(290,860,o),
(248,859,o),
(206,859,cs),
(156,859,o),
(107,861,o),
(57,864,c,{
name = hr01;
}),
(18,818,l),
(26,802,l),
(72,805,o),
(118,806,o),
(163,806,cs,{
name = hr02;
}),
(209,806,o),
(255,805,o),
(301,802,c,{
name = hr03;
}),
(340,848,l)
);
}
);
width = 360;
}
);
},
{
glyphname = caron.salt;
layers = (
{
layerId = master01;
shapes = (
{
closed = 1;
nodes = (
(62,686,o),
(78,665,o),
(105,665,cs),
(117,665,o),
(132,671,o),
(138,681,c),
(140,674,o),
(140,668,o),
(140,661,cs),
(140,624,o),
(115,585,o),
(81,556,c),
(96,535,l),
(154,567,o),
(190,617,o),
(190,669,cs),
(190,729,o),
(151,755,o),
(116,755,cs),
(87,755,o),
(62,738,o),
(62,708,cs,{
name = hr00;
})
);
}
);
width = 250;
}
);
},
{
glyphname = fb;
layers = (
{
layerId = master01;
shapes = (
{
closed = 1;
nodes = (
(516,389,o),
(553,399,o),
(585,399,cs),
(677,399,o),
(722,317,o),
(722,231,cs),
(722,136,o),
(668,37,o),
(566,37,cs),
(541,37,o),
(513,42,o),
(482,54,c),
(480,70,o),
(473,155,o),
(473,367,c)
);
},
{
closed = 1;
nodes = (
(392,649,o),
(398,627,o),
(398,369,cs),
(398,112,o),
(390,25,o),
(390,25,c),
(442,3,o),
(501,-10,o),
(556,-10,cs),
(735,-10,o),
(811,114,o),
(811,234,cs),
(811,348,o),
(743,459,o),
(628,459,cs),
(583,459,o),
(531,442,o),
(473,402,c),
(473,610,o),
(475,721,o),
(475,721,c),
(456,730,l),
(437,711,l),
(296,750,o),
(101,668,o),
(101,451,c),
(67,453,o),
(53,455,o),
(53,455,c),
(30,416,l),
(33,405,l),
(33,405,o),
(58,405,o),
(102,406,c),
(102,120,o),
(95,48,o),
(94,48,c),
(92,37,o),
(47,28,o),
(26,26,c),
(23,-3,l),
(55,-1,o),
(101,0,o),
(135,0,cs,{
name = hr01;
}),
(169,0,o),
(228,-1,o),
(260,-3,c),
(263,26,l),
(242,27,o),
(188,37,o),
(187,48,cs),
(186,56,o),
(177,125,o),
(177,406,c),
(247,405,o),
(281,402,o),
(281,402,c),
(312,441,l),
(307,453,l),
(307,453,o),
(259,452,o),
(177,452,c),
(177,614,o),
(231,712,o),
(392,649,c)
);
}
);
width = 852;
}
);
},
{
glyphname = fh;
layers = (
{
layerId = master01;
shapes = (
{
closed = 1;
nodes = (
(247,405,o),
(281,402,o),
(281,402,c),
(312,441,l),
(307,453,l),
(307,453,o),
(259,452,o),
(177,452,c),
(177,617,o),
(233,715,o),
(401,645,c),
(404,615,o),
(407,543,o),
(407,369,cs),
(407,112,o),
(400,48,o),
(400,48,c),
(398,37,o),
(358,28,o),
(337,26,c),
(334,-3,l),
(366,-1,o),
(412,0,o),
(446,0,cs,{
name = hr01;
}),
(480,0,o),
(522,-1,o),
(554,-3,c,{
name = hr02;
}),
(557,26,l),
(536,28,o),
(495,37,o),
(493,48,cs),
(492,50,o),
(482,99,o),
(482,367,c),
(489,369,o),
(554,394,o),
(617,394,cs),
(673,394,o),
(709,381,o),
(709,325,cs),
(709,229,ls),
(709,83,o),
(701,48,o),
(701,48,c),
(699,37,o),
(659,28,o),
(638,26,c),
(635,-3,l),
(667,-1,o),
(713,0,o),
(747,0,cs,{
name = hr03;
}),
(781,0,o),
(823,-1,o),
(855,-3,c,{
name = hr04;
}),
(858,26,l),
(837,28,o),
(796,37,o),
(794,48,c),
(794,48,o),
(784,83,o),
(784,229,cs),
(784,364,ls),
(784,443,o),
(741,459,o),
(682,459,cs),
(614,459,o),
(528,426,o),
(482,402,c),
(482,604,o),
(484,721,o),
(484,721,c),
(465,730,l),
(444,710,l),
(303,753,o),
(101,671,o),
(101,451,c),
(67,453,o),
(53,455,o),
(53,455,c),
(30,416,l),
(33,405,l),
(33,405,o),
(58,405,o),
(102,406,c),
(102,120,o),
(95,48,o),
(94,48,c),
(92,37,o),
(47,28,o),
(26,26,c),
(23,-3,l),
(55,-1,o),
(101,0,o),
(135,0,cs,{
name = hr05;
}),
(169,0,o),
(228,-1,o),
(260,-3,c,{
name = hr06;
}),
(263,26,l),
(242,27,o),
(188,37,o),
(187,48,cs),
(186,56,o),
(177,125,o),
(177,406,c)
);
}
);
width = 874;
}
);
},
{
glyphname = fj;
layers = (
{
layerId = master01;
shapes = (
{
closed = 1;
nodes = (
(401,396,o),
(409,289,o),
(409,15,cs),
(409,-160,o),
(375,-193,o),
(343,-193,cs),
(319,-193,o),
(296,-182,o),
(283,-174,c),
(268,-193,l),
(277,-226,o),
(309,-263,o),
(319,-263,cs),
(338,-263,o),
(484,-208,o),
(484,54,cs),
(484,298,o),
(486,450,o),
(486,450,c),
(467,459,l),
(433,452,o),
(213,452,o),
(177,452,c),
(177,627,o),
(240,670,o),
(311,670,cs),
(353,670,o),
(396,648,o),
(427,610,c),
(457,624,o),
(476,648,o),
(476,672,cs),
(476,708,o),
(417,730,o),
(358,730,cs),
(248,730,o),
(101,656,o),
(101,451,c),
(67,453,o),
(53,455,o),
(53,455,c),
(30,416,l),
(33,405,l),
(33,405,o),
(58,405,o),
(102,406,c),
(102,120,o),
(95,48,o),
(94,48,c),
(92,37,o),
(47,28,o),
(26,26,c),
(23,-3,l),
(55,-1,o),
(101,0,o),
(135,0,cs),
(169,0,o),
(228,-1,o),
(260,-3,c),
(263,26,l),
(242,27,o),
(188,37,o),
(187,48,cs),
(186,56,o),
(177,125,o),
(177,406,c),
(209,409,o),
(239,411,o),
(265,411,cs),
(351,411,o),
(401,396,o),
(401,396,c,{
name = hr00;
})
);
}
);
width = 562;
}
);
},
{
glyphname = fk;
layers = (
{
layerId = master01;
shapes = (
{
closed = 1;
nodes = (
(701,-9,l),
(725,-7,o),
(795,-3,o),
(830,-3,c,{
name = hr01;
}),
(833,26,l),
(812,28,o),
(778,26,o),
(766,43,cs),
(578,294,l),
(702,386,ls),
(723,401,o),
(753,419,o),
(808,427,c),
(805,456,l),
(764,454,o),
(743,453,o),
(694,453,cs),
(645,453,o),
(635,454,o),
(594,456,c),
(591,427,l),
(634,426,o),
(651,415,o),
(651,404,cs),
(651,400,o),
(649,396,o),
(644,392,cs),
(484,272,l),
(484,352,ls),
(484,596,o),
(486,721,o),
(486,721,c),
(467,730,l),
(445,709,l),
(304,754,o),
(101,672,o),
(101,451,c),
(67,453,o),
(53,455,o),
(53,455,c),
(30,416,l),
(33,405,l),
(33,405,o),
(58,405,o),
(102,406,c),
(102,120,o),
(95,48,o),
(94,48,c),
(92,37,o),
(47,28,o),
(26,26,c),
(23,-3,l),
(55,-1,o),
(101,0,o),
(135,0,cs,{
name = hr02;
}),
(169,0,o),
(228,-1,o),
(260,-3,c,{
name = hr03;
}),
(263,26,l),
(242,27,o),
(188,37,o),
(187,48,cs),
(186,56,o),
(177,125,o),
(177,406,c),
(247,405,o),
(281,402,o),
(281,402,c),
(312,441,l),
(307,453,l),
(307,453,o),
(259,452,o),
(177,452,c),
(177,618,o),
(233,716,o),
(403,644,c),
(406,613,o),
(409,541,o),
(409,369,cs),
(409,112,o),
(400,48,o),
(400,48,c),
(398,37,o),
(358,28,o),
(337,26,c),
(334,-3,l),
(366,-1,o),
(412,0,o),
(446,0,cs,{
name = hr04;
}),
(480,0,o),
(522,-1,o),
(554,-3,c,{
name = hr05;
}),
(557,26,l),
(536,28,o),
(495,37,o),
(493,48,cs),
(493,50,o),
(488,95,o),
(485,226,c),
(516,249,l)
);
}
